STARTFONT 2.1
FONT -FontForge-Indie Flower-Book-R-Normal--117-1120-75-75-P-539-ISO10646-1
SIZE 112 75 75
FONTBOUNDINGBOX 143 171 -16 -57
COMMENT "Generated by fontforge, http://fontforge.sourceforge.net"
COMMENT "Copyright (c) 2010, Kimberly Geswein (kimberlygeswein.com)"
STARTPROPERTIES 39
FOUNDRY "FontForge"
FAMILY_NAME "Indie Flower"
WEIGHT_NAME "Book"
SLANT "R"
SETWIDTH_NAME "Normal"
ADD_STYLE_NAME ""
PIXEL_SIZE 117
POINT_SIZE 1120
RESOLUTION_X 75
RESOLUTION_Y 75
SPACING "P"
AVERAGE_WIDTH 539
CHARSET_REGISTRY "ISO10646"
CHARSET_ENCODING "1"
FONTNAME_REGISTRY ""
CHARSET_COLLECTIONS "ISO8859-2 ISO8859-9 ISO8859-4 ISO10646-1"
FONT_NAME "IndieFlower"
FACE_NAME "Indie Flower"
COPYRIGHT "Copyright (c) 2010, Kimberly Geswein (kimberlygeswein.com)"
FONT_VERSION "1.001 2010"
FONT_ASCENT 94
FONT_DESCENT 23
UNDERLINE_POSITION -12
UNDERLINE_THICKNESS 6
X_HEIGHT 44
CAP_HEIGHT 60
RAW_ASCENT 799
RAW_DESCENT 200
NORM_SPACE 44
RELATIVE_WEIGHT 40
RELATIVE_SETWIDTH 50
SUPERSCRIPT_X 0
SUPERSCRIPT_Y 55
SUPERSCRIPT_SIZE 76
SUBSCRIPT_X 0
SUBSCRIPT_Y 16
SUBSCRIPT_SIZE 76
AVG_LOWERCASE_WIDTH 526
AVG_UPPERCASE_WIDTH 630
ENDPROPERTIES
CHARS 356
STARTCHAR space
ENCODING 32
SWIDTH 375 0
DWIDTH 44 0
BBX 1 1 0 0
BITMAP
00
ENDCHAR
STARTCHAR exclam
ENCODING 33
SWIDTH 149 0
DWIDTH 17 0
BBX 13 96 2 0
BITMAP
3F00
3F00
3F00
3F00
1F00
1F00
1F00
1F00
1F00
1F00
1F00
1F00
1F00
1F00
1F00
1F00
1F00
1F00
1F00
1F00
1F00
1F00
1F00
1F00
1F00
1F00
1F00
1F00
1F00
1F00
1F00
1F80
1F80
3F80
3F80
3F80
3F80
3F80
3F80
3F80
3F80
3F80
3F80
3F80
3F80
1F80
1F80
1F80
1F80
1F80
1F80
1F80
1F80
1F80
1F80
1F80
1F80
1F80
1F80
1F80
1F80
1F80
1F80
1F80
1F80
0F00
0000
0000
0000
0000
0000
0000
0000
0000
0000
0000
0000
0000
0000
0000
0000
0000
0000
0000
07C0
3FF0
7FF0
FFF8
FFF8
FFF8
FFF8
FFF8
FFF8
FFF0
7FC0
3F00
ENDCHAR
STARTCHAR quotedbl
ENCODING 34
SWIDTH 234 0
DWIDTH 27 0
BBX 23 36 1 57
BITMAP
0000E0
0000F0
0000F0
F000F0
F000F8
F800F8
F800F8
FC00F8
FC00FC
7C00FC
7E00FC
7E00FC
7E00FC
7E00FC
7F00FC
7F00FE
7F00FE
3F00FE
3F80FE
3F80FE
3F80FE
3F80FE
1F80FE
1FC0FE
1FC0FE
1FC0FE
0FE0FE
0FE0FE
0FE0FE
07E07E
07F07E
03F07E
03F07E
00C03E
00001E
00001C
ENDCHAR
STARTCHAR numbersign
ENCODING 35
SWIDTH 768 0
DWIDTH 90 0
BBX 86 58 1 0
BITMAP
0000000004000000000000
000000001C001C00000000
000000003C003C00000000
000000003C003C00000000
000000003E003E00000000
000000003E007E00000000
000000003E003E00000000
000000003E003E00000000
000000003E003F00000000
000000003E001F00000000
000000003E001F00000000
000000003F001F00000000
000000003F000F80000000
000000003F000F80000000
000000003F000FC0000000
000000003F801FFFFFF800
000000003F803FFFFFFC00
000000003FFDFFFFFFFE00
000000003FFFFFFFFFFF00
00000000FFFFFFFFFFFF80
0000001FFFFFFFFFFFFFC0
000007FFFFFFFFFE003F80
0001FFFFFFFFFFE0000600
001FFFFFFFFFFFE0000000
00FFFFFFFFE00FE0000000
07FFFFFFFFE007E0000000
1FFFFFC03FC007E0000000
7FFFFC001FC007E0000000
7FFFE0001FC007E0000000
FFFF00001FC007F007FF80
FFF800001FC007FFFFFFF0
FFC000001FC007FFFFFFF8
7C0000001FE07FFFFFFFF8
000000001FEFFFFFFFFFFC
000000001FFFFFFFFFFFFC
000000007FFFFFFFFFFFFC
0000000FFFFFFFFFF807F8
000001FFFFFFFFFF000000
00003FFFFFFFEFF0000000
0007FFFFFFFE07F0000000
007FFFFFFFF007F0000000
007FFFFFCFF007F0000000
007FFFE007F003F0000000
007FF80007F003F0000000
003C000007F003F0000000
0000000003F003F8000000
0000000003F003F8000000
0000000003F003F8000000
0000000003F003F8000000
0000000003F003F8000000
0000000003F003F8000000
0000000001E001FC000000
00000000000001FC000000
00000000000001FC000000
00000000000001F8000000
00000000000001F0000000
00000000000000E0000000
00000000000000C0000000
ENDCHAR
STARTCHAR dollar
ENCODING 36
SWIDTH 581 0
DWIDTH 68 0
BBX 65 109 1 0
BITMAP
000000000200000000
000000000600000000
000000000E00000000
000000001E00000000
000000003E00E00000
000000003E01E00000
000000003F03E00000
000000007E03E00000
000000007E03E00000
000000007E07E00000
000000007E07E00000
000000007E07E00000
00000000FC07E00000
00000000FC07E00000
00000000FE07E00000
00000000FE07E00000
00000000FE07E00000
00000000FF07E00000
00000000FFFFE00000
00000000FFFFE00000
00000001FFFFE00000
0000000FFFFFE00000
0000003FFFFFF00000
0000007FFFFFFC0000
000001FFFFFFFE0000
000003FFFF0FFF0000
000007FFFC0FFF0000
00000FFFF80FFC0000
00001FFFF80FF00000
00003FC7F80F800000
00007F83F80F800000
00007F01F80F800000
00007F01F80F800000
0000FE01F80F800000
0000FE01F00F800000
00007E01F00F800000
00007E01F00F000000
00007E01F00F000000
00003E01F00F000000
00003F03F00F000000
00001FC3F00F000000
00000FE3F01E000000
000007FFF01E000000
000003FFF01E000000
000001FFF01E000000
000000FFF03E000000
0000007FF03E000000
0000001FF07E000000
0000000FF87E000000
0000000FF8FE000000
00000007FDFE000000
00000007FFFF000000
00000007FFFF800000
00000007FFFFC00000
00000007F1FFE00000
00000007F1FFF00000
00000007F1FFF80000
00000007F1FFFC0000
00000007E1FFFE0000
00000007E3FC7F0000
00000007E3F83F8000
0000000FE3F81FC000
0000000FE3F00FE000
0000000FC3F007F000
0000000FC3F003F800
0000000FC3E001FC00
0000000FC7E001FC00
0000000F87E000FE00
0000000F87E0007E00
0000000F87E0007F00
0000000F87C0007F00
0000000F07C0003F00
0000000F07C0003F80
7C00001F0FC0003F80
FF00001F0FC0003F80
FF80001F0FC0003F80
FFC0001E0FC0003F80
7FE0001E0FC0003F80
7FF0001E0FC0003F80
3FF8003E0FC0003F80
1FFC003E1FC0003F80
07FE003E1FC0003F00
03FF007E1FC0003F00
01FF807E1FC0007F00
007FC0FE1FC0007F00
001FF1FE1FC0007F00
000FFFFE1FC000FE00
0003FFFE3FC000FE00
0000FFFF3FC001FC00
00003FFFFFC001FC00
00001FFFFFC003F800
000007FFFFC007F800
000003FFFFC00FF000
000001FFFFC03FE000
000000FFFFE3FFC000
000000FFFFFFFF8000
0000007FFFFFFF0000
0000007F7FFFFC0000
0000007F7FFFF00000
0000007F3FFFC00000
0000007F3FFC000000
0000007E3F80000000
0000007E3F80000000
0000007E1F80000000
0000007E1F80000000
0000007C1F80000000
0000003C1F00000000
0000003C1F00000000
000000001E00000000
ENDCHAR
STARTCHAR percent
ENCODING 37
SWIDTH 636 0
DWIDTH 75 0
BBX 71 71 1 0
BITMAP
000000000000001800
000000000000003C00
000000000000007C00
00000000000000F800
00000000000001F800
00000000000003F000
00000000000007E000
00070000000007E000
007FF00000000FC000
00FFFC0000001F8000
03FFFF0000003F0000
07FFFF8000007F0000
0FFFFFC000007E0000
1FFFFFE00000FC0000
1FF03FF00001F80000
3FE00FF00003F00000
3F8007F80003E00000
7F8003F80007E00000
7F0001F8000FC00000
7E0001FC001F800000
FE0000FC001F000000
FE0000FC003E000000
FE0000FC007E000000
FE0000FC007C000000
FE0000FC00F8000000
FE0001F801F0000000
FE0001F803F0000000
7E0003F803E0000000
7F0007F007C0000000
3F001FE00FC0000000
3F807FE00F80000000
1FE3FFC01F80000000
0FFFFF803F00000000
07FFFF003F00000000
03FFFE007E00000000
00FFF800FE00000000
003FE000FC0001FC00
00000001FC0007FE00
00000003F8001FFF80
00000003F8003FFFC0
00000007F0007FFFE0
0000000FF000FFFFF0
0000000FE001FFDFF0
0000001FE001FE07F8
0000003FC003F803F8
0000003FC007F003FC
0000007F8007E001FC
0000007F800FE001FC
000000FF000FC000FC
000001FE001F8000FE
000001FE001F8000FE
000003FC003F0000FC
000003FC003F0000FC
000007F8003E0000FC
000007F8007E0001FC
00000FF0007E0001FC
00000FF0007C0003F8
00001FE0007C0003F8
00001FE0007C0007F0
00003FC0007C000FF0
00003FC0007C001FE0
00007F80007C007FC0
00007F00007C01FFC0
0000FF00007FFFFF80
0000FE00003FFFFF00
0000FE00003FFFFE00
0000FC00001FFFFC00
0000F800000FFFF000
0000F8000007FFC000
0000F0000000FF0000
0000E0000000000000
ENDCHAR
STARTCHAR ampersand
ENCODING 38
SWIDTH 457 0
DWIDTH 53 0
BBX 50 81 1 0
BITMAP
00001F00000000
00003FC0000000
00007FE0000000
00007FF0000000
00007FF0000000
00007FF8000000
00007FF8000000
0000FFF8000000
0000FFF8000000
0000FFFC000000
0000FFFC000000
0000FFFC000000
0000FFFC000000
0000FFFC000000
0000FFFC000000
0000FFFC000000
0000FFFC000000
0000FFFC000000
0000FFF8000000
0000FFF8000000
0000FFF8000000
0000FFF8000000
0000FFF8000000
0000FFF0000000
0000FFF0000000
0000FFE0000000
0000FFE0000000
0000FFE0000000
0000FFC0000000
0000FFC0000000
0000FF80000000
0000FF80000000
0000FF00000000
0001FF00000F80
0001FE001FFFC0
0001FC003FFFC0
0001FC003FFFC0
0003FC003FFFC0
0003FC003FFFC0
0003FC003FFE00
0007FC003F8000
0007FE003F8000
000FFE003F0000
000FFE003F0000
001FFF003F0000
003FFF007E0000
003F9F007E0000
007F1F807E0000
007E0F807E0000
00FE0FC0FC0000
00FC07C0FC0000
01F807E1FC0000
01F803FFFC0000
03F001FFF80000
07F001FFF80000
07E000FFF80000
0FE000FFF00000
0FE0007FF00000
1FC0007FE00000
1FC0007FE00000
1F80007FC00000
3F80007FC00000
3F80007FC00000
7F00007FE00000
7F0000FFE00000
7F0000FFE00000
7E0001FFF00000
FE0003FFF80000
FE0007F0F80000
FE000FE0FC0000
FE001FC07E0000
FE003F803E0000
FE007F801F0000
FF01FF000F8000
7F83FE00078000
7FFFFC0007C000
3FFFF80003E000
1FFFF00001F000
0FFFE00000F000
07FFC000000000
03FF0000000000
ENDCHAR
STARTCHAR quotesingle
ENCODING 39
SWIDTH 102 0
DWIDTH 12 0
BBX 8 28 2 57
BITMAP
70
70
F8
F8
FC
FC
FC
FE
FE
FE
FE
FE
7E
7E
7F
7F
7F
7F
7F
7F
7F
3F
3F
3F
3F
1F
1F
0E
ENDCHAR
STARTCHAR parenleft
ENCODING 40
SWIDTH 421 0
DWIDTH 49 0
BBX 45 73 2 -5
BITMAP
000000001F80
00000000FFE0
00000003FFF0
0000000FFFF8
0000001FFFF8
0000007FFFF8
000000FFFFF8
000001FF8078
000003FE0030
00000FF80000
00001FE00000
00003FC00000
00007F800000
00007F000000
0000FE000000
0001FC000000
0003F8000000
0007F0000000
000FE0000000
000FC0000000
001FC0000000
003F80000000
003F00000000
007E00000000
00FE00000000
00FC00000000
01FC00000000
03F800000000
03F800000000
07F000000000
07F000000000
0FE000000000
0FE000000000
1FC000000000
1FC000000000
1F8000000000
3F8000000000
3F8000000000
7F0000000000
7F0000000000
7F0000000000
7F0000000000
7E0000000000
FE0000000000
FE0000000000
FE0000000000
FE0000000000
FE0000000000
FE0000000000
FE0000000000
7E0000000000
7E0000000000
7E0000000000
7E0000000000
7F0000000000
3F0000000000
3F0000000000
3F8000000000
1FC000000000
1FC000000000
0FE000000000
0FF800000000
07FC00000000
07FF00000000
03FFC0000000
01FFFC000000
00FFFFE00000
007FFFFE0000
003FFFFE0000
001FFFFE0000
0007FFFE0000
0001FFFC0000
000001C00000
ENDCHAR
STARTCHAR parenright
ENCODING 41
SWIDTH 290 0
DWIDTH 34 0
BBX 31 76 1 -7
BITMAP
07F00000
0FFC0000
0FFF0000
07FF8000
07FFE000
01FFF000
003FF800
001FF800
000FFC00
0007FE00
0003FF00
0001FF00
0000FF80
00007F80
00007FC0
00003FC0
00001FE0
00001FE0
00000FF0
00000FF0
000007F8
000007F8
000003F8
000003F8
000001FC
000001FC
000001FC
000000FC
000000FE
000000FE
000000FE
000000FE
000000FE
000000FE
000000FE
000000FE
000000FE
000000FC
000000FC
000000FC
000001FC
000001F8
000001F8
000003F0
000003F0
000007F0
000007E0
00000FE0
00000FC0
00001FC0
00003F80
00003F80
00007F00
0000FF00
0001FE00
0003FE00
0003FC00
0007FC00
000FF800
001FF800
003FF000
007FE000
00FFE000
01FFC000
03FF8000
07FF8000
0FFF0000
1FFE0000
3FFC0000
7FF80000
FFF00000
FFE00000
FFC00000
7F800000
7E000000
10000000
ENDCHAR
STARTCHAR asterisk
ENCODING 42
SWIDTH 412 0
DWIDTH 48 0
BBX 43 45 2 26
BITMAP
0000000001C0
0000000007E0
000000001FE0
000000007FE0
06000000FFC0
0F801801FF80
0FE03C03FF00
1FF83C0FFE00
0FFC7E1FF800
07FF7F3FF000
03FFFFFFE000
01FFFFFF8000
00FFFFFF0000
003FFFFC0000
001FFFFFFC00
000FFFFFFE00
000FFFFFFF00
0007FFFFFE00
0187FFFFFC00
0FC7FFFFF000
3FEFFFFFC000
7FFFFFFF8000
FFFFFFFF8000
FFFFFFFF8000
7CFFFFFF8000
00FFC7FFC000
00FF87FFC000
00FF03FFE000
01FF03FFE000
01FE01FFF000
01FC01FFF000
03FC01FFF800
03F801FFFC00
03F000FFFC00
03F000FFFE00
03E000FFFE00
03C000FEFF00
038000FE7E00
0000007E3C00
0000007E0000
0000007C0000
0000007C0000
000000380000
000000300000
000000200000
ENDCHAR
STARTCHAR plus
ENCODING 43
SWIDTH 459 0
DWIDTH 54 0
BBX 51 50 1 0
BITMAP
00000800000000
00001C00000000
00003E00000000
00003E00000000
00003F00000000
00003F00000000
00003F00000000
00003F80000000
00003F80000000
00001F80000000
00001F80000000
00001FC0000000
00001FC0000000
00000FC0000000
00000FE0000000
00000FE0000000
00000FE0000000
00000FE0000000
00000FF0000000
00000FFC000000
00000FFFF80000
00003FFFFFFC00
0003FFFFFFFFC0
007FFFFFFFFFE0
1FFFFFFFFFFFC0
FFFFFFFFFFFFC0
FFFFFFFFFFFF80
FFFFFFFFFFFF00
FFFE07FC000000
FFC007FC000000
000007FC000000
000003FC000000
000003FC000000
000003FC000000
000003FC000000
000003FC000000
000003FC000000
000001FC000000
000001FC000000
000001FC000000
000001FC000000
000001FC000000
000001FC000000
000001FC000000
000001FC000000
000001FC000000
000001FC000000
000000FC000000
000000F8000000
000000E0000000
ENDCHAR
STARTCHAR comma
ENCODING 44
SWIDTH 130 0
DWIDTH 15 0
BBX 10 39 1 -22
BITMAP
0C00
3F00
3F80
7F80
7FC0
7FC0
7FC0
7FC0
1FC0
1FC0
0FC0
0FC0
0FC0
0FC0
1FC0
1FC0
1FC0
1FC0
1FC0
1FC0
1F80
3F80
3F80
3F80
3F80
7F80
7F00
7F00
7F00
7F00
FE00
FE00
FE00
FE00
FC00
FC00
F800
F800
7000
ENDCHAR
STARTCHAR hyphen
ENCODING 45
SWIDTH 375 0
DWIDTH 44 0
BBX 38 9 2 28
BITMAP
003FFFFFC0
07FFFFFFF0
1FFFFFFFF8
3FFFFFFFF8
7FFFFFFFF8
FFFFFFFFFC
FFFFFC07F8
FFF8000020
F000000000
ENDCHAR
STARTCHAR period
ENCODING 46
SWIDTH 204 0
DWIDTH 24 0
BBX 16 22 5 0
BITMAP
0380
07E0
0FF0
1FF8
1FFC
3FFC
3FFE
7FFE
7FFE
FFFE
FFFF
FFFF
FFFF
FFFF
7FFE
7FFE
7FFC
3FFC
3FF8
1FF0
0FE0
0780
ENDCHAR
STARTCHAR slash
ENCODING 47
SWIDTH 309 0
DWIDTH 36 0
BBX 33 88 1 0
BITMAP
0000000300
0000000780
0000000780
0000000F80
0000000F80
0000001F80
0000001F80
0000001F80
0000001F80
0000003F00
0000003F00
0000003F00
0000003F00
0000003F00
0000003E00
0000007E00
0000007E00
0000007E00
000000FC00
000000FC00
000000FC00
000001F800
000001F800
000001F800
000003F800
000003F000
000007F000
000007F000
000007E000
00000FE000
00000FE000
00000FC000
00001FC000
00001FC000
00001FC000
00003F8000
00003F8000
00007F8000
00007F0000
00007F0000
0000FF0000
0000FE0000
0000FE0000
0001FE0000
0001FC0000
0001FC0000
0003FC0000
0003F80000
0007F80000
0007F80000
0007F00000
000FF00000
000FE00000
000FE00000
001FE00000
001FC00000
001FC00000
003FC00000
003F800000
007F800000
007F800000
007F000000
00FF000000
00FE000000
00FE000000
01FE000000
01FC000000
01FC000000
03FC000000
07F8000000
07F8000000
0FF0000000
0FF0000000
1FE0000000
1FE0000000
1FE0000000
3FC0000000
3FC0000000
7F80000000
7F80000000
7F00000000
7F00000000
FE00000000
FE00000000
FC00000000
FC00000000
7800000000
3000000000
ENDCHAR
STARTCHAR zero
ENCODING 48
SWIDTH 430 0
DWIDTH 50 0
BBX 45 51 2 0
BITMAP
00000FE00000
00007FFC0000
0001FFFE0000
0003FFFF8000
000FFFFFC000
001FFFFFE000
003FFFFFF000
007FFFFFF800
00FF803FFC00
01FE0007FE00
03F80003FF00
07F00000FF00
07E000007F80
0FC000003F80
0FC000001FC0
1F8000001FE0
3F0000000FE0
3F0000000FE0
3E00000007F0
7E00000007F0
7E00000003F8
7C00000003F8
FC00000003F8
FC00000003F8
FC00000003F8
FC00000001F8
FC00000001F8
FC00000001F8
FC00000001F8
FC00000001F8
7C00000003F8
7C00000003F8
7E00000003F0
7E00000007F0
3E00000007F0
3F0000000FF0
1F8000001FE0
1F8000001FE0
0FC000003FC0
0FE000003FC0
07F000007F80
03FC0000FF80
03FE0003FF00
01FFC00FFF00
00FFFFFFFE00
003FFFFFFC00
001FFFFFF800
000FFFFFF000
0003FFFFC000
00007FFF0000
00000FF80000
ENDCHAR
STARTCHAR one
ENCODING 49
SWIDTH 318 0
DWIDTH 37 0
BBX 33 69 2 0
BITMAP
0000000700
0000000F80
0000001F80
0000001F80
0000001F80
0000003F80
0000003F00
0000003F00
0000003F00
0000003F00
0000007F00
0000007F00
0000007F00
0000007F00
000000FF00
000000FF00
000000FE00
000001FE00
000003FE00
000007FE00
00000FFE00
00001FFE00
00003FFE00
00007FFE00
0000FFFE00
0001FFFC00
0003FFFC00
0007FFFC00
000FFFFC00
001FFFFC00
003FFFFC00
003FCFFC00
007F8FFC00
00FF07F800
01FE07F800
03FC07F800
07FC07F800
0FF807F800
1FF00FF800
3FE00FF800
7FC00FF000
FF800FF000
FF000FF000
FE000FF000
FC000FF000
F0000FF000
00000FF000
00000FE000
00000FE000
00000FE000
00000FE000
00001FE000
00001FE000
00001FE000
00001FC000
00001FC000
00001FC000
00001FC000
00001FC000
00001F8000
00001F8000
00001F8000
00001F8000
00001F8000
00001F0000
00001F0000
00001F0000
00001E0000
00000E0000
ENDCHAR
STARTCHAR two
ENCODING 50
SWIDTH 497 0
DWIDTH 58 0
BBX 54 64 1 0
BITMAP
00000000200000
00000003FE0000
0000000FFF8000
0000001FFFC000
0000003FFFE000
0000007FFFF000
000000FF07F800
000000FE03F800
000001FC01FC00
000001F801FE00
000001F800FE00
000001F800FE00
000001F0007F00
000001F0007F00
000001F0003F00
000000E0003F80
000000E0003F80
00000040003F80
00000000003F80
00000000001F80
00000000001FC0
00000000001FC0
00000000001FC0
00000000001FC0
00000000001FC0
00000000001FC0
00000000001FC0
00000000001FC0
00000000001FC0
00000000003F80
00000000003F80
00000000003F80
00000000003F80
00000000007F80
00000000007F00
00000000007F00
00000000007F00
0000000000FE00
0000000000FE00
0000000000FE00
0000000001FC00
0000000001FC00
0000000003F800
0000000003F800
0000000007F000
0000000007E000
038000000FC000
3FFC00001F8000
7FFF80001F8000
FFFFE0003F0000
FFFFF800FE0000
FFFFFF81FE0000
FFFFFFFFFE0000
FFFFFFFFFE0000
7FFFFFFFFE0000
7FFFFFFFFFC000
3FFFFFFFFFFE00
1FFFFFFFFFFFF0
0FFFFFFFFFFFF8
07FFFFFFFFFFFC
00FFFFFFFFFFFC
001FF80007FFFC
00000000007FF8
000000000003F0
ENDCHAR
STARTCHAR three
ENCODING 51
SWIDTH 430 0
DWIDTH 50 0
BBX 45 61 2 0
BITMAP
07FFFFFC0000
0FFFFFFF0000
1FFFFFFF8000
3FFFFFFFC000
3FFFFFFFE000
3FF8003FE000
1F800007F000
1F000003F000
0F000001F800
03000000F800
00000000F800
00000000F800
00000000FC00
00000001FC00
00000003F800
00000007F800
0000000FF000
0000003FE000
000000FFC000
000007FF8000
00003FFE0000
0007FFFC0000
00FFFFF80000
01FFFFF00000
03FFFFF00000
03FFFFF00000
03FFFFF80000
01FFFFFF0000
003FFFFF8000
0003FFFFE000
00003FFFF000
000003FFF800
0000003FFC00
0000000FFE00
00000003FF00
00000000FF80
000000007FC0
000000003FC0
000000001FE0
000000000FE0
0000000007F0
1800000007F0
7C00000003F8
7E00000003F8
FF00000003F8
FF80000001F8
FFC0000001F8
7FE0000001F8
3FF0000001F8
1FF8000003F8
07FE000003F8
03FF000007F8
01FFC0000FF0
00FFF0003FF0
003FFFFFFFE0
001FFFFFFFE0
0007FFFFFFC0
0003FFFFFF00
0000FFFFFE00
00003FFFF800
000003FF8000
ENDCHAR
STARTCHAR four
ENCODING 52
SWIDTH 412 0
DWIDTH 48 0
BBX 44 70 2 0
BITMAP
01F000000000
03F000000000
03F000000000
07F000000000
07F000000000
0FF000000000
0FF000000000
0FE000000000
1FE000000000
1FE000000000
1FC000000000
3FC000000000
3F8000000000
3F8000000000
3F8000000000
7F0000000000
7F0000000000
7F0000000100
7E00000001E0
7E00000001F0
7E00000003F0
FC00000003F0
FC00000007F0
FC00000007F0
FC00000007F0
FC0000000FF0
FC0000000FE0
FC0000001FE0
FC0000003FE0
FC0000003FE0
FC0000007FE0
FC0000007FC0
7C000000FFC0
7E000001FFC0
7E000001FFC0
7E000003FFC0
7F000007FF80
3F00000FFF80
3F80001FFF80
3FC0003FFF80
1FE000FFFF80
1FF003FFFF80
0FFC1FFFFF80
0FFFFFFFFF80
07FFFFFFFF80
07FFFFFE3F80
03FFFFFC3F80
01FFFFF03F80
00FFFFC03F80
007FFF801F80
001FFC001F80
000000001F80
000000001FC0
000000001FC0
000000001FC0
000000001FC0
000000001FC0
000000001FC0
000000001FE0
000000001FE0
000000001FE0
000000001FE0
000000001FE0
000000001FE0
000000001FE0
000000001FE0
000000001FE0
000000000FC0
000000000FC0
000000000F80
ENDCHAR
STARTCHAR five
ENCODING 53
SWIDTH 571 0
DWIDTH 67 0
BBX 62 77 2 0
BITMAP
00000007FFFFFC00
0000007FFFFFFFC0
000001FFFFFFFFE0
000007FFFFFFFFF8
00000FFFFFFFFFF8
00000FFFFFFFFFFC
00000FFFFFFFFFF8
00001FFC000000F0
000003F000000000
000003F000000000
000003F000000000
000007F000000000
000007E000000000
00000FE000000000
00000FC000000000
00001FC000000000
00001F8000000000
00003F8000000000
00003F0000000000
00007F0000000000
00007E0000000000
0000FE0000000000
0000FE0000000000
0001FC0000000000
0001FC0000000000
0003FC0000000000
0007FC0000000000
0007FFE000000000
000FFFFE00000000
000FFFFFC0000000
000FFFFFF0000000
000FFFFFFE000000
0007FFFFFF000000
0000FFFFFFC00000
000001FFFFF00000
00000007FFF80000
000000007FFC0000
000000000FFE0000
0000000001FF0000
00000000007F8000
00000000003FC000
00000000001FE000
00000000000FE000
000000000007F000
000000000003F800
000000000001F800
000000000001F800
000000000000FC00
000000000000FC00
000000000000FC00
000000000000FE00
0000000000007E00
0000000000007E00
3000000000007E00
7000000000007E00
7800000000007E00
F800000000007E00
F80000000000FE00
F80000000000FE00
F80000000000FE00
F80000000001FE00
F80000000001FE00
F80000000003FE00
F80000000007FC00
7C000000000FFC00
7F000000001FF800
7FC00000007FF000
3FFC000001FFF000
1FFFE0000FFFE000
0FFFFFFFFFFFC000
07FFFFFFFFFF8000
03FFFFFFFFFE0000
00FFFFFFFFFC0000
003FFFFFFFF00000
000FFFFFFFC00000
0000FFFFFF000000
000003FFF0000000
ENDCHAR
STARTCHAR six
ENCODING 54
SWIDTH 440 0
DWIDTH 52 0
BBX 46 70 2 0
BITMAP
000000003FC0
00000001FFF0
0000000FFFF8
0000001FFFFC
0000007FFFFC
000001FFFFFC
000003FFFBFC
000007FF01FC
00001FFC0078
00003FF00018
00007FE00000
0000FF800000
0001FF000000
0003FE000000
0007FC000000
0007F8000000
000FE0000000
001FE0000000
003FC0000000
003F80000000
007F00000000
00FE00000000
00FC00000000
01FC00000000
03F800000000
03F000000000
07F000000000
07E000000000
0FE000000000
0FE000000000
0FC007C00000
1FC3FFFF8000
1FDFFFFFE000
3FFFFFFFF800
3FFFFFFFFC00
3FFFFFFFFF00
3FFFE007FF80
7FFE0001FFC0
7FF000007FC0
7FC000003FE0
7F8000001FF0
FF0000000FF0
FE00000007F8
FC00000007F8
FC00000003F8
FC00000001FC
FC00000001FC
FC00000001FC
FC00000000FC
FC00000000FC
FC00000000FC
7E00000000FC
7E00000001FC
7E00000001FC
7F00000001FC
7F80000003FC
3F80000003F8
3FC0000007F8
1FE000000FF8
1FF000003FF0
1FFC0000FFE0
0FFF8003FFE0
07FFFFFFFFC0
07FFFFFFFF80
03FFFFFFFF00
01FFFFFFFC00
007FFFFFF000
003FFFFFC000
000FFFFF0000
0001FFE00000
ENDCHAR
STARTCHAR seven
ENCODING 55
SWIDTH 412 0
DWIDTH 48 0
BBX 43 63 3 0
BITMAP
400000000000
7FFF00000000
FFFFFFFF0000
FFFFFFFF0000
FFFFFFFF0000
7FFFFFFF0000
0FFFFFFF0000
0000003F0000
0000003F0000
0000003F0000
0000003F0000
0000003F0000
0000003F0000
0000003F0000
0000003F0000
0000003F0000
0000003F0000
0000003F0000
0000003F0000
0000003F0000
0000003F0000
0000007E0000
0000007E0000
0000007E0000
0000007E0000
0000007E0000
000000FE0000
000000FE0000
000000FE0000
003FFFFFFC00
01FFFFFFFF80
03FFFFFFFFC0
03FFFFFFFFE0
03FFFFFFFFE0
03FFFFFFFFE0
000FFFFC7FE0
000003FC0FE0
000003F801C0
000003F80000
000003F80000
000003F80000
000003F80000
000003F00000
000003F00000
000007F00000
000007F00000
000007F00000
000007E00000
000007E00000
00000FE00000
00000FE00000
00000FE00000
00000FC00000
00001FC00000
00001FC00000
00001FC00000
00001F800000
00003F800000
00003F800000
00003F800000
00003F800000
00001F000000
00001E000000
ENDCHAR
STARTCHAR eight
ENCODING 56
SWIDTH 375 0
DWIDTH 44 0
BBX 39 67 2 0
BITMAP
0003F80000
000FFF0000
003FFFC000
00FFFFF000
01FFFFF800
03FFFFFC00
07FFFFFE00
0FFE0FFE00
1FF801FF00
3FE000FF00
3FC0007F00
7F80007F00
7F00007F00
FF00007F00
FE00007E00
FC00007E00
FC0000FE00
FC0001FC00
FC0001F800
FC0003F000
FE0007F000
7F0007E000
3F800FC000
3FE01F8000
1FF03F0000
0FFCFF0000
03FFFE0000
01FFFE0000
00FFFC0000
003FFC0000
001FFC0000
001FFE0000
001FFE0000
003FFF0000
007FFF8000
00FE3FC000
01FC0FE000
03F807F000
03F801FC00
07F000FE00
0FF0007F00
0FE0003F80
1FE0001FC0
1FE0000FE0
1FC00007E0
1FC00003F0
1FC00003F8
1FC00001F8
1FC00001FC
1FC00000FC
1FC00000FC
0FE000007C
0FE000007E
0FF000007E
07F000007E
07F800007E
03FC00007C
01FE00007C
00FF0000FC
007F8001FC
003FE007F8
001FFC3FF8
000FFFFFF0
0003FFFFE0
0001FFFFC0
00007FFF80
000007FC00
ENDCHAR
STARTCHAR nine
ENCODING 57
SWIDTH 300 0
DWIDTH 35 0
BBX 33 69 1 1
BITMAP
0007F80000
003FFF0000
00FFFF8000
01FFFFE000
03FFFFF000
07FF3FF800
0FF003FC00
1FE001FE00
1FC000FE00
3F80007F00
3F00007F00
7F00007F00
7E00007F80
7E00007F80
FE00007F80
FE0000FF80
FE0000FF80
FE0000FF80
FE0001FF00
FE0001FF00
FE0001FF00
FE0001FF00
FE0003FF00
7F0003FF00
7F0003FE00
7F8003FE00
3FC007FE00
3FE007FE00
1FF007FE00
1FFC0FFE00
0FFFFFFE00
03FFFFFE00
01FFFFFE00
003FFFFE00
0007FFFC00
00001FFC00
000001FC00
000001FC00
000001FC00
000001FC00
000001FC00
000001FC00
000001FC00
000001FC00
000001FC00
000001FC00
000001FC00
000001FC00
000001F800
000001F800
000001F800
000001F800
000001F800
000001F800
000001F800
000001F800
000001F800
000001F800
000001F800
000001F800
000001F800
000001F800
000001F800
000001FC00
000001FC00
000000FC00
000000FC00
000000FC00
0000007800
ENDCHAR
STARTCHAR colon
ENCODING 58
SWIDTH 84 0
DWIDTH 10 0
BBX 7 31 2 9
BITMAP
40
F0
F8
FC
FC
7E
7E
7C
3C
00
00
00
00
00
00
00
00
00
00
00
00
00
00
00
00
00
78
FC
FC
FC
78
ENDCHAR
STARTCHAR semicolon
ENCODING 59
SWIDTH 128 0
DWIDTH 15 0
BBX 14 67 -2 -21
BITMAP
0700
0FC0
0FE0
0FE0
0FE0
0FF0
0FF0
07F0
07F0
03E0
01C0
0000
0000
0000
0000
0000
0000
0000
0000
0000
0000
0000
0000
0000
0000
0000
0000
0000
0000
0020
0030
0078
0078
00FC
00FC
00FC
00FC
00FC
00FC
00FC
00FC
00FC
00FC
01FC
01FC
01F8
01F8
03F8
03F8
07F8
07F0
0FF0
0FF0
1FF0
1FE0
3FE0
3FE0
7FC0
7FC0
7FC0
7F80
FF80
FF00
FF00
FE00
FC00
F800
ENDCHAR
STARTCHAR less
ENCODING 60
SWIDTH 487 0
DWIDTH 57 0
BBX 54 48 0 0
BITMAP
00000000000060
000000000001F0
000000000007F8
00000000001FFC
00000000007FF0
0000000000FFE0
0000000003FF80
0000000007FF00
000000001FFC00
000000003FF800
00000000FFE000
00000001FFC000
00000003FF0000
0000000FFE0000
0000001FF80000
0000007FF00000
000000FFC00000
000003FF800000
000007FE000000
00000FFC000000
00003FF0000000
00007FC0000000
0001FF80000000
0003FE00000000
000FFC00000000
001FF000000000
003FE000000000
00FFC000000000
01FF0000000000
03FE0000000000
07FC0000000000
0FF80000000000
1FF00000000000
3FF80000000000
7FFF8000000000
7FFFFC00000000
FFFFFFF0000000
7FFFFFFFE00000
3FFFFFFFFF0000
0FFFFFFFFFE000
00FFFFFFFFFC00
0007FFFFFFFE00
00001FFFFFFF80
0000001FFFFF80
000000000FFFC0
0000000000FFC0
00000000003FC0
00000000000F80
ENDCHAR
STARTCHAR equal
ENCODING 61
SWIDTH 524 0
DWIDTH 61 0
BBX 56 30 2 15
BITMAP
00FFFFFFFFFFE0
0FFFFFFFFFFFF8
3FFFFFFFFFFFFE
FFFFFFFFFFFFFE
FFFFFFFFFFFFFF
7FFFFFFFFFF7FF
3FFFFFFF8000FF
0000000000003E
0000000000000C
00000000000000
00000000000000
00000000000000
00000000000000
00000000000000
00000000000000
00000000000000
00000000000000
00000000000000
00000000000000
00000000000000
00000000000000
00000000000000
00000000000000
001FFFFFFFFF00
7FFFFFFFFFFFC0
FFFFFFFFFFFFF0
FFFFFFFFFFFFF0
7FFFFFFFFFFFF8
7FFFFFFFFFFFE0
0FFFFFFFFFFF80
ENDCHAR
STARTCHAR greater
ENCODING 62
SWIDTH 403 0
DWIDTH 47 0
BBX 43 54 3 0
BITMAP
7C0000000000
FF0000000000
FF8000000000
FFC000000000
7FE000000000
7FF000000000
3FFC00000000
0FFF00000000
07FFE0000000
03FFFC000000
00FFFF800000
003FFFF00000
000FFFFE0000
0003FFFFE000
0000FFFFFF80
00001FFFFFE0
000007FFFFE0
0000007FFFE0
00000003FFE0
000000007FE0
000000003FE0
000000003FE0
000000003FE0
000000007FE0
00000000FFC0
00000001FF80
00000003FF00
00000007FE00
0000000FFC00
0000001FF800
0000003FF000
000000FFE000
000001FF8000
000003FF0000
00000FFE0000
00001FF80000
00007FF00000
0000FFE00000
0003FF800000
0007FF000000
001FFE000000
003FF8000000
007FF0000000
01FFE0000000
03FF80000000
07FF00000000
1FFC00000000
3FF800000000
7FE000000000
FFC000000000
FF8000000000
FE0000000000
FC0000000000
700000000000
ENDCHAR
STARTCHAR question
ENCODING 63
SWIDTH 272 0
DWIDTH 32 0
BBX 29 101 1 0
BITMAP
01FE0000
07FFC000
1FFFF000
7FFFF800
7FFFFC00
FFFFFE00
FFFFFF00
FC01FF80
F0007FC0
C0001FC0
C0000FE0
00000FE0
000007E0
000007F0
000003F0
000003F0
000003F0
000003F8
000003F8
000003F8
000003F8
000003F8
000003F8
000003F8
000007F0
000007F0
000007F0
00000FF0
00000FF0
00001FE0
00001FE0
00001FE0
00003FC0
00003FC0
00007F80
0000FF80
0000FF80
0001FF00
0001FF00
0003FE00
0003FE00
0007FC00
000FFC00
000FF800
001FF800
001FF000
003FE000
003FE000
003FC000
007FC000
007F8000
007F0000
00FF0000
00FE0000
00FE0000
00FE0000
00FF0000
00FFC000
00FFFF00
00FFFFE0
007FFFE0
003FFFF0
001FFFF0
0007FFF0
0000FFC0
00000000
00000000
00000000
00000000
00000000
00000000
00000000
00000000
00000000
00000000
00000000
00000000
00000000
00000000
00000000
00000000
00000000
00000000
00000000
00000000
00000000
00000000
00000000
00000000
00000000
00000000
00000000
00000180
000007E0
00000FE0
00000FE0
00000FF0
00000FF0
00000FE0
000007E0
000003C0
ENDCHAR
STARTCHAR at
ENCODING 64
SWIDTH 815 0
DWIDTH 95 0
BBX 90 104 2 0
BITMAP
000000001FFFC00000000000
00000001FFFFF80000000000
00000007FFFFFF0000000000
0000001FFFFFFFE000000000
0000007FFFFFFFF800000000
000001FFFF1FFFFE00000000
000007FFE000FFFF80000000
00000FFF00001FFFC0000000
00001FFC000003FFF0000000
00003FF00000007FFC000000
0000FFC00000001FFE000000
0001FF0000000007FF800000
0003FE0000000001FFC00000
0007FC00000000007FE00000
000FF000000000001FF80000
000FE0000000000007FC0000
001FC0000000000003FE0000
003F80000000000001FF0000
007F000000000000007F8000
007E000000000000003FC000
00FC000000000000001FE000
01F8000000000000000FF000
01F80000000000000007F800
03F00000000000000003FC00
03E00000000000000003FE00
07C00000000000000001FE00
07C00000000000000000FF00
0F800000000000000000FF00
0F8000000000000000007F80
1F0000000000000000003F80
1F0000000000300000003F80
3E000000000FFF8000001F80
3E000000007FFFF000001F80
3C00000001FFFFFE00001FC0
3C00000007FFFFFF80000FC0
7C0000000FFFFFFFC0000FC0
7C0000003FF801FFF0000FC0
780000007FC0003FF8000FC0
78000000FF00000FFC000FC0
78000001FC000007FE0007C0
F8000003F8000003FE0007C0
F8000007F0000001FE0007C0
F8000007E0000000FF0007C0
F800000FC00000007E0007C0
F800001FC00000003E0007C0
F800001F800000001E0007C0
F800003F0000003E1C0007C0
F800003F0000003F08000FC0
F800003E0000007F00000FC0
F800007E0000007F00000FC0
F800007C000000FF80000FC0
780000FC000000FF80000FC0
780000FC000000FF80001F80
780000FC000000FF80001F80
7C0000F8000000FF80001F80
7C0000F8000000FF80003F80
7C0001F8000000FF80003F80
7C0001F8000000FF80003F00
3E0001F8000000FF80007F00
3E0001F8000000FF80007F00
3E0001F8000000FF8000FE00
3F0001F8000000FF8000FE00
1F0001F8000000FF8001FC00
1F8001F8000001FFC003FC00
1F8001F8000001FFE007FC00
0F8000F8000003FFF007F800
0FC000FC000007FFF81FF000
0FC000FC00000FFFFE7FF000
07E0007C00001FF7FFFFE000
07E0007E00003FE3FFFFC000
03F0003F0000FFC1FFFF8000
03F8003F8001FF80FFFF0000
01F8001FE007FF003FFE0000
01FC001FFFFFFE000FF00000
00FC000FFFFFFC0000000000
00FE0007FFFFF00000000000
007F0001FFFFE00000000000
007F8000FFFF800000000000
003F80003FFE000000000000
001FC00003F0000000000000
001FE0000000000000000000
000FF0000000000000000000
0007F8000000000000000000
0003FC000000000000000000
0003FE000000000000000000
0001FF000000000000000000
0000FF800000000000000000
00007FC00000000000000000
00003FE00000000000000000
00001FF00000000000000000
00000FFC0000000000000000
000007FE0000000000000000
000003FF8000000000000000
000000FFC00000000001FC00
0000007FF0000000003FFC00
0000003FFC00000001FFFC00
0000000FFF8000001FFFF800
00000007FFF00001FFFFF000
00000001FFFF807FFFFFE000
000000007FFFFFFFFFFF8000
000000003FFFFFFFFFFE0000
000000000FFFFFFFFFE00000
0000000003FFFFFFFE000000
00000000007FFFFF80000000
ENDCHAR
STARTCHAR A
ENCODING 65
SWIDTH 562 0
DWIDTH 66 0
BBX 61 89 2 0
BITMAP
0000007F80000000
000007FFF8000000
00003FFFFE000000
00007FFFFF000000
0001FFFFFF800000
0003FFFFFFE00000
0007FC00FFF00000
000FF0001FF80000
000FE0000FF80000
001FC00003FC0000
003F800001FE0000
003F000000FF0000
007E0000007F0000
007C0000003F8000
00FC0000003F8000
00F80000001FC000
00F80000000FC000
01F80000000FE000
01F000000007E000
01F000000007F000
03F000000003F000
03E000000003F800
03E000000001F800
03E000000001F800
03E000000000FC00
07C000000000FC00
07C000000000FC00
07C0000000007E00
07C0000000007E00
07C0000000007E00
07C0000000003E00
0780000000003F00
0780000000003F00
0780000000003F00
0F80000000001F00
0F80000000001F80
0F80000000001F80
0F80000000001F80
0F80000000001F80
0F80000000001F80
0F80000000000FC0
0F80000000000FC0
0F80000000000FC0
0F80000000000FC0
0F80000000000FC0
0F80000000000FE0
0F80000000000FE0
0F80000000000FE0
0F80000000000FE0
0F80000000001FE0
0FFFFFE000001FE0
3FFFFFFFFFF83FE0
FFFFFFFFFFFFFFE0
FFFFFFFFFFFFFFF0
7FFFFFFFFFFFFFF0
7FF800007FFFFFF0
3FE00000007FF7F0
1FC00000000007F0
0FC00000000007F0
07C00000000007F0
0FC00000000007F0
0FC00000000003F0
0FC00000000003F0
0FC00000000003F0
0FC00000000003F0
0FC00000000003F0
0FC00000000003F8
0FC00000000003F8
0FE00000000003F8
0FE00000000003F8
0FE00000000003F8
07E00000000003F8
07E00000000003F8
07E00000000003F8
07F00000000003F8
07F00000000007F8
07F00000000007F8
07F00000000007F0
07F00000000007F0
03F80000000007F0
03F8000000000FF0
03F8000000000FF0
03F8000000000FF0
01F8000000000FF0
01F8000000000FF0
01F8000000000FF0
00F8000000000FE0
00F8000000000FC0
0078000000000F00
ENDCHAR
STARTCHAR B
ENCODING 66
SWIDTH 741 0
DWIDTH 87 0
BBX 83 81 2 0
BITMAP
0000003FF8000000000000
00000FFFFFC00000000000
0001FFFFFFF80000000000
001FFFFFFFFE0000000000
01FFFFFFFFFFC000000000
0FFFFFFFFFFFE000000000
3FFFFFFFFFFFF800000000
7FFBFFFFFCFFFC00000000
FFE07FFE0007FE00000000
FF803FF80001FF00000000
FC001FE000007F80000000
E0001FE000003FC0000000
00000FE000001FE0000000
00000FE000000FE0000000
000007E000000FE0000000
000007F0000007E0000000
000007F0000007E0000000
000003F0000007E0000000
000003F0000007E0000000
000003F8000007E0000000
000001F8000007E0000000
000001F8000007C0000000
000001F800000FC0000000
000001FC00001F80000000
000000FC00003F80000000
000000FC00007F00000000
000000FC0001FE00000000
000000FE0007FE00000000
000000FE007FFC00000000
0000007E03FFF800000000
0000007E0FFFF000000000
0000007E1FFFF000000000
0000007F1FFFF000000000
0000007F1FFFF800000000
0000003F0FFFFE00000000
0000003F07FFFF80000000
0000003F83FFFFC0000000
0000003F80FFFFF0000000
0000003F801FFFFC000000
0000003F8007FFFE000000
0000003F8000FFFF800000
0000001FC0001FFFC00000
0000001FC00003FFF00000
0000001FC000007FF80000
0000001FC000001FFC0000
0000001FC0000007FE0000
0000001FE0000001FF8000
0000000FE00000007FC000
0000000FE00000003FE000
0000000FE00000000FF000
0000000FE000000007F800
0000000FE000000003F800
0000000FF000000001FC00
0000000FF000000000FE00
00000007F000000000FE00
00000007F0000000007F00
00000007F0000000003F80
00000007F0000000003F80
00000007F0000000003F80
00000007F0000000003FC0
00000007F0000000001FC0
00000003F0000000001FC0
00000003F0000000001FC0
00000003F0000000001FE0
00000003F8000000001FE0
00000003F0000000001FE0
00000007E0000000003FC0
0000001FE0000000003FC0
0000007FF0000000003FC0
000000FFF0000000007FC0
000000FFF800000000FF80
0000007FFE00000001FF80
0000007FFF80000003FF00
0000003FFFF800001FFF00
0000000FFFFFF0FFFFFE00
00000007FFFFFFFFFFFC00
00000001FFFFFFFFFFF800
000000007FFFFFFFFFE000
0000000007FFFFFFFF8000
00000000003FFFFFFE0000
000000000000FFFFC00000
ENDCHAR
STARTCHAR C
ENCODING 67
SWIDTH 515 0
DWIDTH 60 0
BBX 55 76 2 0
BITMAP
000000000F0000
00000001FFC000
0000000FFFE000
0000003FFFE000
0000007FFFF000
000001FFFFF000
000003FFFFF000
00000FFFFFF000
00001FFF03F000
00003FFC01F000
00007FF001F000
0000FFC001E000
0001FF0003E000
0003FE0003C000
0007F80007C000
000FF000078000
001FE0000F0000
003FC0000E0000
003F0000080000
007E0000000000
00FE0000000000
00FC0000000000
01F80000000000
01F00000000000
03E00000000000
07E00000000000
07C00000000000
0F800000000000
0F800000000000
0F000000000000
1F000000000000
1F000000000000
3E000000000000
3E000000000000
3E000000000000
7C000000000000
7C000000000000
7C000000000000
7C000000000000
7C000000000000
FC000000000000
FC000000000000
FC000000000000
FC000000000000
FC000000000000
FC000000000000
FC000000000000
FC000000000000
FC000000000000
FC000000000000
7C000000000000
7C000000000000
7E000000000000
7E000000000000
7E000000000000
7E000000000000
3F000000000000
3F000000000000
3F000000000000
1F800000000000
1F800000000000
1FC00000000000
0FE00000000000
0FE00000000000
07F000000007FE
07F8000000FFFE
03FE00001FFFFE
03FF8003FFFFFC
01FFFFFFFFFFF8
00FFFFFFFFFFE0
007FFFFFFFFF80
003FFFFFFFF800
001FFFFFFF0000
000FFFFFE00000
0003FFFC000000
00007FC0000000
ENDCHAR
STARTCHAR D
ENCODING 68
SWIDTH 741 0
DWIDTH 87 0
BBX 81 75 2 -1
BITMAP
0000038000000000000000
0007FFFFC0000000000000
00FFFFFFFE000000000000
07FFFFFFFFE00000000000
1FFFFFFFFFFC0000000000
7FFFFFFFFFFF8000000000
7FFFFFFFFFFFE000000000
FFFFC003FFFFF800000000
FFC00001FFFFFE00000000
7C000001FE7FFF80000000
70000000FE07FFE0000000
40000000FE01FFF8000000
00000000FE007FFC000000
00000000FE001FFF000000
000000007E0007FF800000
000000007E0001FFC00000
000000007F00007FE00000
000000007F00003FF80000
000000003F00001FFC0000
000000003F000007FE0000
000000003F000003FF0000
000000003F000001FF8000
000000003F000000FF8000
000000003F0000007FC000
000000001F8000003FE000
000000001F8000001FF000
000000001F8000000FF000
000000001F80000007F800
000000001F80000007F800
000000000F80000003FC00
000000000FC0000001FC00
000000000FC0000001FE00
000000000FC0000000FE00
000000000FC0000000FF00
000000000FC00000007F00
000000000FE00000007F00
000000000FE00000003F80
000000000FE00000003F80
000000000FE00000003F80
000000000FE00000003F80
000000000FE00000001F80
000000000FE00000001F80
0000000007F00000001F80
0000000007F00000001F80
0000000007F00000001F80
0000000007F00000001F80
0000000007F00000001F80
0000000007F00000003F80
0000000007F00000003F80
0000000007F00000003F80
0000000007F00000003F80
0000000007F00000007F80
0000000007F00000007F00
0000000007F8000000FF00
0000000007F0000001FF00
0000000007F0000001FE00
0000000007F0000003FE00
0000000007F0000007FC00
0000000003F000000FFC00
0000000003F000001FF800
0000000003F000003FF800
0000000003F000007FF000
0000000001E00000FFE000
0000000000000003FFE000
0000001C0000000FFFC000
0000001FC000003FFF8000
0000003FF80000FFFF0000
0000003FFF8007FFFC0000
0000001FFFFFFFFFF80000
0000001FFFFFFFFFE00000
0000000FFFFFFFFFC00000
00000003FFFFFFFF000000
00000000FFFFFFF8000000
000000003FFFFFE0000000
0000000003FFFC00000000
ENDCHAR
STARTCHAR E
ENCODING 69
SWIDTH 524 0
DWIDTH 61 0
BBX 54 72 2 0
BITMAP
1FFFFFFFFFFC00
3FFFFFFFFFFF00
3FFFFFFFFFFFC0
3FFFFFFFFFFFE0
3FFFFFFFFFFFE0
3FFFFFFFFFFFF0
3FFFFFC00001F0
3F000000000070
3F800000000000
3F800000000000
3F800000000000
3F800000000000
3F800000000000
3F800000000000
3F800000000000
3F800000000000
3F800000000000
3F800000000000
3F800000000000
3F800000000000
3F800000000000
3F800000000000
3F800000000000
3F800000000000
3F800000000000
3F800000000040
3F80000003FFC0
3F800000FFFF80
3F80003FFFFF80
3F801FFFFFFE00
7FFFFFFFFFFC00
FFFFFFFFFFE000
FFFFFFFFFF0000
FFFFFFFFC00000
7FFFFF00000000
7FF80000000000
7F000000000000
7F000000000000
7E000000000000
7E000000000000
7E000000000000
7E000000000000
7E000000000000
7E000000000000
7E000000000000
7E000000000000
7E000000000000
7E000000000000
7E000000000000
FE000000000000
FE000000000000
FE000000000000
FE000000000000
FE000000000000
FE000000000000
FE000000000000
FE000000000000
FE000000000000
FE000000000000
FE000000000000
7E000000000000
7E000000000000
7E000000007FE0
7F000001FFFFF8
3FF07FFFFFFFFC
3FFFFFFFFFFFFC
1FFFFFFFFFFFF8
0FFFFFFFFFFFF0
07FFFFFFFFFFC0
03FFFFFFFFFF00
00FFFFFFFFF000
000FFFFFF00000
ENDCHAR
STARTCHAR F
ENCODING 70
SWIDTH 514 0
DWIDTH 60 0
BBX 76 69 -4 1
BITMAP
0000007FFFFFC0000000
0000FFFFFFFFFF800000
001FFFFFFFFFFFFC0000
01FFFFFFFFFFFFFF8000
0FFFFFFFFFFFFFFFF000
3FFFFFFFFFFFFFFFFC00
FFFFFFFFFFFFFFFFFE00
FFFFFFFFC0007FFFFF80
F0007FFC000001FFFFC0
40001FF00000001FFFC0
00001FE000000003FFE0
00000FE0000000007FE0
00000FE00000000007F0
00000FE0000000000000
00000FE0000000000000
00000FC0000000000000
00000FC0000000000000
00000FC0000000000000
00000FC0000000000000
00000FC0000000000000
00000FC0000000000000
00000FC0000000000000
00000FC0000000000000
00000FC0000000000000
00000FC0000000000000
00000FC0000000000000
000007E0000000000000
000007E0000000000000
000007E0000000000000
000007E0000000000000
000007F0000000000000
000007F0000000000000
00000FF801FF80000000
00000FFFFFFFFE000000
00003FFFFFFFFF800000
0001FFFFFFFFFF800000
007FFFFFFFFFFF800000
007FFFFFFFFFFF000000
007FFFFFFFFFF8000000
007FFFFFFFFFC0000000
001007FFFFF000000000
000003FC000000000000
000001FC000000000000
000001FC000000000000
000001FC000000000000
000000FC000000000000
000000FC000000000000
000000FC000000000000
000000FE000000000000
000000FE000000000000
000000FE000000000000
000000FE000000000000
000000FE000000000000
000000FE000000000000
000000FE000000000000
000000FE000000000000
000000FF000000000000
000000FF000000000000
0000007F000000000000
0000007F000000000000
0000007F800000000000
0000007F800000000000
0000007F800000000000
0000007F800000000000
0000007F800000000000
0000003F800000000000
0000003F800000000000
0000003F800000000000
00000000800000000000
ENDCHAR
STARTCHAR G
ENCODING 71
SWIDTH 571 0
DWIDTH 67 0
BBX 61 69 4 -8
BITMAP
00000000007FE000
0000000007FFF800
000000003FFFFE00
00000001FFFFFE00
00000007FFFFFF00
0000001FFFFFFF80
0000007FFFE3FF80
000001FFF8001F80
000007FF80000380
00000FFE00000000
00003FF000000000
00007FC000000000
0001FF8000000000
0003FE0000000000
0007FC0000000000
000FF00000000000
001FE00000000000
003FC00000000000
007F800000000000
00FF000000000000
01FE000000000000
03FC000000000000
07F8000000000000
07F0000000000000
0FE0000000000000
1FC0000000000000
1FC0003800000000
3F80007F0003F800
3F80007FF7FFFE00
7F00007FFFFFFF00
7F00007FFFFFFF80
7E00003FFFFFFF80
FE00001FFFFFFF80
FC00000FFFFFFF80
FC00000000001F80
FC00000000001F80
FC00000000001F80
FC00000000000F80
F800000000000F80
F800000000000F80
F800000000000F80
F800000000001F80
FC00000000001F80
FC00000000001F80
FC00000000001F80
7E00000000003F80
7E00000000007F80
7F00000000007F80
3F8000000000FF80
3FC000000003FF80
1FE000000007FF80
1FF80000003FFF80
0FFE000001FFFF80
07FFE007FFFFFF80
03FFFFFFFFFFFF80
01FFFFFFFFFFFF80
00FFFFFFFF803F80
003FFFFFF8003F80
000FFFFF00003F80
0003FFF000003F80
0000000000001F80
0000000000001FC0
0000000000001FE0
0000000000001FF0
0000000000001FF8
0000000000000FF8
0000000000000FF8
00000000000007F0
00000000000001E0
ENDCHAR
STARTCHAR H
ENCODING 72
SWIDTH 524 0
DWIDTH 61 0
BBX 56 79 2 0
BITMAP
00000000000070
000000000000F8
000000000001F8
1C0000000003F0
3E0000000003F0
3E0000000003F0
3E0000000003F0
3E0000000003F0
3E0000000003F0
3E0000000003F0
3E0000000003F0
3F0000000003F0
3F0000000003F0
3F0000000003F0
3F0000000003F0
3F0000000003F0
1F0000000003F0
1F0000000003F0
1F0000000003F0
1F0000000003F0
1F8000000003F0
1F8000000003F0
1F8000000003F0
1F8000000003F0
1F8000000003F0
1F8000000003F0
1F8000000003F0
1F8000000003F0
0FC000000003F0
0FC000000003F0
0FC000000003F0
0FC00000000FF0
0FC00000003FF0
0FC0000000FFF0
0FC0000007FFF0
0FC000001FFFF0
0FE000007FFFF0
0FE00001FFFFF0
0FE00007FFF3F0
0FE0001FFFC3F0
0FE0007FFF03F0
07E001FFF803F0
07E00FFFE003F0
07E03FFF8003F0
07F1FFFE0003F0
07FFFFF80003F0
07FFFFE00003F0
0FFFFF800003F8
0FFFFC000001F8
3FFFF0000001F8
FFFFC0000001F8
FFFF00000001F8
FFFC00000001F8
9FF800000001F8
07F800000001F8
07F800000001F8
03F800000001F8
03F800000001F8
01F800000001FC
01F800000001FC
01F800000001FC
01F800000001FC
01F800000001FC
01F800000001FC
01F800000001FC
01F800000001FC
01F800000000FC
00F800000000FC
00F800000000FE
00F800000000FE
00FC00000000FE
00FC00000000FE
00FC00000000FE
00FC000000007E
00FC000000007F
007C000000007F
0078000000003F
0030000000003E
0000000000001C
ENDCHAR
STARTCHAR I
ENCODING 73
SWIDTH 167 0
DWIDTH 20 0
BBX 16 65 2 0
BITMAP
E000
E000
F000
F800
F800
FC00
FC00
FC00
7E00
7E00
7E00
7F00
7F00
3F00
3F00
3F80
3F80
1F80
1F80
1FC0
0FC0
0FC0
0FC0
0FC0
07E0
07E0
07E0
07E0
07E0
07F0
03F0
03F0
03F0
03F0
03F0
03F8
03F8
03F8
03F8
01F8
01F8
01F8
01FC
01FC
01FC
01FC
01FC
01FC
00FC
00FE
00FE
00FE
00FE
00FE
00FE
00FE
00FE
007E
007F
007F
007F
007F
003F
001E
000E
ENDCHAR
STARTCHAR J
ENCODING 74
SWIDTH 439 0
DWIDTH 51 0
BBX 46 82 3 0
BITMAP
000000001800
000000003C00
000000003E00
000000003E00
000000003E00
000000003F00
000000003F00
000000003F00
000000003F00
000000001F80
000000001F80
000000001F80
000000001F80
000000001FC0
000000001FC0
000000001FC0
000000000FC0
000000000FC0
000000000FE0
000000000FE0
000000000FE0
000000000FE0
000000000FE0
0000000007E0
0000000007F0
0000000007F0
0000000007F0
0000000007F0
0000000007F0
0000000007F0
0000000003F0
0000000003F8
0000000003F8
0000000003F8
0000000003F8
0000000003F8
0000000003F8
0000000001F8
0000000001F8
0000000001F8
0000000001F8
3C00000001FC
7C00000001FC
F800000001FC
F800000000FC
F800000000FC
F800000000FC
F800000000FC
FC00000000FC
FC00000000FC
FC00000000FC
FE00000000FC
7E00000000FC
7F00000000FC
3F00000000FC
1F80000000FC
0FC0000000FC
0FC0000000FC
07E0000000FC
03F0000000FC
01F8000000FC
00F8000000FC
00FC000000FC
007E000000FC
003F000001FC
001F800001FC
000FC00001F8
0007E00001F8
0003F80001F8
0001FC0001F8
0000FE0003F8
00007F8003F0
00003FC003F0
00001FF007F0
00000FFC07E0
000007FFFFE0
000003FFFFC0
000000FFFFC0
0000007FFF80
0000001FFF00
00000007FE00
00000000F800
ENDCHAR
STARTCHAR K
ENCODING 75
SWIDTH 468 0
DWIDTH 55 0
BBX 50 69 2 0
BITMAP
000000000C0000
700000007C0000
78000001FC0000
F8000003F80000
F800000FF80000
FC00001FF00000
FC00003FE00000
FC00007FC00000
FC0000FF800000
FC0001FF000000
7C0003FE000000
7E0007FC000000
7E000FFC000000
7E000FF8000000
7E001FF0000000
7E003FE0000000
7E007FC0000000
7E00FF80000000
3E00FF00000000
3E01FE00000000
3E03FC00000000
3E07F800000000
3F07F000000000
3F0FE000000000
3F1FC000000000
1F3FC000000000
1F7F8000000000
1FFF0000000000
1FFE0000000000
1FFC0000000000
1FF80000000000
1FF80000000000
1FF00000000000
1FE00000000000
0FF00000000000
0FF00000000000
0FF80000000000
0FFC0000000000
0FFE0000000000
1FFF0000000000
1FFF8000000000
1FFFC000000000
1FFFE000000000
1FFFF000000000
1FDFF800000000
1FCFFC00000000
1FC7FE00000000
1FC3FF80000000
1FC1FFC0000000
0FC07FE0000000
0FC03FF0000000
0FC01FFC000000
0FC007FE000000
0FC003FF800000
0FC001FFC00000
0FC0007FF00000
0FE0003FF80000
0FE0000FFE0000
0FE00007FF0000
0FE00001FFC000
0FE00000FFF000
07E000003FF800
07E000001FFE00
07E0000007FF00
07E0000003FF80
03E0000000FFC0
03E00000007FC0
03E00000001FC0
01E00000000F80
ENDCHAR
STARTCHAR L
ENCODING 76
SWIDTH 346 0
DWIDTH 41 0
BBX 37 63 2 0
BITMAP
0300000000
0380000000
07C0000000
07C0000000
0FC0000000
0FC0000000
0FC0000000
0FC0000000
0FC0000000
1FC0000000
1FC0000000
1FC0000000
1FC0000000
1FC0000000
1FC0000000
3FC0000000
3F80000000
3F80000000
3F80000000
3F80000000
3F80000000
3F80000000
3F80000000
3F00000000
7F00000000
7F00000000
7F00000000
7F00000000
7F00000000
7F00000000
7F00000000
7F00000000
7E00000000
7E00000000
7E00000000
7E00000000
7E00000000
7E00000000
7E00000000
FE00000000
FE00000000
FE00000000
FE00000000
FE00000000
FE00000000
FE00000000
FE00000000
FE00000000
FE00000000
7E00000000
7F00000000
7F00000000
7F80000000
3FC0000000
3FFC000000
1FFFFFC000
1FFFFFFFF0
0FFFFFFFF0
07FFFFFFF8
01FFFFFFF8
00FFFFFFF0
001FFFFFF0
0001FFFFC0
ENDCHAR
STARTCHAR M
ENCODING 77
SWIDTH 534 0
DWIDTH 63 0
BBX 57 72 2 0
BITMAP
2000000000000000
FC0000000001F000
FF0000000003F000
FF8000000003F800
FF8000000003F800
7FC000000007F800
7FE000000007F800
7FE00000000FF800
3FF00000000FF800
3FF00000000FF800
1FF80000001FF800
0FF80000001FF800
0FFC0000003FF800
07FC0000003FF800
07FE0000007FF000
07FF0000007FF000
03FF000000FFF000
03FF800000FFF000
03FFC00001FFF000
03FFE00003FFF000
03FFF0000FFFF000
03FFFC001FFFF000
03F7FF00FFFFF000
03F3FFFFFFFFF000
03F1FFFFFFFFF000
03F0FFFFFFFFF000
03F07FFFFFCFF000
07F03FFFFF07F000
07F00FFFF807F000
07F003FFC007F000
07F000000003F000
07F000000003F000
07F000000003F000
07F000000003F000
07F000000003F000
07F000000003F800
07F000000003F800
07F000000003F800
07F000000003F800
07F000000003F800
07F000000003F800
07F000000001F800
07F000000001FC00
07F000000001FC00
07F000000001FC00
07F000000001FC00
07F000000001FC00
07F000000001FC00
07F000000001FE00
07F000000001FE00
07F000000000FE00
07F000000000FE00
07F000000000FE00
07F000000000FF00
07F000000000FF00
07F000000000FF00
07F000000000FF00
07F000000000FF00
07F000000000FF00
07F000000000FF00
07F0000000007F80
07F0000000007F80
07F0000000007F80
07F0000000007F80
07F0000000007F80
07F0000000007F80
07F0000000007F80
07E0000000007F80
0180000000007F80
0000000000003F80
0000000000003F80
0000000000001F80
ENDCHAR
STARTCHAR N
ENCODING 78
SWIDTH 609 0
DWIDTH 71 0
BBX 65 63 3 0
BITMAP
060000000000000000
3E0000000000000000
7E0000000000000000
7F0000000000000000
3F0000000000000000
3F0000000000F00000
3F0000000001F80000
3F8000000001FC0000
3F8000000001FE0000
3F8000000001FE0000
1F8000000000FF0000
1FC000000000FF8000
1FC000000000FF8000
1FC000000000FFC000
1FE0000000007FC000
1FE0000000007FE000
1FE0000000007FE000
1FF0000000003FF000
1FF0000000001FF000
1FF0000000001FF000
1FF8000000000FF800
3FF8000000000FF800
3FF80000000007F800
3FFC0000000007FC00
3FFC0000000003FC00
3FFC0000000003FC00
3FFE0000000001FE00
3FFE0000000001FE00
3FFF0000000000FE00
3FFF0000000000FE00
3FFF80000000007F00
3FFF80000000007F00
3FFFC0000000003F00
3F9FC0000000003F00
3F0FE0000000003F80
7E0FE0000000003F80
7E07F0000000003F80
7E03F0000000001F80
7E03F8000000001F80
7E01FC000000001F80
7E01FC000000003F80
7E00FE000000003F80
7E007F000000003F80
7E007F000000003F80
7E003F800000003F80
7E003FC00000007F80
7E001FE00000007F00
7E000FF00000007F00
FE0007F8000000FF00
FF0007FE000001FE00
FF0003FF000001FE00
FF0001FFC00007FC00
FF0000FFE0000FFC00
FF00007FFC003FF800
FF00003FFFFFFFF000
FF00001FFFFFFFE000
FF00000FFFFFFFC000
FF000003FFFFFF8000
7F000001FFFFFE0000
7F0000007FFFFC0000
7E0000001FFFE00000
3E00000001FE000000
1C0000000000000000
ENDCHAR
STARTCHAR O
ENCODING 79
SWIDTH 609 0
DWIDTH 71 0
BBX 66 57 2 0
BITMAP
000006000000000000
0000FFF00000000000
0007FFFF0000000000
001FFFFFE000000000
003FFFFFFC00000000
00FFFFFFFF00000000
01FFFFFFFFC0000000
03FF80FFFFF0000000
07FE0007FFFC000000
07F800007FFF000000
0FF000001FFF800000
1FE0000003FFE00000
1FC0000000FFF00000
3F800000003FF80000
3F000000001FFC0000
3F0000000007FE0000
7E0000000003FF0000
7E0000000000FF8000
7C00000000007FC000
FC00000000003FE000
FC00000000001FF000
FC00000000000FF000
FC000000000007F800
FC000000000003FC00
FC000000000003FC00
FC000000000001FE00
FC000000000000FE00
FC000000000000FF00
FC0000000000007F00
FC0000000000007F00
7C0000000000003F80
7E0000000000003F80
7E0000000000003F80
7E0000000000001F80
7F0000000000001FC0
3F0000000000001FC0
3F8000000000001FC0
3FC000000000001FC0
1FC000000000001FC0
1FE000000000001FC0
0FF000000000001FC0
0FF800000000003F80
07FC00000000007F80
07FE0000000000FF00
03FF0000000001FF00
01FFC000000003FE00
00FFE00000000FFC00
00FFF80000003FF800
003FFE000001FFF000
001FFFC0001FFFE000
000FFFF803FFFFC000
0007FFFFFFFFFF0000
0001FFFFFFFFFC0000
00007FFFFFFFE00000
00001FFFFFFF000000
000003FFFFF0000000
0000003FF800000000
ENDCHAR
STARTCHAR P
ENCODING 80
SWIDTH 627 0
DWIDTH 73 0
BBX 70 70 2 0
BITMAP
0003FFFC0000000000
003FFFFFF800000000
03FFFFFFFF80000000
0FFFFFFFFFF8000000
3FFFFFFFFFFF000000
7FFFFFFFFFFFE00000
FFF0007FFFFFF80000
FF8000007FFFFE0000
FF00000003FFFF8000
FE000000003FFFE000
FC0000000007FFF000
FC0000000000FFFC00
F800000000003FFE00
7800000000000FFF00
7000000E000003FF80
6000001E000000FFC0
0000001E0000007FC0
0000001E0000003FE0
0000001E0000001FF0
0000001F0000000FF0
0000001F00000007F0
0000001F00000003F8
0000001F00000003F8
0000001F00000001F8
0000001F00000001F8
0000001F00000001F8
0000001F00000001F8
0000001F00000001F8
0000001F00000001FC
0000001F00000003F8
0000001F00000003F8
0000001F00000007F8
0000001F80000007F8
0000001F8000000FF0
0000001F8000001FF0
0000001F8000007FE0
0000001F800000FFC0
0000001FC00003FF80
0000001FC0000FFF00
0000001FE0007FFE00
0000001FFFFFFFF800
0000001FFFFFFFF000
0000001FFFFFFFC000
0000001FFFFFFF0000
0000000FFFFFFC0000
0000000FFFFFF00000
0000000FFFFF800000
0000000FFFF8000000
0000000FE000000000
0000000FE000000000
0000000FE000000000
0000000FE000000000
00000007E000000000
00000007E000000000
00000007F000000000
00000007F000000000
00000007F000000000
00000007F000000000
00000003F000000000
00000003F000000000
00000003F000000000
00000003F000000000
00000003F800000000
00000001F800000000
00000001F800000000
00000001F800000000
00000000F000000000
00000000F000000000
00000000F000000000
000000006000000000
ENDCHAR
STARTCHAR Q
ENCODING 81
SWIDTH 642 0
DWIDTH 75 0
BBX 74 76 3 -13
BITMAP
000001F8000000000000
00001FFF800000000000
0000FFFFF00000000000
0003FFFFFC0000000000
0007FFFFFF0000000000
001FFFFFFFC000000000
003FFFFFFFF000000000
007FF007FFF800000000
00FF80007FFC00000000
01FE00001FFF00000000
01FC00000FFF80000000
03F8000007FFC0000000
07F0000003FFF0000000
0FE0000003FFF8000000
0FC0000001FFFC000000
1F80000001FFFE000000
1F80000001F9FF000000
3F80000001F8FF800000
3F00000001F07FC00000
3F00000001F03FE00000
7E00000001F01FF00000
7E00000003F00FF80000
7E00000003E007F80000
7E00000003E003FC0000
FE00000005C001FE0000
FE00000000C000FF0000
FE0000000000007F0000
FC0000000000007F8000
FC0000000000003F8000
FC0000000000001FC000
FC0000000000000FE000
FC0000000000000FE000
FC00000000000007F000
FC00000000000007F000
FC00000000000003F000
FC00000000000003F800
FE00000070000001F800
7E000000F8000001F800
7E000000FC000001F800
7E000000FE000001F800
7F0000007F000001F800
3F0000007F000001F800
3F8000003F800001F800
1F8000003FC00001F800
1FC000001FE00003F000
1FE000001FE00003F000
0FE000000FF00007F000
07F0000007F8001FE000
07F8000007F8003FE000
03FE000003FC007FC000
01FF000003FE01FF8000
00FF800003FF0FFF0000
00FFE00003FFFFFE0000
007FFC0003FFFFFC0000
003FFF0007FFFFF80000
000FFFFFFFFFFFF00000
0007FFFFFFFFFFC00000
0003FFFFFFFFFF800000
0000FFFFFFFFFF800000
00003FFFFFFFFF800000
00000FFFFFFFFF800000
000001FFFFFFFFC00000
0000001FFC003FC00000
0000000000000FE00000
00000000000003F00000
00000000000001FC0000
00000000000000FE0000
000000000000007F8000
000000000000003FE000
000000000000001FF800
000000000000000FFC00
0000000000000007FF00
0000000000000003FF80
0000000000000001FF80
0000000000000000FFC0
00000000000000003E00
ENDCHAR
STARTCHAR R
ENCODING 82
SWIDTH 579 0
DWIDTH 68 0
BBX 66 78 -1 -5
BITMAP
00001FFFF800000000
000FFFFFFFC0000000
01FFFFFFFFFC000000
03FFFFFFFFFF000000
0FFFFFFFFFFFE00000
1FFFFFFFFFFFF00000
3FFFFFFFFFFFFC0000
7FF0000001FFFE0000
7F800000001FFF8000
FF0000000007FFC000
FE0000000001FFE000
FC00000000007FE000
F800000000003FF000
F800000000000FF800
78000000000007F800
70000000000003FC00
3000E000000001FC00
1000F000000000FC00
0001F000000000FC00
0001F800000000FC00
0001F800000000FC00
0001F800000001FC00
0001F800000003FC00
0001F800000007FC00
0001F80000000FFC00
0001F80000003FF800
0001F8000001FFF800
0001FC000007FFF000
0001FC00007FFFE000
0001FC0007FFFF8000
0000FC00FFFFFF0000
0000FE3FFFFFFC0000
0000FFFFFFFFF00000
0000FFFFFFFF800000
0000FFFFFFFC000000
0000FFFFFFE0000000
0000FFFFFC00000000
0000FFFFC000000000
00007FF80000000000
00007FC00000000000
00007FC00000000000
00007FE00000000000
00007FE00000000000
00007FF00000000000
00003FF80000000000
00003FFC0000000000
00003FFE0000000000
00003FFE0000000000
00003FFF0000000000
00001F7F8000000000
00001F3FC000000000
00001F1FE000000000
00001F0FF000000000
00001F87F800000000
00000F83FC00000000
00000F81FE00000000
00000F80FF00000000
00000FC07F80000000
000007C03FC0000000
000007C00FF0000000
000007C007F8000000
000007E003FC000000
000003E001FE000000
000003E000FF800000
000003E0007FC00000
000003E0003FE00000
000001E0001FF80000
000001F00007FC0000
000001F00003FF0000
000000F00001FFC000
000000E00000FFE000
000000E000003FF800
0000000000001FFE00
0000000000000FFF00
00000000000003FF80
00000000000001FFC0
000000000000007F80
000000000000000F00
ENDCHAR
STARTCHAR S
ENCODING 83
SWIDTH 627 0
DWIDTH 73 0
BBX 68 71 2 -1
BITMAP
00000007FFF0000000
0000007FFFFF800000
000003FFFFFFF00000
00000FFFFFFFFC0000
00001FFFFFFFFF0000
00007FFF001FFFC000
0000FFC00003FFE000
0001FF000000FFF000
0001FC0000003FF800
0003F80000001FF800
0003F000000007F800
0003E000000001FC00
0007E0000000007800
0007E0000000000000
0007E0000000000000
0007E0000000000000
0003E0000000000000
0003F0000000000000
0003F0000000000000
0003F8000000000000
0001FC000000000000
0001FE000000000000
0000FF000000000000
00007F800000000000
00007FE00000000000
00003FF00000000000
00001FFC0000000000
000007FF0000000000
000003FFC000000000
000000FFF000000000
0000003FFC00000000
0000000FFF00000000
00000003FFE0000000
00000000FFF8000000
000000007FFE000000
000000001FFF800000
0000000007FFE00000
0000000001FFF80000
00000000007FFE0000
00000000001FFF0000
00000000000FFFC000
000000000003FFE000
0C0000000000FFF800
1C00000000003FFC00
3C00000000000FFE00
7E000000000003FF00
7E000000000001FF80
7E0000000000007FC0
FE0000000000001FC0
FE0000000000000FE0
FF0000000000000FF0
7F0000000000000FF0
7F00000000000007F0
3F80000000000007F0
3FC0000000000007F0
1FC0000000000007F0
0FE0000000000007F0
0FF0000000000007F0
07F800000000000FF0
01FE00000000000FF0
00FF80000000001FE0
007FE0000000003FE0
003FFE00000000FFC0
000FFFF800000FFF80
0003FFFFFFFFFFFF00
0000FFFFFFFFFFFE00
00003FFFFFFFFFF800
000007FFFFFFFFE000
000000FFFFFFFF8000
0000000FFFFFFC0000
000000001FFF000000
ENDCHAR
STARTCHAR T
ENCODING 84
SWIDTH 581 0
DWIDTH 68 0
BBX 78 72 0 0
BITMAP
FFFE0000000000000000
FFFFFFFFFFC000000000
7FFFFFFFFFFFFC000000
7FFFFFFFFFFFFFFE0000
3FFFFFFFFFFFFFFFF000
01FFFFFFFFFFFFFFFF00
0007FFFFFFFFFFFFFFE0
000007FFFFFFFFFFFFF8
000000000FF803FFFFFC
000000000FC0001FFFFC
000000000FC00001FFFC
000000000FC000000FFC
000000000FC000000078
000000000FC000000000
0000000007C000000000
0000000007C000000000
0000000007C000000000
0000000007C000000000
0000000007E000000000
0000000007E000000000
0000000007E000000000
0000000007E000000000
0000000007E000000000
0000000007E000000000
0000000007E000000000
0000000007E000000000
0000000007E000000000
0000000007F000000000
0000000003F000000000
0000000003F000000000
0000000003F000000000
0000000003F000000000
0000000003F000000000
0000000003F000000000
0000000003F000000000
0000000003F800000000
0000000003F800000000
0000000003F800000000
0000000003F800000000
0000000003F800000000
0000000001F800000000
0000000001F800000000
0000000001FC00000000
0000000001FC00000000
0000000001FC00000000
0000000001FC00000000
0000000001FC00000000
0000000001FC00000000
0000000000FE00000000
0000000000FE00000000
0000000000FE00000000
0000000000FE00000000
0000000000FE00000000
0000000000FE00000000
0000000000FF00000000
0000000000FF00000000
00000000007F00000000
00000000007F00000000
00000000007F00000000
00000000007F00000000
00000000007F80000000
00000000007F80000000
00000000007FC0000000
00000000007FC0000000
00000000003FE0000000
00000000003FF0000000
00000000003FF0000000
00000000001FF0000000
00000000001FF8000000
00000000000FF8000000
00000000000FF8000000
000000000003F0000000
ENDCHAR
STARTCHAR U
ENCODING 85
SWIDTH 571 0
DWIDTH 67 0
BBX 62 64 3 0
BITMAP
0180000000000000
07C0000000010000
0FE0000000038000
1FE0000000038000
3FC000000007C000
3FC000000007C000
3F8000000007E000
7E0000000007E000
7E000000000FE000
7C000000000FE000
7C000000000FE000
7C000000000FF000
FC000000000FF000
FC000000000FF000
FC000000000FF000
FC000000000FF000
FC000000000FF000
FC000000000FF000
FC000000000FF000
FC0000000007F000
FC0000000007F000
FC0000000007F000
FC0000000007F000
FC0000000007F000
FC0000000003F000
FC0000000003F000
7C0000000003F000
7C0000000003F800
7C0000000001F800
7C0000000001F800
7E0000000001F800
7E0000000001FC00
7E0000000000FC00
7E0000000000FC00
3E0000000000FE00
3E0000000000FE00
3F0000000000FE00
3F00000000007F00
3F00000000007F00
1F00000000007F00
1F8000000000FF80
1F8000000000FF80
1F8000000000FF80
0FC000000001FFC0
0FC000000001FFC0
0FE000000003FFE0
07E000000007FFE0
07F00000000FFFE0
07F80000001FFFF0
03F80000003FFFF0
03FC0000007FFFF0
01FE000001FFFFF8
01FF000003FF0FF8
00FF80000FFC07F8
007FC0003FF807FC
007FF801FFE003FC
003FFFFFFFC003FC
001FFFFFFF0001FC
000FFFFFFE0000FC
0007FFFFF80000FC
0003FFFFE0000010
0001FFFFC0000000
00007FFE00000000
00000FF800000000
ENDCHAR
STARTCHAR V
ENCODING 86
SWIDTH 421 0
DWIDTH 49 0
BBX 44 61 2 0
BITMAP
200000000040
F800000000E0
FC00000001F0
FE00000001F0
FF00000003F0
7F00000003F0
7F80000003F0
7FC0000003F0
3FC0000007F0
3FC0000007F0
3FE0000007F0
1FE000000FF0
1FF000000FF0
1FF000000FF0
0FF000000FF0
0FF800000FF0
07F800001FE0
07FC00001FE0
07FC00001FE0
03FC00001FE0
03FE00001FE0
01FE00003FE0
01FF00003FC0
00FF00003FC0
00FF80003FC0
00FF80003FC0
007FC0007FC0
007FC0007F80
003FE0007F80
003FE0007F80
001FE0007F80
001FF0007F00
001FF000FF00
000FF800FF00
000FF800FF00
0007FC00FE00
0007FC00FE00
0003FE01FE00
0003FE01FC00
0001FE01FC00
0001FF01FC00
0000FF03FC00
0000FF83F800
00007F83F800
00007FC3F800
00003FC7F000
00003FE7F000
00001FE7E000
00001FEFE000
00000FFFE000
00000FFFC000
000007FFC000
000007FF8000
000003FF8000
000003FF0000
000001FF0000
000001FE0000
000000FC0000
000000FC0000
000000780000
000000700000
ENDCHAR
STARTCHAR W
ENCODING 87
SWIDTH 703 0
DWIDTH 82 0
BBX 79 58 1 0
BITMAP
18000000000000000000
3C000000000000002000
7C000000000000007800
7C00000000000000F800
7C00000000000000FC00
7C00000000000000FE00
FC00000000000000FE00
FC00000000000000FF00
FE00000000000000FF00
FE00000000000000FF80
FE00000000000000FF80
FE000000000000007FC0
FE000000000000007FC0
FE000000000000007FC0
FE000000000000003FE0
FE000000000000003FE0
FE000000000000003FE0
FE000000000000001FF0
FE000000000000001FF0
FE000000000000000FF0
FE000000000000000FF0
FF000000200000000FF8
7F0000007000000007F8
7F000000F800000007F8
7F000000F800000003F8
7F000000FC00000003FC
7F000000FC00000003FC
7F000000FC00000001FC
7F000000FC00000001FC
7F000000FC00000001FC
7F000000FE00000000FE
3F800000FE00000000FE
3F800000FE00000000FE
3F800000FF00000000FE
3F800000FF00000000FE
3F800000FF000000007E
1F800000FF800000007E
1FC00001FF800000007E
1FC00001FFC0000000FE
1FC00001FFC0000000FE
0FE00003FFE0000000FE
0FE00007FFF0000000FC
0FE0000FFFF0000001FC
07F0001FFFF8000003FC
07F0003FFFFC000003F8
07F8003FF3FE000007F8
03F800FFC1FF00000FF0
03FC01FF80FF80001FE0
01FE03FF007FC0007FE0
00FFFFFE003FF001FFC0
00FFFFFC001FFFFFFF80
007FFFF8000FFFFFFF00
003FFFE00007FFFFFE00
001FFFC00001FFFFFC00
000FFF800000FFFFF000
0007FE0000007FFFC000
0000FC0000001FFF0000
00000000000007F80000
ENDCHAR
STARTCHAR X
ENCODING 88
SWIDTH 534 0
DWIDTH 63 0
BBX 60 68 2 -7
BITMAP
00E0000000000000
00F0000000000000
00F8000000000000
00FC0000000001C0
00FC000000000FE0
00FE000000003FE0
007E00000000FFF0
007F00000003FF80
003F80000007FF00
003F8000000FFC00
001FC000001FF800
001FC000003FE000
000FE000007FC000
0007F00000FF8000
0007F00001FE0000
0003F80003FC0000
0001F80007F80000
0001FC000FF00000
0000FE001FC00000
00007E007F800000
00007F00FF000000
00003F81FE000000
00001FC7FC000000
00001FFFF8000000
00000FFFF0000000
00000FFFE0000000
000007FFC0000000
000007FF80000000
000007FF00000000
000007FE00000000
00000FFC00000000
00001FFC00000000
00001FFE00000000
00003FFE00000000
00007FFF00000000
0000FFFF00000000
0001FFFF80000000
0003FE7FC0000000
0003FC3FC0000000
0007F81FE0000000
000FF00FF0000000
001FE007F8000000
001FC007F8000000
003FC003FC000000
007F8001FE000000
00FF0000FF000000
00FE0000FF000000
01FE00007F800000
03FC00003FC00000
03F800001FE00000
07F800001FE00000
07F000000FF00000
0FE0000007F80000
0FE0000003FC0000
1FC0000001FC0000
1FC0000000FE0000
3F80000000FF0000
3F800000007F0000
7F000000003F8000
7F000000001F8000
7E00000000078000
7E00000000000000
FC00000000000000
FC00000000000000
F800000000000000
F800000000000000
F000000000000000
6000000000000000
ENDCHAR
STARTCHAR Y
ENCODING 89
SWIDTH 403 0
DWIDTH 47 0
BBX 43 77 2 -2
BITMAP
F00000000000
F00000000000
F80000000000
F80000000000
FC00000003E0
FC00000003E0
FE00000007E0
7E00000007E0
7F00000007E0
7F00000007E0
7F80000007E0
3FC0000007E0
3FC000000FE0
1FE000000FC0
1FF000000FC0
0FF800001FC0
07FC00001FC0
07FC00003FC0
03FE00003F80
01FF00007F80
00FF80007F80
007FE0007F80
003FF000FF00
001FF800FF00
000FFE01FF00
0007FF81FE00
0001FFFFFE00
0000FFFFFE00
00007FFFFC00
00001FFFFC00
000007FFF800
000003FFF800
000000FFF800
0000003FF000
0000000FF000
0000000FE000
0000000FE000
0000001FE000
0000001FC000
0000001FC000
0000003F8000
0000003F8000
0000003F0000
0000007F0000
0000007F0000
0000007E0000
0000007E0000
000000FE0000
000000FC0000
000000FC0000
000001FC0000
000001F80000
000001F80000
000001F80000
000003F80000
000003F00000
000003F00000
000003F00000
000003F00000
000003F00000
000007F00000
000007E00000
000007E00000
000007E00000
000007E00000
000007E00000
000007E00000
000007E00000
000007E00000
000007E00000
000007E00000
000007E00000
000007E00000
000007F00000
000007F00000
000003E00000
000001C00000
ENDCHAR
STARTCHAR Z
ENCODING 90
SWIDTH 571 0
DWIDTH 67 0
BBX 63 72 2 0
BITMAP
01FFFFE000000000
07FFFFFE00000000
1FFFFFFFC0000000
3FFFFFFFF0000000
7FFFFFFFF8000000
FFFE00FFFE000000
FFE0000FFF000000
FF000001FF800000
FC0000007F800000
800000003FC00000
000000001FE00000
000000000FE00000
0000000007F00000
0000000003F00000
0000000003F00000
0000000001F80000
0000000001F80000
0000000001F80000
0000000001F80000
0000000001F80000
0000000001F80000
0000000001F80000
0000000001F80000
0000000001F80000
0000000001F80000
0000000003F00000
0000000003F00000
0000000003F00000
0000000007E00000
0000000007E00000
000000000FE00000
000000001FE00000
000000007FF80000
00000003FFFFFC00
0000007FFFFFFF80
00001FFFFFFFFFC0
0003FFFFFFFFFFE0
000FFFFFFFFFFF80
001FFFFFFFFFFE00
001FFFFFFFF07800
001FFFFFFF800000
001FF00FFF000000
0018000FFC000000
00000007F8000000
00000007F0000000
0000000FE0000000
0000000FC0000000
0000000FC0000000
0000001F80000000
0000003F00000000
0000003F00000000
0000007E00000000
000000FC00000000
000001FC00000000
000003F800000000
000007F800000000
000007F000000000
00000FF000000000
00001FE000000000
00001FC000000000
00003FC0000003FC
00003F8000007FFE
00003F800007FFFE
00003F80007FFFFE
00003FC007FFFFFE
00003FFFFFFFFFFC
00003FFFFFFFFFF0
00003FFFFFFFFF80
00001FFFFFFFFC00
00001FFFFFFFC000
00000FFFFFFC0000
000003FFFF000000
ENDCHAR
STARTCHAR bracketleft
ENCODING 91
SWIDTH 477 0
DWIDTH 56 0
BBX 62 93 2 -11
BITMAP
0000000000FFE000
000000001FFFF000
00000001FFFFF000
0000001FFFFFE000
000001FFFFFF8000
00000FFFFFF00000
00007FFFFF000000
0003FFFFF0000000
001FFFFF00000000
007FFFF800000000
03FFFF8000000000
1FFFFC0000000000
3FFFE00000000000
7FFF000000000000
FFF8000000000000
FFE0000000000000
FF00000000000000
7F00000000000000
7F00000000000000
7F00000000000000
7F80000000000000
3F80000000000000
3F80000000000000
3F80000000000000
1FC0000000000000
1FC0000000000000
1FC0000000000000
1FC0000000000000
0FE0000000000000
0FE0000000000000
0FF0000000000000
07F0000000000000
07F0000000000000
07F8000000000000
07F8000000000000
03F8000000000000
03F8000000000000
03F8000000000000
03F8000000000000
01F8000000000000
01FC000000000000
01FC000000000000
01FC000000000000
00FC000000000000
00FC000000000000
00FC000000000000
00FC000000000000
007E000000000000
007E000000000000
007E000000000000
007E000000000000
007E000000000000
007E000000000000
003E000000000000
003E000000000000
003F000000000000
003F000000000000
003F000000000000
003F000000000000
001F000000000000
001F000000000000
001F000000000000
001F000000000000
001F800000000000
001F800000000000
000F800000000000
000F800000000000
000F800000000000
000F800000000000
000F800000000000
000F800000000000
000FC00000000000
000FC00000000000
0007C00000000000
0007C00000000000
0007C00000000000
0007C00000000000
0007C00000000000
0007E00000000000
0007E00000000000
0007E00000000000
0007E00000000000
0007F00000000000
0007F0000FFFFFE0
0007FFFFFFFFFFF0
0007FFFFFFFFFFF8
0007FFFFFFFFFFF8
0007FFFFFFFFFFFC
0007FFFFFFFFFFFC
0003FFFFFF800FF0
0003FF0000000000
0003F00000000000
0001800000000000
ENDCHAR
STARTCHAR backslash
ENCODING 92
SWIDTH 430 0
DWIDTH 50 0
BBX 47 64 1 0
BITMAP
200000000000
F00000000000
F80000000000
F80000000000
7C0000000000
7E0000000000
7F0000000000
3F8000000000
3FC000000000
1FE000000000
0FF000000000
0FF800000000
07FC00000000
03FE00000000
03FF00000000
01FF00000000
00FF80000000
007FC0000000
007FE0000000
003FF0000000
001FF8000000
000FFC000000
0007FC000000
0007FE000000
0003FF000000
0001FF800000
0000FFC00000
0000FFE00000
00007FF00000
00003FF00000
00001FF80000
00000FFC0000
00000FFE0000
000007FF0000
000003FF0000
000001FF8000
000001FFC000
000000FFE000
0000007FF000
0000003FF000
0000001FF800
0000001FFC00
0000000FFE00
00000007FE00
00000003FF00
00000003FF80
00000001FF80
00000000FFC0
000000007FE0
000000003FE0
000000003FF0
000000001FF8
000000000FF8
0000000007FC
0000000003FC
0000000003FE
0000000001FE
0000000001FE
0000000001FE
0000000001FE
0000000001FE
0000000000FE
0000000000FC
000000000078
ENDCHAR
STARTCHAR bracketright
ENCODING 93
SWIDTH 430 0
DWIDTH 50 0
BBX 47 108 1 -11
BITMAP
3FFE00000000
FFFFFC000000
FFFFFFF80000
7FFFFFFF8000
3FFFFFFFE000
07FFFFFFF000
00FFFFFFF800
0007FFFFFC00
00000FFFFE00
0000007FFE00
00000007FF00
00000000FF00
00000000FF80
000000007F80
000000007F80
000000003F80
000000003FC0
000000003FC0
000000001FC0
000000001FC0
000000001FC0
000000000FE0
000000000FE0
000000000FE0
000000000FE0
000000000FE0
0000000007E0
0000000007E0
0000000007E0
0000000007E0
0000000007E0
0000000003E0
0000000003E0
0000000003E0
0000000003E0
0000000003F0
0000000003F0
0000000003F0
0000000003F0
0000000001F0
0000000001F0
0000000001F0
0000000001F0
0000000001F0
0000000001F0
0000000001F0
0000000001F0
0000000001F0
0000000001F0
0000000001F0
0000000001F0
0000000001F0
0000000001F0
0000000001F8
0000000000F8
0000000000F8
0000000000F8
0000000000F8
0000000000F8
0000000000F8
0000000000F8
0000000000F8
0000000000F8
0000000000F8
0000000000F8
0000000000F8
0000000000F8
0000000000F8
0000000000F8
0000000000F8
0000000000F8
0000000000F8
0000000000FC
0000000000FC
0000000000FC
0000000000FC
0000000000FC
0000000000FC
0000000000FC
0000000000FC
0000000000FC
0000000000FC
0000000000FC
0000000000FC
0000000000FC
0000000000FC
0000000000FC
0000000000FC
0000000000FE
0000000000FE
0000000000FE
0000000000FE
0000000000FE
0000000000FE
0000000000FE
0000000000FE
0000000000FE
0000000000FE
0000000000FE
00FFFFFFFFFE
01FFFFFFFFFE
01FFFFFFFFFE
01FFFFFFFFFE
01FFFFFFFFFE
01FFFFFFFFFE
01FFFFFFFFFE
01FFFFFFFFFC
007FFFFFFFF0
ENDCHAR
STARTCHAR asciicircum
ENCODING 94
SWIDTH 375 0
DWIDTH 44 0
BBX 31 25 6 61
BITMAP
00018000
0003E000
0007F000
0007F000
0007F800
0007FC00
000FFC00
000FFE00
001FFF00
001FFF80
003FFFC0
003FFFE0
007FFFF0
00FFFFF0
01FE7FF8
03FC1FFC
0FFC0FFC
1FF807FE
3FF003FE
7FE003FE
FFC001FE
FF8000FE
FE00007E
7C00003E
00000008
ENDCHAR
STARTCHAR underscore
ENCODING 95
SWIDTH 656 0
DWIDTH 77 0
BBX 72 12 3 0
BITMAP
7FE000000000000000
FFFF80000000000000
FFFFFFF80000000000
7FFFFFFFFFFFFFFFC0
0FFFFFFFFFFFFFFFF8
01FFFFFFFFFFFFFFFE
001FFFFFFFFFFFFFFE
00007FFFFFFFFFFFFF
000000FFFFFFFFFFFF
00000000FFFFFFFFFF
00000000003FFFFFFE
000000000000007FFC
ENDCHAR
STARTCHAR grave
ENCODING 96
SWIDTH 172 0
DWIDTH 20 0
BBX 16 14 2 51
BITMAP
F000
FC00
7F00
7F80
3FC0
3FF0
1FF8
0FFC
03FE
01FF
00FF
007F
003F
000E
ENDCHAR
STARTCHAR a
ENCODING 97
SWIDTH 505 0
DWIDTH 59 0
BBX 54 58 2 0
BITMAP
00001FF0000000
00007FFE000000
0000FFFF800000
0000FFFFC00000
0001FFFFF00000
0001FFFFF80000
0001FCFFFC0000
0001E00FFE0000
0000C003FF0000
00000000FF8000
000000007FC000
000000003FE000
000000001FF000
000000000FF000
0000000007F800
0000000003FC00
0000000001FC00
0000000001FE00
0000000000FE00
0000000000FF00
0000000000FF00
00000000007F80
00007FFC007F80
0007FFFFC07FC0
001FFFFFFC7FC0
007FFFFFFFFFC0
00FFFFFFFFFFE0
03FFFFFFFFFFE0
07FFFC01FFFFE0
0FFF80003FFFF0
0FFE00000FFFF0
1FF0000003FFF0
3FE0000000FFF0
3F800000007FF8
7F000000003FF8
7E000000001FF8
7E000000000FF8
FC0000000007F8
FC0000000003F8
FC0000000003F8
FC0000000001F8
FC0000000000F8
7C0000000000F8
7E000000000078
7E000000000078
7F000000000038
3FC00000000000
3FF00000000000
1FFC0000007FFC
0FFFC0003FFFFC
07FFFFFFFFFFFC
03FFFFFFFFFFF8
01FFFFFFFFFFE0
007FFFFFFFFF80
001FFFFFFFFC00
0007FFFFFFE000
00007FFFFE0000
000001FFC00000
ENDCHAR
STARTCHAR b
ENCODING 98
SWIDTH 497 0
DWIDTH 58 0
BBX 55 75 1 0
BITMAP
02000000000000
1E000000000000
7E000000000000
7E000000000000
FE000000000000
FE000000000000
FE000000000000
FF000000000000
FF000000000000
7F000000000000
7F000000000000
7F000000000000
7F000000000000
7F000000000000
3F000000000000
3F000000000000
3F800000000000
3F800000000000
3F800000000000
3F800000000000
3F800000000000
1F800000000000
1F800000000000
1F800000000000
1F800000000000
1FC00000000000
1FC00000000000
1FC00000000000
0FC00000000000
0FC00000000000
0FC00000000000
0FC00000000000
0FE00000000000
07E00000000000
07E00000000000
07E00800000000
07F1FFFC000000
07FFFFFFC00000
07FFFFFFF80000
03FFFFFFFE0000
03FFFFFFFF8000
03FFFFFFFFE000
03FFC03FFFF800
03FF0001FFFC00
03FE00003FFF00
03FC000007FF80
03FC000001FFC0
03FC000000FFE0
03F80000003FE0
03F80000001FF0
03F80000000FF8
01F800000007F8
01F800000003FC
01F800000001FC
01F800000001FC
01F800000000FE
01F800000000FE
01F800000000FE
01FC000000007E
00FC000000007E
00FE00000000FE
00FF00000000FE
00FF00000001FE
007F80000003FE
007FE0000007FC
003FF000000FFC
003FFC00003FF8
001FFF8001FFF8
001FFFFC3FFFF0
000FFFFFFFFFE0
0007FFFFFFFFC0
0001FFFFFFFF00
0000FFFFFFFC00
00003FFFFFE000
000003FFFC0000
ENDCHAR
STARTCHAR c
ENCODING 99
SWIDTH 449 0
DWIDTH 53 0
BBX 48 52 2 0
BITMAP
00000FF80000
00007FFF8000
0001FFFFE000
0007FFFFF000
001FFFFFFC00
003FFFFFFC00
007FE003FE00
00FF8000FE00
01FE00007F00
03FC00003F00
07F800001F00
07F000001E00
0FE000000E00
1FC000000E00
1FC000000E00
1F8000000C00
3F8000000C00
3F0000000800
7F0000000000
7F0000000000
7E0000000000
7E0000000000
FE0000000000
FE0000000000
FE0000000000
FE0000000000
FE0000000000
FE0000000000
FE0000000000
FE0000000000
FE0000000000
7E0000000000
7E0000000000
7F0000000000
7F0000000000
7F0000000000
3F8000000000
3FC000000000
3FE000000000
1FE000000000
0FF800000000
0FFC00000000
07FF00000000
03FFC0000000
01FFFC000000
00FFFFFC01FC
007FFFFFFFFE
003FFFFFFFFF
000FFFFFFFFE
0003FFFFFFFC
00007FFFFFF0
000003FFFE00
ENDCHAR
STARTCHAR d
ENCODING 100
SWIDTH 524 0
DWIDTH 61 0
BBX 57 85 2 0
BITMAP
0000000003000000
0000000007800000
000000000FC00000
000000000FE00000
000000000FE00000
000000000FF00000
000000000FF00000
000000000FF80000
0000000007F80000
0000000007FC0000
0000000007FC0000
0000000007FE0000
0000000007FE0000
0000000003FE0000
0000000003FF0000
0000000003FF0000
0000000001FF0000
0000000001FF8000
0000000001FF8000
0000000000FF8000
0000000000FF8000
0000000000FFC000
0000000000FFC000
00000000007FC000
00000000007FC000
00000000007FC000
00000000003FE000
00000000003FE000
00000000003FE000
00000000003FE000
00000000003FE000
00000000001FE000
0001FF00001FF000
000FFFE0001FF000
001FFFF8001FF000
007FFFFE001FF000
00FFFFFF801FF000
01FFFFFFE01FF000
01FFFFFFF81FF000
03FFFFFFFC1FF800
07FFFFFFFF1FF800
07FFC00FFF9FF800
0FFF0003FFFFF800
1FFC0000FFFFF800
1FF800003FFFF800
1FF000001FFFF800
3FE0000007FFF800
3FE0000003FFF800
3FC0000001FFF800
7FC0000000FFF800
7F800000003FF800
7F800000001FFC00
7F000000001FFC00
7F000000001FFC00
FF000000001FFC00
FF000000001FFC00
FF000000001FFC00
FE000000001FFC00
FE000000003FFC00
FE000000003FFC00
FE000000003FFC00
FE000000007FFC00
FF000000007FFC00
7F00000000FFFE00
7F00000001FFFE00
7F00000001FFFE00
7F80000003FFFE00
7F80000007FFFE00
3F8000000FFFFE00
3FC000001FFFFE00
3FC000003FF1FE00
1FC000007FE1FE00
1FE00001FFC0FE00
0FF00003FF80FF00
0FF0000FFF00FF00
07F8003FFE007F00
07FE00FFFC007F00
03FFFFFFF8007F80
01FFFFFFF0003F80
01FFFFFFC0001F00
00FFFFFF80000000
007FFFFE00000000
003FFFF800000000
000FFFC000000000
0003FC0000000000
ENDCHAR
STARTCHAR e
ENCODING 101
SWIDTH 515 0
DWIDTH 60 0
BBX 55 61 2 0
BITMAP
00000060000000
00001FFE000000
0000FFFF800000
0003FFFFE00000
0007FFFFF00000
001FFFFFF80000
003FFC0FFC0000
007FE003FC0000
00FF8001FE0000
01FE0000FE0000
03FC00007F0000
03F800003F0000
07F000003F0000
0FE000003F8000
0FC000001F8000
1FC000001F8000
1F8000001F8000
3F8000001F8000
3F0000001F8000
3F0000001F8000
7F0000001F8000
7E0000003F8000
7E0000007F0000
7E000000FF0000
7E000001FE0000
FE000007FE0000
FE00000FFC0000
FE00003FF80000
FE0001FFF00000
FE0007FFE00000
FE7FFFFFC00000
FE7FFFFF000000
FE7FFFFC000000
FE7FFFF0000000
FE3FFF80000000
7E0FF800000000
7E000000000000
7E000000000000
7F000000000000
7F000000000000
3F000000000000
3F800000000000
3F800000000000
1FC00000000000
1FC00000000000
0FE00000000000
0FF00000000000
07F80000000000
03FC0000000000
01FF0000000000
01FFC000000000
00FFF800000000
003FFF00000002
001FFFFE01FFFC
000FFFFFFFFFF8
0007FFFFFFFFF0
0001FFFFFFFFE0
00007FFFFFFF80
00001FFFFFFC00
000003FFFFE000
0000003FFE0000
ENDCHAR
STARTCHAR f
ENCODING 102
SWIDTH 376 0
DWIDTH 44 0
BBX 54 82 -1 0
BITMAP
0000001FFC0000
0000007FFF8000
000001FFFFE000
000003FFFFF800
000007FFFFFC00
00000FFFFFFE00
00001FFF07FF00
00003FF001FF80
00003FE0007FC0
00007F80003FE0
00007F00001FF0
0000FE00000FF8
0000FC000007F8
0001F8000003FC
0001F8000001FC
0001F0000000FC
0003F00000007C
0003E000000000
0003E000000000
0003E000000000
0007C000000000
0007C000000000
0007C000000000
0007C000000000
0007C000000000
000FC000000000
000FC000000000
000FC000000000
000FC000000000
000FC000000000
000FC000000000
000FC000000000
000FC000000000
000FC000000000
000FE000000000
000FE000000000
000FE000000000
000FE000000000
000FE000000000
000FE000000000
000FE000000000
000FE000000000
000FF000000000
000FF000000000
000FFF80000000
03FFFFFFF80000
3FFFFFFFFF8000
7FFFFFFFFFC000
FFFFFFFFFFC000
FFFFFFFFFFC000
FFF7FFFFFF8000
FE03FFFFFE0000
0001FF00000000
0001FF00000000
0000FF00000000
0000FF00000000
00007F00000000
00007F80000000
00003F80000000
00003FC0000000
00001FC0000000
00001FE0000000
00000FE0000000
00000FF0000000
00000FF0000000
000007F8000000
000007FC000000
000003FC000000
000003FE000000
000001FF000000
000001FF000000
000000FF800000
000000FFC00000
0000007FC00000
0000007FE00000
0000003FE00000
0000001FF00000
0000001FF00000
0000000FF00000
00000007F00000
00000003F00000
00000001F00000
ENDCHAR
STARTCHAR g
ENCODING 103
SWIDTH 366 0
DWIDTH 43 0
BBX 59 105 -16 -57
BITMAP
0000000001FC0000
000000000FFE0000
000000003FFF8000
00000000FFFFC000
00000001FFFFC000
00000003FFFFE000
00000007FF9FF000
0000001FF807F000
0000001FE003F800
0000003FC001F800
0000007F0001F800
000000FE0001FC00
000000FC0000FC00
000001FC0000FC00
000003F80000FE00
000003F00000FE00
000007F00000FE00
000007E00000FE00
00000FE00000FE00
00000FC00000FF00
00000FC00000FF00
00001FC00000FF00
00001F800000FF00
00001F800000FF00
00001F800000FF00
00003F800000FF00
00003F800000FF80
00003F800000FF80
00003F800000FF80
00003F800001FF80
00003F800001FF80
00003F800003FF80
00003FC00003FF80
00001FC00007FF80
00001FE0000FFF80
00001FF0001FFF80
00000FF8003FFF80
00000FFE01FFFF80
000007FFFFFFFF80
000003FFFFFFFF80
000001FFFFFFFF80
000000FFFFFDFFC0
0000007FFFF0FFC0
0000001FFFC07FC0
00000007FE007FC0
0000000078007FC0
0000000000007FC0
0000000000003FC0
0000000000003FC0
0000000000003FC0
0000000000003FC0
0000000000003FC0
0000000000001FC0
0000000000001FC0
0000000000001FC0
0000000000001FC0
0000000000001FC0
0000000000001FC0
0000000000001FC0
0000000000001FC0
0000000000000FC0
0000000000000FC0
0000000000000FC0
0000000000000FC0
0000000000000FC0
0000000000000FC0
0000000000000FC0
0000000000000FC0
0000000000000FE0
0000000000000FE0
0000000000000FE0
0000000000000FE0
0000000000000FE0
0000000000000FE0
1C00000000000FE0
3E00000000000FE0
7E00000000000FE0
7E00000000000FE0
FE00000000000FC0
7C00000000000FC0
7C00000000000FC0
7C00000000001FC0
7E00000000001FC0
7E00000000001FC0
7F00000000001FC0
3F80000000001F80
3FC0000000003F80
1FE0000000003F80
0FF8000000003F80
0FFE000000007F00
07FF000000007F00
03FFE0000000FF00
01FFF8000000FF00
00FFFF000001FE00
003FFFC00003FE00
001FFFF80007FC00
0007FFFF800FFC00
0003FFFFFEFFF800
0000FFFFFFFFF800
00003FFFFFFFF000
000007FFFFFFE000
000001FFFFFFC000
0000003FFFFF8000
00000003FFFF0000
000000001FF80000
ENDCHAR
STARTCHAR h
ENCODING 104
SWIDTH 427 0
DWIDTH 50 0
BBX 48 82 -2 0
BITMAP
380000000000
7C0000000000
FC0000000000
7C0000000000
7E0000000000
7E0000000000
7E0000000000
7F0000000000
3F0000000000
3F8000000000
3F8000000000
3F8000000000
3F8000000000
1FC000000000
1FC000000000
1FC000000000
1FE000000000
0FE000000000
0FE000000000
0FE000000000
07F000000000
07F000000000
07F000000000
07F000000000
07F000000000
03F000000000
03F000000000
03F800000000
03F800000000
03F807FC0000
03F83FFF0000
01F8FFFFC000
01FBFFFFF000
01FFFFFFF800
01FFFFFFFC00
01FFFFFFFE00
01FFFFFFFE00
01FFFF3FFF00
01FFF001FF80
00FFC0007F80
00FF00003FC0
00FE00001FC0
00FC00000FE0
00FC000007E0
00FC000003F0
00FC000003F0
00FC000001F8
00FC000001F8
00FC000000F8
007C000000F8
007E000000FC
007E000000FC
007E000000FC
007E0000007C
007E0000007E
007E0000007E
007E0000007E
007E0000007E
007F0000007E
007F0000007E
007F0000007E
007F0000007F
007F0000007F
007F000000FF
003F000000FF
003F000000FF
003F800000FF
003F800000FF
003F800000FF
003F800000FF
003F800000FF
003F800000FF
003F800000FF
003F800000FE
003F800000FE
003F800000FE
003F800000FE
001F800000FE
001F800000FC
001F800001FC
001F800000F8
000E00000070
ENDCHAR
STARTCHAR i
ENCODING 105
SWIDTH 174 0
DWIDTH 20 0
BBX 17 70 1 0
BITMAP
780000
FC0000
FE0000
FF0000
7F0000
7F0000
3F0000
000000
000000
000000
000000
000000
000000
000000
000000
000000
000000
000000
01C000
03E000
03F000
03F000
03F000
03F000
03F000
03F000
03F000
03F000
03F000
03F000
03F000
03F000
03F000
03F800
03F800
03F800
03F800
03F800
03F800
03FC00
01FC00
01FC00
01FC00
01FC00
01FE00
01FE00
01FE00
01FE00
01FE00
01FF00
01FF00
01FF00
00FF00
00FF00
00FF00
00FF80
00FF80
00FF80
00FF80
007F80
007F80
007F80
007F80
007F80
003F80
003F80
003F80
001F80
001F00
000E00
ENDCHAR
STARTCHAR j
ENCODING 106
SWIDTH 200 0
DWIDTH 23 0
BBX 39 121 -13 -53
BITMAP
00007C0000
0000FE0000
0000FE0000
0000FF0000
00007F0000
00007F0000
00003F0000
00003F0000
00000E0000
0000000000
0000000000
0000000000
0000000000
0000000000
0000000000
0000000000
0000000000
0000000000
0000000000
0000000000
0000000000
0000000000
000001C000
000003E000
000003E000
000003F000
000003F000
000003F800
000001F800
000001F800
000001FC00
000001FC00
000001FC00
000001FC00
000001FE00
000001FE00
000000FE00
000000FE00
000000FF00
000000FF00
000000FF00
000000FF00
0000007F80
0000007F80
0000007F80
0000007F80
0000007FC0
0000003FC0
0000003FC0
0000003FC0
0000003FC0
0000003FC0
0000003FE0
0000001FE0
0000001FE0
0000001FE0
0000001FE0
0000001FF0
0000000FF0
0000000FF0
0000000FF0
0000000FF0
0000000FF0
00000007F8
00000007F8
00000007F8
00000007F8
00000007F8
00000007F8
00000003F8
00000003F8
00000003FC
00000003FC
00000003FC
00000003FC
00000001FC
00000001FC
00000001FC
00000001FC
00000001FC
00000001FC
60000001FE
F0000000FE
F8000000FE
FC000000FE
FC000000FE
FE000000FE
FE000000FE
7F000000FE
7F000000FE
7F800000FE
7F800000FE
3F8000007E
3FC000007E
3FC000007E
1FE000007E
1FE000007E
0FF000007E
0FF000007E
07F800007E
07FC00007E
03FC00007E
03FE00007E
01FF00007E
00FF00007E
007F80007E
007FC000FE
003FE000FE
001FF800FC
000FFC01FC
0007FF83FC
0003FFFFFC
0001FFFFFC
0000FFFFF8
00003FFFF8
00001FFFF8
000007FFF0
000003FFF0
000000FFE0
0000001FC0
0000000200
ENDCHAR
STARTCHAR k
ENCODING 107
SWIDTH 403 0
DWIDTH 47 0
BBX 46 72 0 0
BITMAP
400000000000
E00000000000
F00000000000
F00000000000
F80000000000
F80000000000
F80000000000
FC0000000000
7C0000000000
7C0000000000
7C0000000000
7E0000000000
7E0000000000
7E0000000000
3F0000000000
3F0000000000
3F0000000000
3F0000000000
3F0000000000
3F8000003000
1F800001F800
1F800003F800
1F800007F800
1F80000FF000
1FC0001FE000
0FC0003FC000
0FC0003F8000
0FC0007F0000
0FC000FE0000
0FE000FC0000
0FE001F80000
07E003F00000
07E003E00000
07E007C00000
07E00F800000
07F01F000000
07F03F000000
03F07E000000
03FFFC000000
03FFF8000000
03FFF0000000
03FFF0000000
03FFE0000000
03FFC0000000
03FFC0000000
01FF80000000
01FF80000000
01FF80000000
01FF00000000
01FF00000000
01FF00000000
01FF80000000
01FF80000000
01FFC0000000
01FFE0000000
01FFF0000000
01FFF8000000
01FFFC000000
01FFFF000000
01FFFFC00000
01FFFFF00000
01FC3FFE0000
01FC1FFFE000
03F807FFFE00
03F803FFFFFC
03F800FFFFFC
03F8007FFFFC
03F8001FFFFC
03F00007FFFC
03F00001FFF8
03F000007FE0
01E000000000
ENDCHAR
STARTCHAR l
ENCODING 108
SWIDTH 120 0
DWIDTH 14 0
BBX 8 67 3 0
BITMAP
70
F8
FC
FC
FE
FE
FE
FE
FE
FE
FE
FE
FE
FE
FE
FE
FE
FE
FE
FE
FE
FF
FF
FF
FF
FF
FF
FF
FF
FF
FF
FF
FF
FF
FF
FF
FF
FF
FF
FF
FF
FF
FF
FF
FF
FF
FF
FF
FF
FF
FF
FF
FF
FF
FF
7F
7F
7F
7E
7E
7E
7E
7E
7E
7C
3C
10
ENDCHAR
STARTCHAR m
ENCODING 109
SWIDTH 750 0
DWIDTH 88 0
BBX 82 49 3 0
BITMAP
00000000000001FFC00000
00000000000007FFF00000
0000000000001FFFF80000
000FFF0000007FFFFC0000
703FFFE00000FFFFFF0000
F87FFFF80001FFFFFF0000
F8FFFFFC0007FFFFFF8000
FDFFFFFE000FFFC0FFC000
FFFFFFFF001FFE003FE000
FFFFF7FF803FF8001FE000
FFFF007FC07FE0000FF000
FFFC001FE0FFC00007F800
FFF8000FF1FF800007F800
FFF00007F3FF000003F800
FFE00007FFFE000001FC00
FFC00003FFFC000001FC00
FFC00001FFF8000000FE00
7F800001FFF0000000FE00
7F800000FFF0000000FE00
7F800000FFE00000007F00
7F0000007FE00000007F00
7F0000007FC00000007F00
7F0000007FC00000003F00
7F0000003FC00000003F80
7F0000003FC00000003F80
7F0000003FC00000003F80
7F0000001FC00000003F80
7F0000001FC00000001F80
7F0000001FE00000001F80
7F0000001FE00000001F80
7F0000000FE00000001F80
3F0000000FF00000001FC0
3F0000000FF00000001FC0
3F00000007F00000001FC0
3F80000007F80000001FC0
3F80000007F80000003F80
3F80000003F80000003F80
3F80000003F80000003F80
7F80000003F80000003F80
7F80000001F80000003F80
7F80000001F80000003F80
3F80000000F80000003F80
3F80000000000000003F80
3F80000000000000003F80
1F80000000000000003F00
0F80000000000000003F00
0700000000000000003E00
0000000000000000003E00
0000000000000000003C00
ENDCHAR
STARTCHAR n
ENCODING 110
SWIDTH 459 0
DWIDTH 54 0
BBX 49 52 3 0
BITMAP
000003F8000000
00001FFF000000
00007FFFC00000
0001FFFFE00000
0007FFFFF00000
001FFFFFF80000
F07FFFFFFC0000
F1FFF00FFE0000
FFFF8003FF0000
FFFE0001FF0000
FFFC0000FF8000
FFF800007F8000
FFF000003FC000
FFE000001FE000
FFC000001FE000
FFC000000FE000
FF8000000FF000
FF80000007F000
FF80000007F800
FF00000003F800
FF00000003F800
FF00000003FC00
7F00000001FC00
7F00000001FC00
7F00000001FE00
7F00000000FE00
7F00000000FE00
7F00000000FE00
7F00000000FF00
7F80000000FF00
7F800000007F00
7F800000007F00
7F800000007F00
3F800000007F00
3FC00000007F00
3FC00000007F00
3FC00000007F80
3FC00000007F80
1FE00000007F80
1FE00000007F80
1FE00000007F80
1FE00000007F00
0FE00000007F00
0FF00000007F00
0FF00000007F00
07F00000007F00
07F00000007F00
03F00000007E00
03F00000007E00
01F00000007E00
00F80000003C00
00380000000000
ENDCHAR
STARTCHAR o
ENCODING 111
SWIDTH 487 0
DWIDTH 57 0
BBX 52 48 2 0
BITMAP
0000007FE00000
00000FFFFC0000
00007FFFFF0000
0001FFFFFF8000
0007FFFFFFC000
001FFFFFFFE000
003FFFFFFFF000
00FFFC01FFF800
01FFE0007FFC00
03FF00001FFE00
07FC000007FE00
07F8000003FF00
0FE0000000FF80
1FC00000007F80
1F800000003FC0
3F800000001FC0
3F000000000FC0
7E000000000FE0
7E0000000007E0
7C0000000007E0
7C0000000007E0
FC0000000007F0
FC0000000007F0
FC0000000007F0
FC0000000007F0
FC0000000007F0
FC000000000FF0
FC000000000FE0
FC000000000FE0
7E000000001FE0
7E000000003FE0
7E000000003FC0
7F000000007FC0
3F80000000FFC0
3F80000001FF80
3FC0000003FF80
1FE000000FFF00
1FF000001FFE00
0FFC00007FFC00
07FE0001FFFC00
03FFC007FFF800
01FFFFFFFFE000
00FFFFFFFFC000
007FFFFFFF8000
001FFFFFFE0000
0007FFFFF80000
0001FFFFC00000
00001FFC000000
ENDCHAR
STARTCHAR p
ENCODING 112
SWIDTH 520 0
DWIDTH 61 0
BBX 57 83 2 -42
BITMAP
0000000F80000000
00000FFFFE000000
0000FFFFFFC00000
0003FFFFFFF00000
000FFFFFFFFC0000
003FFFFFFFFE0000
007FFFFFFFFF8000
00FFFFC00FFFC000
01FFFC0001FFE000
03FFE000007FF000
07FF0000001FF000
0FFC0000000FF800
1FF800000003FC00
1FE000000001FC00
3FE000000001FE00
3FC000000000FE00
3FC0000000007F00
7FC0000000007F00
7FC0000000007F00
7FC0000000003F00
7FC0000000003F00
FFC0000000003F00
FFC0000000003F00
FFE0000000003F80
FFE0000000007F00
FFE3C00000007F00
FFE3F0000000FF00
FFE1FC000001FF00
FFE1FF000007FF00
FFE1FFE0001FFE00
7FE1FFF801FFFE00
7FE0FFFFFFFFFC00
7FE07FFFFFFFF800
7FF03FFFFFFFF000
7FF01FFFFFFFE000
7FF007FFFFFF8000
3FF000FFFFFC0000
3FF00003FF800000
3FF0000000000000
3FF0000000000000
3FF8000000000000
3FF8000000000000
1FF8000000000000
1FF8000000000000
1FF8000000000000
1FF8000000000000
0FF8000000000000
0FFC000000000000
0FFC000000000000
0FFC000000000000
0FFC000000000000
07FC000000000000
07FC000000000000
07FE000000000000
07FE000000000000
03FE000000000000
03FE000000000000
03FE000000000000
03FE000000000000
01FE000000000000
01FF000000000000
01FF000000000000
01FF000000000000
00FF000000000000
00FF000000000000
00FF800000000000
00FF800000000000
007F800000000000
007F800000000000
007F800000000000
003F800000000000
003FC00000000000
003FC00000000000
001FC00000000000
001FC00000000000
001FC00000000000
000FC00000000000
000FE00000000000
0007E00000000000
0007E00000000000
0003E00000000000
0003C00000000000
0000800000000000
ENDCHAR
STARTCHAR q
ENCODING 113
SWIDTH 412 0
DWIDTH 48 0
BBX 42 95 2 -37
BITMAP
00000FFE0000
00007FFFC000
0001FFFFF000
0007FFFFF800
000FFFFFFC00
001FFF7FFE00
003FE003FF00
007F8000FF80
00FF00007F80
01FE00003FC0
03FC00001FC0
03F800001FC0
07F000001FC0
0FE000001FC0
0FE000001FC0
1FC000001FC0
1FC000003F80
1F8000003F80
3F8000003F80
3F0000003F80
3F0000007F80
7E0000007F80
7E0000007F80
7E0000007F80
7C0000007F80
FC0000007F80
FC000000FF80
FC000000FF80
FC000000FF00
FC000000FF00
FC000000FF00
FC000000FF00
FC000000FF00
FC000000FF00
FC000000FF00
FC000000FF00
7C000000FF00
7E000000FF00
7E000000FF00
7E000000FE00
3F000001FE00
3F800001FE00
3F800001FE00
1FC00001FE00
1FE00001FE00
0FF00001FE00
0FFC0003FE00
07FF001FFE00
07FFFFFFFE00
03FFFFFFFE00
01FFFFFFFE00
00FFFFFFFC00
003FFFFFFC00
001FFFFFFC00
0007FFFFFC00
00003E01FE00
00000001FE00
00000000FE00
00000000FE00
00000000FE00
00000000FE00
00000000FE00
000000007E00
000000007E00
000000007E00
000000007E00
000000007E00
000000007E00
000000007E00
000000007F00
000000007F00
000000007F00
000000007F00
000000007F00
000000007F00
000000007F00
000000007F00
000000007F00
000000007F00
000000007F00
000000007F00
000000007F80
000000007F80
000000007F80
000000007F80
000000007F80
000000003F80
000000003F80
000000003F80
000000003F80
000000003F80
000000001F80
000000001F80
000000000F80
000000000F80
ENDCHAR
STARTCHAR r
ENCODING 114
SWIDTH 346 0
DWIDTH 41 0
BBX 38 53 2 0
BITMAP
00000F8000
0000FFFC00
0007FFFF80
003FFFFFC0
00FFFFFFF0
73FFFFFFF0
FFFFFFFFF8
FFFC00FFF8
FFF0000FF8
FFC00000FC
FF80000000
FF00000000
FF00000000
FF00000000
FF00000000
FE00000000
7E00000000
7E00000000
7E00000000
7E00000000
7E00000000
7E00000000
7F00000000
7F00000000
3F00000000
3F00000000
3F00000000
3F80000000
3F80000000
1F80000000
1FC0000000
1FC0000000
1FC0000000
1FE0000000
0FE0000000
0FE0000000
0FF0000000
0FF0000000
07F0000000
07F8000000
07F8000000
03F8000000
03F8000000
03FC000000
01FC000000
01FC000000
01FC000000
00FC000000
00FE000000
007E000000
007C000000
003C000000
0030000000
ENDCHAR
STARTCHAR s
ENCODING 115
SWIDTH 514 0
DWIDTH 60 0
BBX 55 53 2 0
BITMAP
0001FFF0000000
001FFFFE000000
007FFFFF800000
00FFFFFFE00000
03FFFFFFF00000
07FFFFFFF80000
0FFF800FF80000
1FF80001FC0000
1FE00000FC0000
3FC000007E0000
3F8000003E0000
3F8000003E0000
3F8000007E0000
3F8000007E0000
3F8000007E0000
1F8000007C0000
1F8000007C0000
1FC00000300000
0FE00000000000
0FF00000000000
07FC0000000000
03FF8000000000
01FFFC00000000
00FFFFFF000000
003FFFFFFF0000
000FFFFFFFF000
0001FFFFFFFC00
00000FFFFFFF00
0000000FFFFFC0
000000000FFFE0
0000000000FFF0
00000000001FF8
00000000000FF8
000000000007FC
000000000003FC
000000000001FE
000000000001FE
000000000001FE
780000000001FE
FE0000000001FE
7F0000000001FE
7F8000000001FE
3FE000000003FC
3FF800000007FC
1FFF0000000FFC
0FFFC000007FF8
07FFFFF80FFFF0
03FFFFFFFFFFE0
00FFFFFFFFFFC0
003FFFFFFFFF80
000FFFFFFFFE00
0000FFFFFFF800
000003FFFF8000
ENDCHAR
STARTCHAR t
ENCODING 116
SWIDTH 328 0
DWIDTH 38 0
BBX 37 74 1 -1
BITMAP
0001C00000
0003E00000
0007F00000
0007F80000
0007F80000
0007F80000
0003F80000
0003F80000
0003F80000
0003F80000
0003F80000
0003F80000
0003F80000
0003F80000
0003F80000
0003F80000
0003F80000
0003F80000
0003F80000
0003F80000
0003F80000
0003F80000
0007F80000
0007FC0000
0007FC0000
0007FC0000
01FFFFFFC0
FFFFFFFFF0
FFFFFFFFF0
FFFFFFFFF8
FFFFFFFFF8
3FFFFFFFF0
0FFFFFFF80
001FFC0000
0003FC0000
0003FC0000
0003FC0000
0003FC0000
0003FC0000
0003FC0000
0003FC0000
0003FC0000
0003FC0000
0003FC0000
0003FC0000
0003FC0000
0003FC0000
0003FC0000
0003FC0000
0003FC0000
0003FC0000
0003FC0000
0003FC0000
0003FC0000
0003FC0000
0003FC0000
0003FC0000
0003FC0000
0001FC0000
0001FC0000
0001FC0000
0001FC0000
0001FC0000
0001FE0000
0001FE0000
0000FE0000
0000FE0000
0000FE0000
0000FE0000
00007E0000
00007E0000
00007E0000
00003E0000
00001E0000
ENDCHAR
STARTCHAR u
ENCODING 117
SWIDTH 501 0
DWIDTH 59 0
BBX 55 55 2 0
BITMAP
1C000000000000
3E000000000000
7E000000000000
7E000000000000
FE000000000000
FE000000000000
FC000000007800
FC00000000F800
FC00000000FC00
FC00000000FC00
FC00000000FC00
FC00000000FE00
FC00000000FE00
FC00000000FE00
FC00000000FE00
FC00000000FE00
FC00000000FE00
FC00000000FE00
FC00000000FF00
FC00000000FF00
FE00000000FF00
7E00000000FF00
7E00000000FF00
7E00000000FF00
7F00000000FF00
7F00000000FF00
3F00000000FF00
3F00000000FF00
3F80000001FF00
3F80000001FF00
1F80000001FF00
1FC0000003FF00
1FC0000003FF00
0FE0000007FF80
0FE000000FFF80
0FF000000FFF80
07F000001FFF80
07F800003FFFC0
03FC00007FFFC0
03FE0000FF9FC0
01FF0001FE0FE0
00FF8003FC07E0
00FFC007F807F0
007FF01FF003F0
003FFFFFE003F0
001FFFFFC003F8
000FFFFF8001F8
0007FFFF0001FC
0001FFFE0001FC
0000FFF80001FC
00001FE00001FE
000000000000FE
000000000000FE
000000000000FE
00000000000038
ENDCHAR
STARTCHAR v
ENCODING 118
SWIDTH 389 0
DWIDTH 46 0
BBX 43 44 1 0
BITMAP
300000000000
7C0000000000
FE0000000000
FF0000000000
7F0000000000
7F80000007E0
3FC000001FE0
3FC000001FC0
1FE000003FC0
1FE000003F80
0FE000007F00
0FF000007F00
07F00000FE00
07F80000FE00
03F80001FC00
03F80001FC00
03FC0003F800
01FC0003F800
01FC0007F800
00FE0007F000
00FE0007F000
007F000FF000
007F000FE000
003F801FE000
003F801FE000
001FC01FC000
001FC03FC000
000FE03F8000
000FE03F8000
0007F07F8000
0007F87F0000
0003FC7F0000
0003FEFE0000
0001FFFE0000
0001FFFE0000
0000FFFC0000
00007FFC0000
00007FF80000
00003FF80000
00001FF00000
00001FF00000
00000FE00000
000007C00000
000003800000
ENDCHAR
STARTCHAR w
ENCODING 119
SWIDTH 656 0
DWIDTH 77 0
BBX 73 49 1 0
BITMAP
03000000000000000000
07800000000000000000
0F800000000000000000
0F800000000000000000
1F800000000000000000
1F800000000000000000
3F800000000000000000
3F8000000000000C0000
3F0000000000001F0000
7F0000000000001F8000
7F0000000000000FC000
7F00000000000007E000
7F00000007000007E000
FE0000001F800003F000
FE0000001F800003F800
FE0000001F800001F800
FE0000001F800001FC00
FE0000001F800000FC00
FE0000001FC00000FC00
FE0000001FC00000FE00
FE0000001FC000007E00
FE0000001FC000007E00
FE0000001FC000007F00
7E0000001FC000007F00
7E0000001FC000007F00
7E0000001FC000003F00
7F0000001FC000003F00
7F0000001FE000003F00
3F0000001FE000003F80
3F0000003FE000003F80
3F8000003FE000003F80
1F8000003FF000007F80
1FC000007FF000007F80
1FC000007FF000007F00
0FC00000FFF800007F00
0FE00001FFF80000FF00
07F00003FFFC0001FF00
07F00007FFFE0003FF00
03F8001FFDFF0007FE00
01FC007FF8FFC01FFE00
01FE01FFF87FFFFFFC00
00FFEFFFF03FFFFFFC00
007FFFFFE01FFFFFF800
003FFFFFC00FFFFFF000
001FFFFF8007FFFFE000
000FFFFE0003FFFFC000
0003FFFC0000FFFF0000
0001FFF0000000000000
00003F00000000000000
ENDCHAR
STARTCHAR x
ENCODING 120
SWIDTH 448 0
DWIDTH 52 0
BBX 52 51 0 -6
BITMAP
600000000003E0
F8000000000FE0
FE000000001FF0
FF000000007FE0
7F80000000FFC0
3FC0000001FF80
3FE0000003FF00
1FF0000007FC00
0FF800001FF800
07FC00003FF000
07FE00007FE000
03FF0000FF8000
01FF8003FF0000
00FFC007FC0000
007FE00FF80000
003FF03FF00000
001FFCFFC00000
000FFFFF800000
0007FFFF000000
0003FFFE000000
0001FFF8000000
0000FFF0000000
00007FE0000000
00003FF0000000
00007FF8000000
00007FFC000000
0000FFFF000000
0001FFFF800000
0001FFFFC00000
0003F1FFE00000
0007C0FFF00000
000F803FF80000
001F801FFC0000
001F000FFE0000
003E0007FF0000
007E0003FF8000
007C0001FFC000
00FC0000FFC000
00F800007FE000
01F800003FF000
01F000001FF800
01F000000FFC00
01E0000007FC00
01C0000003FE00
01C0000003FF00
0080000001FF00
0000000000FF80
00000000007F80
00000000003F80
00000000001F00
00000000000F00
ENDCHAR
STARTCHAR y
ENCODING 121
SWIDTH 487 0
DWIDTH 57 0
BBX 53 109 2 -57
BITMAP
00000000000C00
10000000000C00
70000000000E00
70000000001E00
F8000000001E00
F8000000001E00
F8000000001F00
F8000000001F00
F8000000001F00
F8000000001F00
F8000000001F80
FC000000001F80
FC000000001F80
FC000000001F80
FC000000001F80
FC000000001FC0
FC000000001FC0
FE000000001FC0
7E000000001FC0
7E000000000FC0
7E000000000FC0
7E000000000FE0
7F000000000FE0
3F000000000FE0
3F000000000FE0
3F800000000FE0
3F800000000FE0
1F800000000FE0
1FC00000000FE0
1FC00000000FF0
0FC00000000FF0
0FE00000000FF0
07E00000001FF0
07F00000001FF0
03F00000003FF0
03F80000007FF0
01FC000000FFF0
01FC000001FFF0
00FE000003FFF0
007F00000FFFF0
003FC0001FFFF8
003FE0007FFFF8
001FF803FFF7F8
000FFFFFFF81F8
0007FFFFFE01F8
0001FFFFF801F8
0000FFFFF001F8
00003FFFC000F8
00000FFF0000F8
000000F80000F8
000000000000F8
000000000000F8
000000000000F8
000000000000F8
000000000000F8
000000000000F8
000000000000F8
000000000000F8
000000000000F8
000000000000F8
000000000000F8
000000000001F8
000000000001F8
000000000001F8
000000000001F8
000000000001F8
000000000001F8
000000000001F8
000000000001F8
000000000001F8
000000000001F8
000000000003F8
000000000003F0
000000000003F0
000000000003F0
000000000003F0
000000000003F0
000000000003F0
000000000003F0
000000000007F0
000000000007F0
000000000007E0
000000000007E0
000000000007E0
0C0000000007E0
1E000000000FE0
1F000000000FC0
1F800000000FC0
1FC00000000FC0
1FE00000001FC0
0FF00000001F80
0FF80000001F80
07FC0000003F80
07FE0000003F00
03FF0000007F00
01FF8000007F00
01FFE00000FE00
00FFF00001FE00
007FFC0001FC00
003FFE0003FC00
000FFF800FF800
0007FFF07FF800
0001FFFFFFF000
0000FFFFFFE000
00003FFFFFC000
00000FFFFF8000
000003FFFF0000
000000FFFE0000
0000000FF00000
ENDCHAR
STARTCHAR z
ENCODING 122
SWIDTH 459 0
DWIDTH 54 0
BBX 49 61 2 0
BITMAP
00000600000000
000FFFF8000000
00FFFFFE000000
07FFFFFF800000
1FFFFFFFC00000
3FFFFFFFE00000
7FFFFFFFE00000
FFE0000FF00000
FF800007F00000
FF000003F80000
FF000003F80000
7E000001F80000
18000001F80000
00000001FC0000
00000001FC0000
00000001F80000
00000001F80000
00000001F80000
00000001F80000
00000003F80000
00000003F00000
00000003F00000
00000007F00000
00000007E00000
0000000FE00000
0000001FE00000
0000001FE00000
0000003FE00000
000001FFFFC000
0007FFFFFFE000
0FFFFFFFFFE000
3FFFFFFFFFC000
3FFFFFFFFF8000
3FFFFFFFF00000
3FFFFFF0000000
1FFFFFF0000000
00003FE0000000
00007FC0000000
00007F80000000
0000FF00000000
0001FE00000000
0003FE00000000
0007FC00000000
000FF800000000
000FF000000000
001FE000000000
003FE000000000
003FC000000000
007FC000000600
007FC000003F00
00FFC00000FF00
00FFE0000FFF00
00FFF000FFFF80
00FFFFFFFFFF00
00FFFFFFFFFE00
00FFFFFFFFFC00
007FFFFFFFF000
003FFFFFFFC000
001FFFFFFC0000
0003FFFFC00000
00007FF0000000
ENDCHAR
STARTCHAR braceleft
ENCODING 123
SWIDTH 393 0
DWIDTH 46 0
BBX 44 115 2 -11
BITMAP
000000FFE000
000007FFF800
00003FFFFE00
0000FFFFFF00
0003FFFFFF00
0007FFF0FF80
001FFF003F80
003FF8001F80
007FE0000F80
00FFC0000780
01FF00000300
03FE00000000
07FC00000000
0FF800000000
1FF000000000
1FE000000000
3FC000000000
3FC000000000
7F8000000000
7F8000000000
7F0000000000
FF0000000000
FE0000000000
FE0000000000
FC0000000000
FC0000000000
FC0000000000
FC0000000000
FC0000000000
7C0000000000
7C0000000000
7C0000000000
7C0000000000
3E0000000000
3F0000000000
3F0000000000
1F8000000000
1FC000000000
0FE000000000
0FF800000000
07FC00000000
03FF00000000
03FFC0000000
01FFF0000000
00FFFE000000
007FFF800000
003FFFF00000
000FFFFC0000
0003FFFF0000
0000FFFF8000
00001FFF8000
00003FFF8000
00003FFF8000
00007FFF8000
0000FFFFC000
0001FFFFC000
0007FFFFE000
000FFFFFE000
003FFE07F000
00FFF003F800
03FFC003F800
0FFF0003F800
3FFC0003F800
3FF00003FC00
3FC00003F800
1F000003F800
1C000007F800
00000007F800
0000000FF800
0000000FF000
0000001FF000
0000003FE000
0000007FC000
000000FF8000
000001FF0000
000003FE0000
00000FFC0000
00001FF80000
00003FE00000
0000FFC00000
0001FF000000
0003FE000000
000FF8000000
001FF0000000
003FE0000000
003FC0000000
007F80000000
00FF00000000
01FE00000000
01FC00000000
03F800000000
03F800000000
03F000000000
03F000000000
03F000000000
03E000000000
03E000000000
03E000000000
03E000000000
03F000000000
03F000000000
03F800000000
01FC00000000
01FE00000000
01FE00000000
00FF00000000
00FFC0000000
007FE00001F0
007FFC00FFF0
003FFFFFFFF0
001FFFFFFFE0
000FFFFFFFC0
0007FFFFFF00
0003FFFFFC00
0000FFFF0000
ENDCHAR
STARTCHAR bar
ENCODING 124
SWIDTH 149 0
DWIDTH 17 0
BBX 13 76 2 0
BITMAP
4000
F000
F000
F000
F800
F800
F800
FC00
FC00
7C00
7C00
7E00
7E00
3E00
3F00
3F00
3F00
1F00
1F00
1F80
1F80
0F80
0F80
0F80
0FC0
0FC0
0FC0
07C0
07C0
07C0
07E0
07E0
07E0
07E0
07E0
07E0
07E0
07E0
07F0
07F0
07F0
03F0
03F0
03F0
03F0
03F0
03F0
03F0
03F0
03F0
03F0
03F0
03F0
03F0
03F0
03F0
03F0
03F0
03F0
03F0
03F0
03F0
03F0
03F0
03F0
03F0
03F0
03F0
03F0
03F8
03F8
03F8
01F8
01F8
01F8
01E0
ENDCHAR
STARTCHAR braceright
ENCODING 125
SWIDTH 440 0
DWIDTH 52 0
BBX 48 137 0 -27
BITMAP
03FFFFFC0000
1FFFFFFF0000
3FFFFFFFC000
7FFFFFFFF000
7FFFFFFFF800
7FFFFFFFFC00
7FF0001FFE00
7E000003FF00
7F000000FF00
3FF800007F80
1FF800003F80
0FF800003FC0
07F800001FC0
004000001FC0
000000001FE0
000000001FE0
000000001FE0
000000001FE0
000000001FE0
000000001FE0
000000001FC0
000000001FC0
000000003FC0
000000007F80
00000000FF80
00000001FF00
00000003FE00
00000007FE00
0000000FFC00
0000001FF800
0000003FF000
0000007FE000
000000FF8000
000001FF0000
000003FE0000
000007FC0000
00000FF00000
00001FE00000
00003FC00000
00007F800000
0000FF000000
0001FE000000
0003FC000000
0003F8000000
0007F0000000
0007F0000000
0007F0000000
0007F0000000
0007F0000000
0007F0000000
0003F8000000
0003FE000000
0003FFFFFF80
0001FFFFFF80
0001FFFFFFC0
0001FFFFFFC0
0001FFFFFFC0
0001FFFFFFC0
0001FFFFFE00
0001FF800000
0003FC000000
0003F8000000
0003F0000000
0003F0000000
0003F0000000
0003F8000000
0003F8000000
0001FC000000
0001FE000000
0000FF000000
0000FF800000
00007FC00000
00003FE00000
00001FF00000
00000FF00000
000007F80000
000003FC0000
000001FE0000
0000007F0000
0000003F8000
0000001FC000
0000000FE000
00000007E000
00000007F000
00000003F800
00000001F800
00000001FC00
00000000FE00
000000007E00
000000007F00
000000003F00
000000001F80
000000001FC0
000000000FC0
000000000FE0
0000000007E0
0000000007F0
0000000003F0
0000000003F8
0000000001F8
0000000001FC
0000000000FC
0000000000FC
00000000007E
00000000007E
00000000007E
00000000003F
00000000003F
00000000003F
00000000001F
00000000001F
00000000001F
00000000001F
00000000001F
00000000001F
00000000001F
00000000003F
00000000003F
00000000003F
00000000007F
70000000007F
7800000000FE
FC00000000FE
FC00000001FE
FE00000003FC
7F00000007FC
7FC000000FF8
7FF000001FF0
3FFC00007FE0
1FFF0001FFE0
0FFFC00FFFC0
07FFFFFFFF00
03FFFFFFFE00
00FFFFFFF800
003FFFFFE000
0007FFFF0000
00000E000000
ENDCHAR
STARTCHAR asciitilde
ENCODING 126
SWIDTH 402 0
DWIDTH 47 0
BBX 40 16 3 47
BITMAP
03F800000F
0FFE00001F
1FFF80007F
3FFFE000FF
7FCFF801FC
FE03FE07F8
FC01FFFFF0
FC007FFFE0
F8003FFFC0
F8001FFF80
F80007FF00
F80001FE00
F000000000
F000000000
7000000000
3000000000
ENDCHAR
STARTCHAR nonbreakingspace
ENCODING 160
SWIDTH 375 0
DWIDTH 44 0
BBX 1 1 0 0
BITMAP
00
ENDCHAR
STARTCHAR exclamdown
ENCODING 161
SWIDTH 149 0
DWIDTH 17 0
BBX 13 78 2 -1
BITMAP
3F80
7FE0
7FF0
7FF8
FFF8
FFF8
7FF8
7FF8
1FF0
07C0
0000
0000
0000
0000
0000
0000
0000
0000
0000
0000
0000
0000
0000
0000
0700
0F80
0F80
0F80
1F80
1F80
1F80
1F80
1F80
1F80
1F80
1F80
1F80
1F80
1F80
1F80
1F80
1F80
1F80
1F80
1F80
1F80
1F80
1F80
1F80
1F80
1F80
1F80
1F80
1F80
1F80
1F80
1F80
1F80
1F80
1F80
1F80
1F80
1F80
1F00
1F00
1F00
1F00
1F00
1F00
1F00
1F00
1F00
1F00
1F00
1F00
1F00
1F00
1F00
ENDCHAR
STARTCHAR cent
ENCODING 162
SWIDTH 449 0
DWIDTH 53 0
BBX 48 70 2 -7
BITMAP
000002000000
000007000000
000007800000
000007800000
000007C00000
000007C00000
000007C00000
000007E00000
000007E00000
000007E00000
000007E00000
000003E00000
00003FFF0000
0001FFFFC000
0007FFFFF000
000FFFFFF800
003FFFFFFC00
007FF3F7FE00
00FF81F1FE00
01FF01F87F00
03FC01F83F00
03F801F83F00
07F001F81F00
0FE001F81E00
0FE001F80E00
1FC001FC0E00
1F8001FC0C00
3F8001FC0C00
3F0001FC0800
7F0001FC0000
7F0001FC0000
7E0001FC0000
7E0001FC0000
FE0001FC0000
FE0001FC0000
FE0001FC0000
FE0001FC0000
FE0001FC0000
FE0001FC0000
FE0001FC0000
FE0001FC0000
FE0001FC0000
FE0001FC0000
7E0001FC0000
7F0001FC0000
7F0001FC0000
7F0001FC0000
7F8001FC0000
3FC001FC0000
3FC001FC0000
3FE001FC0000
1FF001FC0000
1FFC01FC0000
0FFF01FC0000
0FFFC1FC0000
07FFF9FC0000
03FFFFFC001C
01FFFFFFFFFE
00FFFFFFFFFF
007FFFFFFFFE
001FFFFFFFFC
0007FFFFFFE0
0000FFFFE000
000001FC0000
000000FC0000
000000F80000
000000F80000
000000F00000
000000F00000
000000E00000
ENDCHAR
STARTCHAR sterling
ENCODING 163
SWIDTH 758 0
DWIDTH 89 0
BBX 85 85 1 0
BITMAP
0000000000000000300000
000000000000001FFF8000
000000000000007FFFF000
00000000000001FFFFF800
00000000000007FFFFFE00
0000000000000FFFFFFF00
0000000000001FFFFFFF80
0000000000003FFE01FFC0
0000000000003FE0007FC0
0000000000007F80001FE0
000000000000FF00000FE0
000000000000FE000007F0
000000000001FC000007F0
000000000001F8000003F0
000000000003F0000003F0
000000000003E0000001F8
000000000007E0000001F8
000000000007C0000000F8
000000000007C0000000F0
00000000000FC000000070
00000000000F8000000000
00000000000F8000000000
00000000001F0000000000
00000000001F0000000000
00000000003F0000000000
00000000003E0000000000
00000000003E0000000000
00000000007E0000000000
00000000007E0000000000
0000000000FE0000000000
0000000001FC0000000000
0000000001FC0000000000
0000000003FFFFFFE00000
0000000007FFFFFFF80000
000000001FFFFFFFF80000
00000000FFFFFFFFF80000
0000001FFFFFFFFFF80000
000001FFFFFFFFFFF80000
00003FFFFFFFFFFFF80000
0000FFFFFFFFE001F80000
0001FFFFFFFF8000000000
0003FFFFFFFE0000000000
0001FFE00FFC0000000000
0001FE0007F80000000000
0000000007F00000000000
0000000007E00000000000
0000000007E00000000000
0000000007C00000000000
0000000007C00000000000
0000000007C00000000000
0000000007800000000000
000000000F800000000000
000000000F800000000000
000000000F800000000000
000000000F000000000000
000000001F000000000000
000000001F000000000000
000000001F000000000000
000000003E000000000000
000000003E000000000000
000000007E000000000000
000000007C000000000000
00000000FC000000000000
00000000FC000000000000
00000001FC000000000000
00000001F8000000000000
00000003F8000000000000
00000003F0000000000000
00000007F0000000000000
0000000FE0000000000000
1FFFFF9FF8000000000000
3FFFFFFFFFFFF800000000
7FFFFFFFFFFFFF00000000
FFFFFFFFFFFFFFC0000000
FFFFFFFFFFFFFFE0000000
FFFFFFFFFFFFFFF0000000
FFFFFFFFFFFFFFF8000000
FFFFFFFFFFFFFFFC000000
7FFFFFFF87FFFFE0000000
7FFFFFF00007FC00000000
3FFFFFC000000000000000
1FFFFF0000000000000000
0FFFFE0000000000000000
03FFF80000000000000000
00FFC00000000000000000
ENDCHAR
STARTCHAR currency
ENCODING 164
SWIDTH 618 0
DWIDTH 72 0
BBX 63 59 4 3
BITMAP
F000000000000000
FC00000000000000
FE0000000000001C
FF0000000000007E
7FC00001FFF001FE
3FE0001FFFFC03FC
3FF000FFFFFE07F8
1FF803FFFFFF8FF0
0FFC0FFFFFFFDFE0
07FF3FFFFFFFFFC0
03FFFFFFFFFFFF80
01FFFFFFFFFFFF00
00FFFFF800FFFE00
007FFFC0001FFC00
003FFF000003FE00
001FFC000001FF00
001FF00000007F00
001FE00000003F80
003FC00000001F80
003F800000000F80
007F0000000007C0
007E0000000007C0
007E0000000003E0
00FC0000000003E0
00FC0000000003E0
00FC0000000003E0
00F80000000003E0
00F80000000003E0
00F80000000003E0
00F80000000003E0
00F80000000003E0
00F80000000007E0
00F80000000007E0
00FC000000000FE0
00FC000000000FC0
00FC000000001FC0
007E000000001FC0
007E000000003F80
007F000000007F80
003F00000000FF00
003F80000001FF00
001FC0000003FE00
000FE0000007FC00
000FF000001FF800
001FFC00007FF000
003FFF0001FFE000
003FFFE00FFFC000
007FFFFFFFFFC000
00FFBFFFFFFFC000
00FF0FFFFFFFE000
01FE03FFFFC7F000
01FE007FFE07F800
03FC00000003FC00
03F800000001FE00
07F800000000FF00
07F0000000007F80
07E0000000003F80
07C0000000001F00
0380000000000E00
ENDCHAR
STARTCHAR yen
ENCODING 165
SWIDTH 389 0
DWIDTH 46 0
BBX 46 89 1 -1
BITMAP
040000000000
070000000000
0F8000000000
0FC000000000
1FE000000000
0FF000000038
07F0000001FC
07F8000003FC
07F8000003F8
03F8000007F8
03FC000007F0
01FC00000FF0
01FC00000FE0
00FC00001FE0
00FE00003FC0
007E00003FC0
007E00007F80
007E00007F80
003F0000FF00
003F0001FF00
001F0001FE00
001F0003FE00
000F8003FC00
000F8007FC00
000F8007F800
0007C00FF800
0007C00FF000
0003E01FF000
0003E01FE000
0001F01FE000
0001F03FC000
0000F83FC000
0000FC7F8000
0000FE7F8000
00007F7F0000
00007FFF0000
00003FFE0000
00003FFE0000
00001FFC0000
00001FFC0000
00001FF80000
00000FF80000
00000FF00000
000007F00000
000007E00000
000007E00000
000007E00000
000007E00000
000007E00000
1FFFFFF00000
FFFFFFFFE000
7FFFFFFFFC00
3FFFFFFFFE00
00FFFFFFFE00
00003FFFFE00
00000FE0F800
00000FE00000
00000FE00000
00000FE00000
00000FC00000
00001FC00000
00001FC00000
00001FFE0000
0FFFFFFFE000
1FFFFFFFF000
1FFFFFFFF800
1FFFFFFFFC00
0FFFFFFFF800
03FFFFFFE000
00003FC00000
00003FC00000
00003FC00000
00003FC00000
00003FC00000
00003FC00000
00003F800000
00003F800000
00003F800000
00003F800000
00007F800000
00007F800000
00007F800000
00007F800000
00007F800000
00007F800000
00007F800000
00007F800000
00007F800000
000078000000
ENDCHAR
STARTCHAR brokenbar
ENCODING 166
SWIDTH 117 0
DWIDTH 14 0
BBX 7 69 3 -2
BITMAP
70
F8
FC
FC
FE
FE
FE
FE
FE
FE
FE
FE
FE
FE
FE
FE
FE
FE
FE
FE
FC
FC
FC
FC
FC
FC
FC
FC
FC
FC
00
00
00
FC
FC
FE
FE
FE
FE
FE
FE
FE
FE
FE
FE
FE
FE
FE
FE
FE
FE
FE
FE
FE
FE
FE
FE
7E
7E
7E
7E
7E
7E
7E
7E
3E
1E
0C
04
ENDCHAR
STARTCHAR section
ENCODING 167
SWIDTH 514 0
DWIDTH 60 0
BBX 55 77 4 0
BITMAP
0003FFF8000000
001FFFFF800000
007FFFFFF00000
01FFFFFFFC0000
03FFFFFFFF0000
07FFFFFFFF8000
0FFFFFFFFFE000
0FFE0003FFF000
1FF000007FF800
1FE000001FFC00
1FC0000007FE00
1F80000003FF00
1F80000001FF00
1F80000000FF80
1F800000007F80
1F800000001F80
1FC00000000780
0FC00000000000
0FE00000000000
07F00000000000
07FC0000000000
03FF8000000000
01FFF800000000
00FFFFFE000000
003FFFFFFC0000
003FFFFFFFE000
01FFFFFFFFFC00
07FFFFFFFFFF00
0FFFFFFFFFFFC0
1FFFFFFFDFFFE0
3FFFE00000FFF0
7FF80000003FF8
7FC00000000FFC
FF8000000007FC
FF8000000003FC
FF0000000001FE
FF0000000001FE
FF0000000001FE
FE0000000000FE
FE0000000001FE
7F0000000001FE
7F0000000001FE
7F8000000001FE
3FE000000003FE
3FF00000000FFC
1FFE0000003FF8
0FFFF80003FFF8
07FFFFFFFFFFF0
03FFFFFFFFFFE0
00FFFFFFFFFF80
003FFFFFFFFF00
0007FFFFFFFC00
00003FFFFFFF00
000000007FFF80
0000000003FFC0
00000000007FE0
00000000003FE0
00000000001FF0
00000000000FF0
000000000007F0
000000000007F8
300000000007F8
7C0000000007F8
7E0000000007F8
7F8000000007F8
3FC000000007F8
3FF00000000FF0
1FFC0000001FF0
0FFF0000003FF0
07FFC00001FFE0
03FFFFE03FFFC0
01FFFFFFFFFF80
007FFFFFFFFF00
001FFFFFFFFE00
0007FFFFFFF800
0000FFFFFFE000
000003FFFE0000
ENDCHAR
STARTCHAR dieresis
ENCODING 168
SWIDTH 397 0
DWIDTH 47 0
BBX 30 11 8 50
BITMAP
1F8007E0
3FC00FF0
7FE00FF8
7FE01FF8
FFE03FFC
FFF03FFC
FFF03FFC
7FE01FF8
7FC01FF8
3F800FE0
0E000380
ENDCHAR
STARTCHAR copyright
ENCODING 169
SWIDTH 667 0
DWIDTH 78 0
BBX 72 65 4 0
BITMAP
000001FFFE00000000
00000FFFFFE0000000
00003FFFFFFC000000
0000FFFFFFFF000000
0001FFFFFFFFC00000
0003FFFFFFFFF00000
000FFE007FFFFC0000
001FF00007FFFE0000
003FC00000FFFF8000
003F8000001FFFC000
007F00000007FFE000
00FE00000001FFF000
01FC000040007FF800
01F80001FF801FFC00
03F00007FFE00FFE00
07F0001FFFF803FF00
07E0007FFFFC01FF00
0FC000FFFFFE00FF80
0FC001FF07FE007FC0
1F8003FC00FF003FC0
1F8007F0007F001FE0
3F000FE0003F000FE0
3F000FC0001F0007F0
3F001F80001F0007F0
7E003F00000F0003F8
7E003F00000F0001F8
7E003E0000070001FC
FC007E0000060000FC
FC007E0000060000FC
FC007C00000400007E
FC00FC00000800007E
FC00FC00000000007E
FC00FC00000000003E
F800FC00000000003F
F800FC00000000003F
FC00FC00000000003F
FC00FC00000000003F
FC00FC00000000003F
FC00FC00000000001F
FC00FE00000000001F
7E00FE00000000001F
7E00FE00000000001F
7F007F00000000001F
7F007F00000000003F
3F807F80000000003F
3F803F80000000003F
3FC03FC0000000003F
1FE01FF00000F0007F
1FF01FFFFFFFFC00FE
0FF00FFFFFFFFE01FE
0FF803FFFFFFFC03FC
07FE01FFFFFFFC0FFC
03FF003FFFFFF83FF8
03FF8003FFFFC0FFF0
01FFE000000003FFE0
00FFF00000001FFFC0
007FFC000000FFFF00
003FFF80000FFFFE00
001FFFF001FFFFF800
0007FFFFFFFFFFE000
0003FFFFFFFFFF0000
0000FFFFFFFFF80000
00003FFFFFFF800000
000007FFFFF8000000
000000FFFE00000000
ENDCHAR
STARTCHAR ordfeminine
ENCODING 170
SWIDTH 266 0
DWIDTH 31 0
BBX 26 32 2 27
BITMAP
00380000
00FE0000
00FF8000
01FFC000
01C7E000
0001F000
0000F800
00007800
00003C00
00001E00
00001E00
00000F00
00380F00
03FF8F00
0FFFFF80
1FFFFF80
3F807F80
7C003F80
78000FC0
F00007C0
E00003C0
E00003C0
E00001C0
E00001C0
E00000C0
70000000
7C000000
3F80FFC0
1FFFFFC0
0FFFFF00
03FFF800
003FC000
ENDCHAR
STARTCHAR guillemotleft
ENCODING 171
SWIDTH 755 0
DWIDTH 88 0
BBX 82 56 0 0
BITMAP
0000000000000000000200
0000000000000000000F00
0000000000000000003F80
000000000000000000FFC0
000000000000000003FF80
00000000000000000FFE00
00000000000000001FFC00
00000000000000007FF000
0000000000006000FFE000
000000000001F001FF8000
000000000007F807FF0000
00000000001FFC0FFC0000
00000000007FF03FF80000
0000000000FFE07FE00000
0000000003FF81FFC00000
0000000007FF03FF000000
000000001FFC07FE000000
000000003FF81FF8000000
00000000FFE03FF0000000
00000001FFC0FFC0000000
00000003FF01FF80000000
0000000FFE07FE00000000
0000001FF80FFC00000000
0000007FF01FF000000000
000000FFC07FE000000000
000003FF80FF8000000000
000007FE03FF0000000000
00000FFC07FC0000000000
00003FF00FF80000000000
00007FC01FF00000000000
0001FF803FE00000000000
0003FE007FC00000000000
000FFC00FF800000000000
001FF001FF000000000000
003FE003FFE00000000000
00FFC007FFFE0000000000
01FF000FFFFFF000000000
03FE000FFFFFFFE0000000
07FC0007FFFFFFFFC00000
0FF80001FFFFFFFFFC0000
1FF000003FFFFFFFFF0000
3FF8000003FFFFFFFFC000
7FFF8000001FFFFFFFF000
7FFFFC0000001FFFFFF800
FFFFFFF00000000FFFF800
7FFFFFFFE00000003FFC00
3FFFFFFFFF0000000FFC00
0FFFFFFFFFE0000001F800
00FFFFFFFFFC0000002000
0007FFFFFFFE0000000000
00001FFFFFFF8000000000
0000001FFFFF8000000000
000000000FFFC000000000
0000000000FFC000000000
00000000003FC000000000
00000000000F8000000000
ENDCHAR
STARTCHAR logicalnot
ENCODING 172
SWIDTH 369 0
DWIDTH 43 0
BBX 36 18 4 29
BITMAP
7FFFFFFFF0
7FFFFFFFF0
FFFFFFFFF0
FFFFFFFFF0
FFFFFFFFF0
FFFFFFFFF0
FE000003F0
00000001F0
00000001F0
00000001F0
00000003F0
00000003F0
00000003F0
00000003F0
00000003F0
00000003E0
00000003E0
00000001C0
ENDCHAR
STARTCHAR hyphen_
ENCODING 173
SWIDTH 375 0
DWIDTH 44 0
BBX 38 9 2 28
BITMAP
003FFFFFC0
07FFFFFFF0
1FFFFFFFF8
3FFFFFFFF8
7FFFFFFFF8
FFFFFFFFFC
FFFFFC07F8
FFF8000020
F000000000
ENDCHAR
STARTCHAR registered
ENCODING 174
SWIDTH 708 0
DWIDTH 83 0
BBX 73 65 4 2
BITMAP
000001FFFE0000000000
00000FFFFFE000000000
00003FFFFFFC00000000
0000FFFFFFFF80000000
0001FFFFFFFFE0000000
0003FFFFFFFFF0000000
0007FE007FFFFC000000
000FF00003FFFE000000
001FC000007FFF800000
003F8000000FFFC00000
007F00000003FFE00000
00FE00000000FFF00000
01FC000000003FF80000
01F8000000001FFC0000
03F8007FFE0007FE0000
07F03FFFFFF003FF0000
07E0FFFFFFFE01FF0000
0FE1FFFFFFFF80FF8000
0FC3FFFFFFFFE07FC000
1FC7FF80003FF03FC000
1F87F8000007F81FE000
1F87E0000003FC0FF000
3F07C0000001FC07F000
3F0380F00001FE03F800
7F0380F80001FE03F800
7E0101F80001FE01F800
7E0101F80001FE01FC00
7E0001FC0003FE00FC00
7C0001FC0003FE00FE00
FC0001FC0003FC007E00
FC0001FC000FFC007E00
FC0001FC007FF8007E00
FC0001FFFFFFE0003F00
FC0001FFFFFFC0003F00
FC0001FFFFFF00003F00
FC0000FFFFF800003F00
FC0000FFFF0000001F00
FC0000FE000000001F00
7C0000FF800000001F00
7E0000FFC00000001F80
7E0000FFE00000001F80
7E0000FBF80000001F80
7F0000FDFC0000001F80
3F00007CFE0000001F80
3F80007C7F8000001F80
3F80007C3FC000003F00
1FC0007E1FE000003F00
1FE0007E07F800007F00
0FF0007E03FC0000FE00
0FF8003E01FE0001FE00
07FC003E007F8003FC00
07FE003E003FC00FFC00
03FF003E001FE03FF800
01FFC01E0007F8FFF000
00FFE0000003FFFFE000
00FFF8000000FFFFC000
007FFE000000FFFF0000
003FFF80000FFFFE0000
000FFFF001FFFFF80000
0007FFFFFFFFFFE00000
0001FFFFFFFFFF000000
0000FFFFFFFFF8000000
00003FFFFFFF80000000
000007FFFFF800000000
000000FFFE0000000000
ENDCHAR
STARTCHAR macron
ENCODING 175
SWIDTH 287 0
DWIDTH 34 0
BBX 30 9 4 54
BITMAP
01FFFFC0
1FFFFFF0
3FFFFFF8
7FFFFFFC
7FFFFFFC
FFFFFFFC
FFFFDFFC
FFC00078
F8000000
ENDCHAR
STARTCHAR degree
ENCODING 176
SWIDTH 254 0
DWIDTH 30 0
BBX 24 32 1 32
BITMAP
001F80
00FFC0
01FFE0
07FFF0
0FFFF8
1F81FC
1E007C
3C003C
38001E
70000E
70000F
E00007
E00007
E00007
E00007
E00007
E00007
E00007
E00007
E0000F
E0000F
F0001F
70001E
70003E
78007C
3C00FC
3E03F8
1FCFF8
0FFFF0
07FFC0
03FF80
00FE00
ENDCHAR
STARTCHAR plusminus
ENCODING 177
SWIDTH 459 0
DWIDTH 54 0
BBX 50 52 2 4
BITMAP
00001C00000000
00003E00000000
00003E00000000
00003F00000000
00003F00000000
00003F00000000
00003F00000000
00003F80000000
00003F80000000
00001F80000000
00001FC0000000
00001FC0000000
00001FC0000000
00000FC0000000
00000FE0000000
00000FE0000000
00000FE0000000
00000FF0000000
00000FF0000000
00000FFFE00000
00001FFFFFE000
0003FFFFFFFF80
003FFFFFFFFFC0
07FFFFFFFFFFC0
7FFFFFFFFFFFC0
FFFFFFFFFFFF80
FFFFFFFFFFFF00
FFFF87FC000000
FFC007FC000000
000007FC000000
000007FC000000
000003FC000000
000003FC000000
000003FC000000
000003FC000000
000003FC000000
000001FC000000
000001FC000000
000001FC000000
000001FC000000
000001FC000000
000001FC000000
000001FC000000
000001FFFF8000
00000FFFFFFC00
0007FFFFFFFF00
007FFFFFFFFF80
01FFFFFFFFFF80
07FFFFFFFFFF80
0FFFFFFFFFFF80
0FFFFE00000000
0FFF0000000000
ENDCHAR
STARTCHAR twosuperior
ENCODING 178
SWIDTH 296 0
DWIDTH 35 0
BBX 29 38 1 25
BITMAP
0001F800
0003FE00
0007FE00
00078F00
000F0780
000F0780
000E0380
000E03C0
000E03C0
000403C0
000001C0
000001C0
000001E0
000001E0
000001E0
000001E0
000001C0
000001C0
000003C0
000003C0
000003C0
000003C0
00000780
00000780
00000700
00000F00
00000E00
18001C00
7F001C00
FFC03800
FFF8F800
FFFFF800
FFFFF800
7FFFFF80
3FFFFFF0
1FFFFFF8
03C00FF8
000000F0
ENDCHAR
STARTCHAR threesuperior
ENCODING 179
SWIDTH 204 0
DWIDTH 24 0
BBX 23 38 0 31
BITMAP
1FFE00
7FFF00
7FFF80
7FFFC0
7001C0
7000E0
0000E0
0000E0
0000E0
0001E0
0003E0
0007C0
003F80
01FF00
1FFC00
1FFC00
3FFC00
0FFF00
01FFC0
003FE0
0007F0
0001F8
000078
00003C
00003C
00001E
E0001E
E0000E
F0000E
F8000E
7C000E
3E001E
1F801E
0FE07E
07FFFC
03FFF8
00FFF0
003FC0
ENDCHAR
STARTCHAR acute
ENCODING 180
SWIDTH 180 0
DWIDTH 21 0
BBX 18 18 1 46
BITMAP
000180
0003C0
000FC0
001FC0
007F80
00FF00
03FE00
07FC00
0FF800
1FF000
3FE000
7FC000
7F8000
FF0000
FC0000
F80000
F00000
600000
ENDCHAR
STARTCHAR mu
ENCODING 181
SWIDTH 501 0
DWIDTH 59 0
BBX 55 62 2 -7
BITMAP
1C000000000000
3E000000000000
7E000000000000
7E000000000000
FE000000000000
FE000000002000
FC000000007800
FC00000000F800
FC00000000FC00
FC00000000FC00
FC00000000FC00
FC00000000FE00
FC00000000FE00
FC00000000FE00
FC00000000FE00
FC00000000FE00
FC00000000FE00
FC00000000FF00
FC00000000FF00
FC00000000FF00
FE00000000FF00
FE00000000FF00
FE00000000FF00
FE00000000FF00
FF00000000FF00
FF00000000FF00
FF00000000FF00
FF80000001FF00
FF80000001FF00
FF80000001FF00
FFC0000003FF00
FFC0000003FF00
FFC0000007FF00
FFE0000007FF80
FFE000000FFF80
FFF000001FFF80
FFF800001FFFC0
FFF800003FFFC0
FFFC00007FFFC0
FFFE0000FFBFE0
FDFF0001FF1FE0
FDFF8003FF1FE0
FCFFE00FFE0FF0
FCFFF81FFC0FF0
FC7FFFFFF807F8
FC3FFFFFF007F8
FC1FFFFFE007F8
FC07FFFFC003FC
FC01FFFF8003FC
FC007FFE0003FC
FC000FF80001FE
FC0000000001FE
FC0000000000FE
FC00000000007E
FC000000000000
FC000000000000
FC000000000000
FC000000000000
FC000000000000
FC000000000000
FC000000000000
FC000000000000
ENDCHAR
STARTCHAR paragraph
ENCODING 182
SWIDTH 413 0
DWIDTH 48 0
BBX 42 63 2 -3
BITMAP
00000FFF8000
001FFFFFF800
007FFFFFFC00
00FFFFFFFE00
03FFFFFFFE00
07FFFFFFFE00
0FFFFFFFFF00
0FFFFFFFFF00
1FFFFFFFFF00
1FFFFFFFFF00
3FFFFFFFFF00
3FFFFFFFFF80
7FFFFFFF3F80
7FFFFFFE3F80
7FFFFFFE3F80
7FFFFFFE1F80
FFFFFFFE1F80
FFFFFFFE1F80
FFFFFFFC1F80
FFFFFFFC1FC0
FFFFFFFC1FC0
FFFFFFFC1FC0
FFFFFFFC1FC0
7FFFFFFC1FC0
7FFFFFFC1FC0
7FFFFFFC1FC0
3FFFFFFC1FC0
1FFFFFFC1FC0
0FFFFFFC1FC0
000001FC1FC0
000001FC1FC0
000001FC1FC0
000001FC1FC0
000000FC1FC0
000000FC1FC0
000000FC1FC0
000000F81FC0
000000F81FC0
000000F81FC0
000000F81FC0
000000F81FC0
000000F81FC0
000000F81FC0
000000F81FC0
000001F81FC0
000001F81FC0
000001F81FC0
000001F81FC0
000001F81FC0
000001FC1FC0
000001FC1FC0
000001FC1FC0
000001FC1FC0
000001FC1FC0
000000FC1F80
000000FC1F80
000000FC1F80
000000FC1F80
000000FC1F80
000000FC1F00
000000FC1F00
000000700F00
000000000E00
ENDCHAR
STARTCHAR periodcentered
ENCODING 183
SWIDTH 212 0
DWIDTH 25 0
BBX 14 13 6 21
BITMAP
0F80
1FE0
3FF0
7FF8
7FF8
FFFC
FFFC
FFFC
FFFC
FFF8
7FF0
3FE0
1FC0
ENDCHAR
STARTCHAR cedilla
ENCODING 184
SWIDTH 445 0
DWIDTH 52 0
BBX 30 39 18 -36
BITMAP
30000000
38000000
3C000000
7C000000
7E000000
7E000000
7E000000
7C000000
3E000000
3E000000
3E000000
3F000000
1F800000
1FC00000
0FF80000
07FFE000
03FFFE00
00FFFF80
003FFFE0
0001FFF0
00001FF0
000007F8
000001F8
000001FC
000000FC
000000FC
000000FC
F80000FC
FE0000FC
7F0000FC
3FC000FC
1FE001FC
1FF001F8
0FFE0FF0
07FFFFE0
03FFFFC0
01FFFF80
007FFC00
000FE000
ENDCHAR
STARTCHAR onesuperior
ENCODING 185
SWIDTH 197 0
DWIDTH 23 0
BBX 23 46 -2 25
BITMAP
00000E
00001E
00001E
00001E
00003E
00003E
00003E
00003E
00003C
00007C
00007C
0000FC
0000FC
0001FC
0003FC
0007FC
000FF8
001FF8
003FF8
007FF8
00FFF8
01F3F8
03E1F8
07E1F8
0FC1F0
1F81F0
3F01F0
7E01F0
FC03F0
F803F0
7003F0
0003E0
0003E0
0003E0
0003E0
0003E0
0003E0
0003C0
0003C0
0003C0
0007C0
0007C0
000780
000380
000380
000300
ENDCHAR
STARTCHAR ordmasculine
ENCODING 186
SWIDTH 254 0
DWIDTH 30 0
BBX 24 32 1 32
BITMAP
001F80
00FFC0
01FFE0
07FFF0
0FFFF8
1F81FC
1E007C
3C003C
38001E
70000E
70000F
E00007
E00007
E00007
E00007
E00007
E00007
E00007
E00007
E0000F
E0000F
F0001F
70001E
70003E
78007C
3C00FC
3E03F8
1FCFF8
0FFFF0
07FFC0
03FF80
00FE00
ENDCHAR
STARTCHAR guillemotright
ENCODING 187
SWIDTH 659 0
DWIDTH 77 0
BBX 69 57 3 0
BITMAP
000000060000000000
0000003F8000000000
0000003FE000000000
7C00003FF000000000
FF00001FF800000000
FF80001FFC00000000
FFC0000FFF00000000
7FE00007FFC0000000
7FF00001FFF8000000
3FFC0000FFFE000000
0FFF00003FFFC00000
07FFE0001FFFF80000
03FFFC0007FFFF8000
00FFFF8001FFFFF000
003FFFF0003FFFFF80
000FFFFE000FFFFFF0
0003FFFFE001FFFFF8
0000FFFFFF803FFFF8
00001FFFFFE003FFF8
000007FFFFE0001FF8
0000007FFFE0000FF8
00000003FFE0000FF8
000000007FE0000FF8
000000003FE0001FF8
000000003FE0003FF0
000000003FE0003FE0
000000007FE0007FC0
00000000FFC000FF80
00000001FF8003FF00
00000003FF0007FE00
00000007FE000FFC00
0000000FFC001FF800
0000001FF8007FF000
0000003FF000FFC000
000000FFE003FF8000
000001FF8007FF0000
000003FF000FFC0000
00000FFE003FF80000
00001FF8007FF00000
00007FF001FFC00000
0000FFE003FF800000
0003FF800FFF000000
0007FF001FFC000000
001FFE003FF8000000
003FF800FFE0000000
007FF001FFC0000000
01FFE003FF80000000
03FF800FFE00000000
07FF001FFC00000000
1FFC001FF000000000
3FF8003FE000000000
7FE0003FC000000000
FFC0003F0000000000
FF80001E0000000000
FE0000000000000000
FC0000000000000000
700000000000000000
ENDCHAR
STARTCHAR onequarter
ENCODING 188
SWIDTH 626 0
DWIDTH 73 0
BBX 65 90 2 -3
BITMAP
000000001000000000
000000001800000000
000000001C00000000
000000003C00000000
000000003C00000000
000000003C00000000
000000007C00000000
000000007C00000000
00001C007C00000000
00003C007800000000
00003C007800000000
00003C007800000000
00007C007800000000
00007C007800000000
00007800F800000000
00007800F000000000
00007800F000000000
0000F800F000000000
0000F800F000000000
0001F801F000000000
0003F801F000000000
0007F801E000000000
000FF801E000000000
001FF003E000000000
001FF003E000000000
003FF003C000000000
007FF007C000000000
00FFF007C000000000
01F7F007C000000000
03E3F007C000000000
07C3F00F8000000000
0FC3E00F8000000000
1F83E00F8000000000
3F03E00F8000000000
7E03E01F0000000000
FC03E01F0000000000
F803E01F0000000000
F007E01F0000000000
0007C03F0000000000
0007C03E0000000000
0007C03E0000000000
0007C03E0000000000
0007C07E0000000000
0007C07C0000000000
0007807C0000000000
0007807C03C0000000
000780FC07C0000000
000780F807C0000000
000780F807C0000000
000700F80FC0000000
000701F80F80000000
000701F01F80000000
000601F01F00000000
000003F01F00000000
000003F03E00000000
000003E03E00000000
000003E03E00000380
000007E03C00000780
000007E03C00000780
000007C03C00000F80
000007C03800000F80
00000FC03800001F80
00000FC03800003F80
00000F803C00003F00
00000F803C00007F00
00001F803C0000FF00
00001F803C0001FF00
00001F003E0003FE00
00001F001F0007FE00
00003F001F800FFE00
00003E000FC03FFE00
00007E000FFFFFFE00
00007E0007FFFFFE00
00007C0003FFFE3E00
0000FC0001FFF83E00
0000FC0000FFE03E00
0000FC000007003E00
0001F8000000003F00
0001F8000000003F00
0001F8000000003F00
0001F0000000003F00
0003F0000000003F00
0003F0000000001F00
0003E0000000001F00
0003E0000000001F80
0003E0000000001F00
0003C0000000001F00
0003C0000000000E00
000380000000000000
000180000000000000
ENDCHAR
STARTCHAR onehalf
ENCODING 189
SWIDTH 566 0
DWIDTH 66 0
BBX 61 89 1 -5
BITMAP
0000000006000000
0000000007000000
000000000F000000
000000000F000000
000007000F000000
00000F000F000000
00000F001F000000
00000F001F000000
00001F001F000000
00001F001F000000
00001F001E000000
00001F001E000000
00001F003E000000
00003F003E000000
00003E003E000000
00003E003C000000
00003E003C000000
00007E007C000000
0000FE007C000000
0001FE007C000000
0003FE0078000000
0003FE00F8000000
0007FE00F8000000
000FFE00F8000000
001FFC00F8000000
003FFC01F0000000
007FFC01F0000000
00FFFC01F0000000
01FBFC03F0000000
01F9FC03E0000000
03F1FC03E0000000
07E1FC03E0000000
0FC1F807E0000000
1FC1F807C0000000
3F81F807C0000000
7F01F807C0000000
7E01F80FC0000000
FC01F80F8001F000
F801F80F8007F800
F001F81F800FFC00
6001F01F801FFE00
0001F01F003E3E00
0001F01F003C1F00
0003F03F003C0F00
0003F03F00380F80
0003F03E00380780
0003F07E00380780
0003E07E003807C0
0003E07E003003C0
0003E07C001003C0
0003E0FC000003C0
0003E0FC000003C0
0003E0FC000003E0
0003C0F8000003E0
0003C1F8000003E0
0003C1F8000003E0
0003C1F8000003E0
000383F0000003C0
000183F0000003C0
000003F0000003C0
000003E0000003C0
000007E0000007C0
000007E0000007C0
000007E000000780
000007C000000780
00000FC000000F80
00000FC000000F00
00000F8000000F00
00001F8000001F00
00001F8000001E00
00001F0000003C00
00003F07E0003800
00003F0FFC007800
00007F1FFF00F000
00007E1FFFC1F000
00007E1FFFFFF000
0000FE1FFFFFF000
0000FC0FFFFFF800
0000FC0FFFFFFF80
0001FC07FFFFFFF0
0001F803FFFFFFF8
0001F800FFFDFFF8
0001F80000000FF8
0001F000000000F0
0001F00000000000
0001E00000000000
0001E00000000000
0001C00000000000
0000C00000000000
ENDCHAR
STARTCHAR threequarters
ENCODING 190
SWIDTH 566 0
DWIDTH 66 0
BBX 62 90 1 -9
BITMAP
0000000002000000
0000000007000000
0000000007000000
000000000F000000
000000000F000000
000000000F000000
000000000F000000
000000000F000000
000000001F000000
000000001F000000
0FFE00001F000000
3FFF80001E000000
3FFFC0001E000000
3FFFE0001E000000
3C01E0001E000000
3000F0001E000000
100070003C000000
000070003C000000
000070003C000000
000070007C000000
0000F0007C000000
0001E0007C000000
0007C00078000000
001F8000F8000000
01FF0000F8000000
0FFE0000F8000000
1FFE0000F0000000
1FFE0001F0000000
0FFF8001F0000000
01FFC001F0000000
003FE001F0000000
0003F003E0000000
0000F803E0400000
00007C03E1E00000
00003C03E1E00000
00001E07E1E00000
00000E07C3E00000
20000F07C3E00000
70000F07C3C00000
F000070FC3C00000
F800070F87C00000
7C00070F87800000
3E00070F87800000
1F000F1F87800000
0FC01F1F0F000018
07F07E1F0F00001C
03FFFE1F0F00001C
01FFFC3F0E00003C
007FF83E0E00003C
001FE03E0E00007C
0000003E0E00007C
0000007E0E00007C
0000007C0E0000FC
0000007C0E0000F8
0000007C0F0001F8
000000FC0F0003F8
000000F8070007F8
000000F8078007F8
000000F807800FF0
000001F807C03FF0
000001F003F0FFF0
000001F003FFFFF0
000001F001FFFEF0
000003F000FFFCF0
000003E000FFF0F0
000003E0003FC078
000007E000070078
000007E000000078
000007C000000078
000007C000000078
00000FC000000078
00000F8000000078
00001F8000000078
00001F800000007C
00001F800000007C
00003F000000007C
00003F000000007C
00003F0000000078
00003E0000000030
00007E0000000000
00007E0000000000
00007C0000000000
00007C0000000000
0000FC0000000000
0000F80000000000
0000F80000000000
0000F80000000000
0000F00000000000
0000700000000000
0000600000000000
ENDCHAR
STARTCHAR questiondown
ENCODING 191
SWIDTH 272 0
DWIDTH 32 0
BBX 30 87 3 0
BITMAP
1E000000
3F800000
7F800000
7F800000
7F800000
7F800000
3F000000
08000000
00000000
00000000
00000000
00000000
00000000
00000000
00000000
00000000
00000000
00000000
00000000
00000000
00000000
00000000
00000000
00000000
00000000
00000000
00000000
00000000
00000000
00000000
00000000
3FF80000
7FFF8000
7FFFE000
7FFFF800
3FFFFC00
0FFFFC00
001FFC00
0003FC00
0001FC00
0001FC00
0003FC00
0007F800
000FF800
000FF800
001FF000
003FF000
007FE000
007FC000
00FFC000
01FF8000
01FF0000
03FF0000
07FE0000
07FC0000
0FFC0000
0FF80000
1FF00000
1FF00000
3FE00000
3FC00000
7FC00000
7F800000
7F800000
FF000000
FF000000
FF000000
FE000000
FE000000
FE000000
FE000000
FE000000
FE000000
FE000000
7E000000
7F000000
7F000000
3F800000
3FC0000C
1FE0001C
0FFC007C
07FFFFFC
03FFFFFC
01FFFFF8
00FFFFF0
003FFFC0
0007FE00
ENDCHAR
STARTCHAR Agrave
ENCODING 192
SWIDTH 562 0
DWIDTH 66 0
BBX 61 108 2 0
BITMAP
000001C000000000
000003F000000000
000001FC00000000
000001FF00000000
000000FF80000000
0000007FC0000000
0000003FE0000000
0000001FF0000000
0000000FF8000000
00000007FC000000
00000003FC000000
00000001FC000000
00000000FC000000
0000000038000000
0000000000000000
0000000000000000
0000000000000000
0000000000000000
0000000000000000
0000007F80000000
000007FFF8000000
00003FFFFE000000
00007FFFFF000000
0001FFFFFF800000
0003FFFFFFE00000
0007FC00FFF00000
000FF0001FF80000
000FE0000FF80000
001FC00003FC0000
003F800001FE0000
003F000000FF0000
007E0000007F0000
007C0000003F8000
00FC0000003F8000
00F80000001FC000
00F80000000FC000
01F80000000FE000
01F000000007E000
01F000000007F000
03F000000003F000
03E000000003F800
03E000000001F800
03E000000001F800
03E000000000FC00
07C000000000FC00
07C000000000FC00
07C0000000007E00
07C0000000007E00
07C0000000007E00
07C0000000003E00
0780000000003F00
0780000000003F00
0780000000003F00
0F80000000001F00
0F80000000001F80
0F80000000001F80
0F80000000001F80
0F80000000001F80
0F80000000001F80
0F80000000000FC0
0F80000000000FC0
0F80000000000FC0
0F80000000000FC0
0F80000000000FC0
0F80000000000FE0
0F80000000000FE0
0F80000000000FE0
0F80000000000FE0
0F80000000001FE0
0FFFFFE000001FE0
3FFFFFFFFFF83FE0
FFFFFFFFFFFFFFE0
FFFFFFFFFFFFFFF0
7FFFFFFFFFFFFFF0
7FF800007FFFFFF0
3FE00000007FF7F0
1FC00000000007F0
0FC00000000007F0
07C00000000007F0
0FC00000000007F0
0FC00000000003F0
0FC00000000003F0
0FC00000000003F0
0FC00000000003F0
0FC00000000003F0
0FC00000000003F8
0FC00000000003F8
0FE00000000003F8
0FE00000000003F8
0FE00000000003F8
07E00000000003F8
07E00000000003F8
07E00000000003F8
07F00000000003F8
07F00000000007F8
07F00000000007F8
07F00000000007F0
07F00000000007F0
03F80000000007F0
03F8000000000FF0
03F8000000000FF0
03F8000000000FF0
01F8000000000FF0
01F8000000000FF0
01F8000000000FF0
00F8000000000FE0
00F8000000000FC0
0078000000000F00
ENDCHAR
STARTCHAR Aacute
ENCODING 193
SWIDTH 562 0
DWIDTH 66 0
BBX 61 109 2 0
BITMAP
0000000600000000
0000000F00000000
0000003F00000000
0000007F00000000
000001FE00000000
000003FE00000000
000007FC00000000
00001FF800000000
00003FF000000000
00007FE000000000
0000FF8000000000
0000FF0000000000
0001FE0000000000
0001FC0000000000
0003F80000000000
0003F00000000000
0003E00000000000
0001C00000000000
0000000000000000
0000000000000000
0000007F80000000
000007FFF8000000
00003FFFFE000000
00007FFFFF000000
0001FFFFFF800000
0003FFFFFFE00000
0007FC00FFF00000
000FF0001FF80000
000FE0000FF80000
001FC00003FC0000
003F800001FE0000
003F000000FF0000
007E0000007F0000
007C0000003F8000
00FC0000003F8000
00F80000001FC000
00F80000000FC000
01F80000000FE000
01F000000007E000
01F000000007F000
03F000000003F000
03E000000003F800
03E000000001F800
03E000000001F800
03E000000000FC00
07C000000000FC00
07C000000000FC00
07C0000000007E00
07C0000000007E00
07C0000000007E00
07C0000000003E00
0780000000003F00
0780000000003F00
0780000000003F00
0F80000000001F00
0F80000000001F80
0F80000000001F80
0F80000000001F80
0F80000000001F80
0F80000000001F80
0F80000000000FC0
0F80000000000FC0
0F80000000000FC0
0F80000000000FC0
0F80000000000FC0
0F80000000000FE0
0F80000000000FE0
0F80000000000FE0
0F80000000000FE0
0F80000000001FE0
0FFFFFE000001FE0
3FFFFFFFFFF83FE0
FFFFFFFFFFFFFFE0
FFFFFFFFFFFFFFF0
7FFFFFFFFFFFFFF0
7FF800007FFFFFF0
3FE00000007FF7F0
1FC00000000007F0
0FC00000000007F0
07C00000000007F0
0FC00000000007F0
0FC00000000003F0
0FC00000000003F0
0FC00000000003F0
0FC00000000003F0
0FC00000000003F0
0FC00000000003F8
0FC00000000003F8
0FE00000000003F8
0FE00000000003F8
0FE00000000003F8
07E00000000003F8
07E00000000003F8
07E00000000003F8
07F00000000003F8
07F00000000007F8
07F00000000007F8
07F00000000007F0
07F00000000007F0
03F80000000007F0
03F8000000000FF0
03F8000000000FF0
03F8000000000FF0
01F8000000000FF0
01F8000000000FF0
01F8000000000FF0
00F8000000000FE0
00F8000000000FC0
0078000000000F00
ENDCHAR
STARTCHAR Acircumflex
ENCODING 194
SWIDTH 562 0
DWIDTH 66 0
BBX 61 114 2 0
BITMAP
0000003000000000
0000007C00000000
000000FE00000000
000000FE00000000
000000FF00000000
000000FF80000000
000001FFC0000000
000001FFC0000000
000003FFE0000000
000003FFF0000000
000007FFF8000000
000007FFFC000000
00000FFFFE000000
00001FFFFE000000
00003FCFFF000000
00007F83FF800000
0001FF81FF800000
0003FF00FFC00000
0007FE007FC00000
000FFC007FC00000
001FF8003FE00000
001FF0001FE00000
000FE0000FC00000
000F800007C00000
0000000001000000
0000007F80000000
000007FFF8000000
00003FFFFE000000
00007FFFFF000000
0001FFFFFF800000
0003FFFFFFE00000
0007FC00FFF00000
000FF0001FF80000
000FE0000FF80000
001FC00003FC0000
003F800001FE0000
003F000000FF0000
007E0000007F0000
007C0000003F8000
00FC0000003F8000
00F80000001FC000
00F80000000FC000
01F80000000FE000
01F000000007E000
01F000000007F000
03F000000003F000
03E000000003F800
03E000000001F800
03E000000001F800
03E000000000FC00
07C000000000FC00
07C000000000FC00
07C0000000007E00
07C0000000007E00
07C0000000007E00
07C0000000003E00
0780000000003F00
0780000000003F00
0780000000003F00
0F80000000001F00
0F80000000001F80
0F80000000001F80
0F80000000001F80
0F80000000001F80
0F80000000001F80
0F80000000000FC0
0F80000000000FC0
0F80000000000FC0
0F80000000000FC0
0F80000000000FC0
0F80000000000FE0
0F80000000000FE0
0F80000000000FE0
0F80000000000FE0
0F80000000001FE0
0FFFFFE000001FE0
3FFFFFFFFFF83FE0
FFFFFFFFFFFFFFE0
FFFFFFFFFFFFFFF0
7FFFFFFFFFFFFFF0
7FF800007FFFFFF0
3FE00000007FF7F0
1FC00000000007F0
0FC00000000007F0
07C00000000007F0
0FC00000000007F0
0FC00000000003F0
0FC00000000003F0
0FC00000000003F0
0FC00000000003F0
0FC00000000003F0
0FC00000000003F8
0FC00000000003F8
0FE00000000003F8
0FE00000000003F8
0FE00000000003F8
07E00000000003F8
07E00000000003F8
07E00000000003F8
07F00000000003F8
07F00000000007F8
07F00000000007F8
07F00000000007F0
07F00000000007F0
03F80000000007F0
03F8000000000FF0
03F8000000000FF0
03F8000000000FF0
01F8000000000FF0
01F8000000000FF0
01F8000000000FF0
00F8000000000FE0
00F8000000000FC0
0078000000000F00
ENDCHAR
STARTCHAR Atilde
ENCODING 195
SWIDTH 562 0
DWIDTH 66 0
BBX 61 105 2 0
BITMAP
0003F800000E0000
000FFE00003F0000
003FFF80007F0000
007FFFE000FE0000
007FCFF801FC0000
00FE07FC07F80000
00FC01FFFFF00000
00F800FFFFE00000
01F8003FFFC00000
01F8001FFF800000
01F0000FFF000000
01F00003FE000000
00F0000000000000
00F0000000000000
0070000000000000
0030000000000000
0000007F80000000
000007FFF8000000
00003FFFFE000000
00007FFFFF000000
0001FFFFFF800000
0003FFFFFFE00000
0007FC00FFF00000
000FF0001FF80000
000FE0000FF80000
001FC00003FC0000
003F800001FE0000
003F000000FF0000
007E0000007F0000
007C0000003F8000
00FC0000003F8000
00F80000001FC000
00F80000000FC000
01F80000000FE000
01F000000007E000
01F000000007F000
03F000000003F000
03E000000003F800
03E000000001F800
03E000000001F800
03E000000000FC00
07C000000000FC00
07C000000000FC00
07C0000000007E00
07C0000000007E00
07C0000000007E00
07C0000000003E00
0780000000003F00
0780000000003F00
0780000000003F00
0F80000000001F00
0F80000000001F80
0F80000000001F80
0F80000000001F80
0F80000000001F80
0F80000000001F80
0F80000000000FC0
0F80000000000FC0
0F80000000000FC0
0F80000000000FC0
0F80000000000FC0
0F80000000000FE0
0F80000000000FE0
0F80000000000FE0
0F80000000000FE0
0F80000000001FE0
0FFFFFE000001FE0
3FFFFFFFFFF83FE0
FFFFFFFFFFFFFFE0
FFFFFFFFFFFFFFF0
7FFFFFFFFFFFFFF0
7FF800007FFFFFF0
3FE00000007FF7F0
1FC00000000007F0
0FC00000000007F0
07C00000000007F0
0FC00000000007F0
0FC00000000003F0
0FC00000000003F0
0FC00000000003F0
0FC00000000003F0
0FC00000000003F0
0FC00000000003F8
0FC00000000003F8
0FE00000000003F8
0FE00000000003F8
0FE00000000003F8
07E00000000003F8
07E00000000003F8
07E00000000003F8
07F00000000003F8
07F00000000007F8
07F00000000007F8
07F00000000007F0
07F00000000007F0
03F80000000007F0
03F8000000000FF0
03F8000000000FF0
03F8000000000FF0
01F8000000000FF0
01F8000000000FF0
01F8000000000FF0
00F8000000000FE0
00F8000000000FC0
0078000000000F00
ENDCHAR
STARTCHAR Adieresis
ENCODING 196
SWIDTH 562 0
DWIDTH 66 0
BBX 61 105 2 0
BITMAP
00007E000F800000
0000FF001FC00000
0001FF803FE00000
0001FF807FF00000
0003FFC0FFF00000
0003FFC0FFF00000
0003FFC07FF00000
0001FF807FE00000
0001FF003FE00000
0000FE003FC00000
000038000E000000
0000000000000000
0000000000000000
0000000000000000
0000000000000000
0000000000000000
0000007F80000000
000007FFF8000000
00003FFFFE000000
00007FFFFF000000
0001FFFFFF800000
0003FFFFFFE00000
0007FC00FFF00000
000FF0001FF80000
000FE0000FF80000
001FC00003FC0000
003F800001FE0000
003F000000FF0000
007E0000007F0000
007C0000003F8000
00FC0000003F8000
00F80000001FC000
00F80000000FC000
01F80000000FE000
01F000000007E000
01F000000007F000
03F000000003F000
03E000000003F800
03E000000001F800
03E000000001F800
03E000000000FC00
07C000000000FC00
07C000000000FC00
07C0000000007E00
07C0000000007E00
07C0000000007E00
07C0000000003E00
0780000000003F00
0780000000003F00
0780000000003F00
0F80000000001F00
0F80000000001F80
0F80000000001F80
0F80000000001F80
0F80000000001F80
0F80000000001F80
0F80000000000FC0
0F80000000000FC0
0F80000000000FC0
0F80000000000FC0
0F80000000000FC0
0F80000000000FE0
0F80000000000FE0
0F80000000000FE0
0F80000000000FE0
0F80000000001FE0
0FFFFFE000001FE0
3FFFFFFFFFF83FE0
FFFFFFFFFFFFFFE0
FFFFFFFFFFFFFFF0
7FFFFFFFFFFFFFF0
7FF800007FFFFFF0
3FE00000007FF7F0
1FC00000000007F0
0FC00000000007F0
07C00000000007F0
0FC00000000007F0
0FC00000000003F0
0FC00000000003F0
0FC00000000003F0
0FC00000000003F0
0FC00000000003F0
0FC00000000003F8
0FC00000000003F8
0FE00000000003F8
0FE00000000003F8
0FE00000000003F8
07E00000000003F8
07E00000000003F8
07E00000000003F8
07F00000000003F8
07F00000000007F8
07F00000000007F8
07F00000000007F0
07F00000000007F0
03F80000000007F0
03F8000000000FF0
03F8000000000FF0
03F8000000000FF0
01F8000000000FF0
01F8000000000FF0
01F8000000000FF0
00F8000000000FE0
00F8000000000FC0
0078000000000F00
ENDCHAR
STARTCHAR Aring
ENCODING 197
SWIDTH 562 0
DWIDTH 66 0
BBX 61 107 2 0
BITMAP
0000003F00000000
000001FFC0000000
000007FFE0000000
00000FFFF0000000
00001F87F0000000
00003E01F8000000
00007C0078000000
000078007C000000
000078003C000000
000070003C000000
000070003C000000
000070003C000000
000078007C000000
00007800F8000000
00003C01F8000000
00003F07F0000000
00001FFFE0000000
00000FFFC0000000
000007FFC0000000
000007FFF8000000
00003FFFFE000000
00007FFFFF000000
0001FFFFFFC00000
0003FFFFFFE00000
0007FC00FFF00000
000FF0001FF80000
000FE0000FF80000
001FC00003FC0000
003F800001FE0000
003F000000FF0000
007E0000007F0000
007C0000003F8000
00FC0000003F8000
00F80000001FC000
00F80000000FC000
01F80000000FE000
01F000000007E000
01F000000007F000
03F000000003F000
03E000000003F800
03E000000001F800
03E000000001F800
03E000000000FC00
07C000000000FC00
07C000000000FC00
07C0000000007E00
07C0000000007E00
07C0000000007E00
07C0000000003E00
0780000000003F00
0780000000003F00
0780000000003F00
0F80000000001F00
0F80000000001F80
0F80000000001F80
0F80000000001F80
0F80000000001F80
0F80000000001F80
0F80000000000FC0
0F80000000000FC0
0F80000000000FC0
0F80000000000FC0
0F80000000000FC0
0F80000000000FE0
0F80000000000FE0
0F80000000000FE0
0F80000000000FE0
0F80000000001FE0
0FFFFFE000001FE0
3FFFFFFFFFF83FE0
FFFFFFFFFFFFFFE0
FFFFFFFFFFFFFFF0
7FFFFFFFFFFFFFF0
7FF800007FFFFFF0
3FE00000007FF7F0
1FC00000000007F0
0FC00000000007F0
07C00000000007F0
0FC00000000007F0
0FC00000000003F0
0FC00000000003F0
0FC00000000003F0
0FC00000000003F0
0FC00000000003F0
0FC00000000003F8
0FC00000000003F8
0FE00000000003F8
0FE00000000003F8
0FE00000000003F8
07E00000000003F8
07E00000000003F8
07E00000000003F8
07F00000000003F8
07F00000000007F8
07F00000000007F8
07F00000000007F0
07F00000000007F0
03F80000000007F0
03F8000000000FF0
03F8000000000FF0
03F8000000000FF0
01F8000000000FF0
01F8000000000FF0
01F8000000000FF0
00F8000000000FE0
00F8000000000FC0
0078000000000F00
ENDCHAR
STARTCHAR AE
ENCODING 198
SWIDTH 960 0
DWIDTH 112 0
BBX 108 89 2 0
BITMAP
0000007F80000000000000000000
000007FFF8000000000000000000
00003FFFFE000000000000000000
00007FFFFF000000000000000000
0001FFFFFF800000000000000000
0003FFFFFFE00000000000000000
0007FC00FFF00000000000000000
000FF0001FF80000000000000000
000FE0000FF80000000000000000
001FC00003FC0000000000000000
003F800001FE0000000000000000
003F000000FF0000000000000000
007E0000007F0000000000000000
007C0000003F8000000000000000
00FC0000003F8000000000000000
00F80000001FC000000000000000
00F80000000FC01FE00000000000
01F80000000FE0FFFFFFFFFFF000
01F000000007E0FFFFFFFFFFFE00
01F000000007F0FFFFFFFFFFFF00
03F000000003F0FFFFFFFFFFFF80
03E000000003F8FFFFFFFFFFFFC0
03E000000001F8FFFFFFFFFFFFC0
03E000000001F8FFF000000003C0
03E000000000FCFC0000000000C0
07C000000000FCFC000000000000
07C000000000FCFC000000000000
07C0000000007EFC000000000000
07C0000000007EFC000000000000
07C0000000007EFC000000000000
07C0000000003FFC000000000000
0780000000003FFC000000000000
0780000000003FFC000000000000
0780000000003FFC000000000000
0F80000000001FFC000000000000
0F80000000001FFC000000000000
0F80000000001FFC000000000000
0F80000000001FFC000000000000
0F80000000001FFC000000000000
0F80000000001FFC000000000000
0F80000000000FFC000000000000
0F80000000000FFC000000000000
0F80000000000FFC000000003F00
0F80000000000FFC0000003FFE00
0F80000000000FFC00000FFFFE00
0F80000000000FFC0003FFFFFC00
0F80000000000FFE07FFFFFFF800
0F80000000000FFFFFFFFFFFE000
0F80000000000FFFFFFFFFFF0000
0F80000000001FFFFFFFFFF00000
0FFFFFE000001FFFFFFFF0000000
3FFFFFFFFFF83FFFFF0000000000
FFFFFFFFFFFFFFFF000000000000
FFFFFFFFFFFFFFFC000000000000
7FFFFFFFFFFFFFFC000000000000
7FF800007FFFFFF8000000000000
3FE00000007FF7F8000000000000
1FC00000000007F8000000000000
0FC00000000007F8000000000000
07C00000000007F8000000000000
0FC00000000007F8000000000000
0FC00000000003F8000000000000
0FC00000000003F8000000000000
0FC00000000003F8000000000000
0FC00000000003F8000000000000
0FC00000000003F8000000000000
0FC00000000003F8000000000000
0FC00000000003F8000000000000
0FE00000000003F8000000000000
0FE00000000003F8000000000000
0FE00000000003F8000000000000
07E00000000003F8000000000000
07E00000000003F8000000000000
07E00000000003F8000000000000
07F00000000003F8000000000000
07F00000000007F8000000000000
07F00000000007F8000000000000
07F00000000007F8000000000000
07F00000000007F8000000000000
03F80000000007F80000000FFFC0
03F8000000000FFE00003FFFFFF0
03F8000000000FFFFFFFFFFFFFF0
03F8000000000FFFFFFFFFFFFFF0
01F8000000000FFFFFFFFFFFFFE0
01F8000000000FFFFFFFFFFFFFC0
01F8000000000FFFFFFFFFFFFF00
00F8000000000FEFFFFFFFFFF800
00F8000000000FC1FFFFFFFF0000
0078000000000F000FFFFC000000
ENDCHAR
STARTCHAR Ccedilla
ENCODING 199
SWIDTH 515 0
DWIDTH 60 0
BBX 55 112 2 -36
BITMAP
000000000F0000
00000001FFC000
0000000FFFE000
0000003FFFE000
0000007FFFF000
000001FFFFF000
000003FFFFF000
00000FFFFFF000
00001FFF03F000
00003FFC01F000
00007FF001F000
0000FFC001E000
0001FF0003E000
0003FE0003C000
0007F80007C000
000FF000078000
001FE0000F0000
003FC0000E0000
003F0000080000
007E0000000000
00FE0000000000
00FC0000000000
01F80000000000
01F00000000000
03E00000000000
07E00000000000
07C00000000000
0F800000000000
0F800000000000
0F000000000000
1F000000000000
1F000000000000
3E000000000000
3E000000000000
3E000000000000
7C000000000000
7C000000000000
7C000000000000
7C000000000000
7C000000000000
FC000000000000
FC000000000000
FC000000000000
FC000000000000
FC000000000000
FC000000000000
FC000000000000
FC000000000000
FC000000000000
FC000000000000
7C000000000000
7C000000000000
7E000000000000
7E000000000000
7E000000000000
7E000000000000
3F000000000000
3F000000000000
3F000000000000
1F800000000000
1F800000000000
1FC00000000000
0FE00000000000
0FE00000000000
07F000000007FE
07F8000000FFFE
03FE00001FFFFE
03FF8003FFFFFC
01FFFFFFFFFFF8
00FFFFFFFFFFE0
007FFFFFFFFF80
003FFFFFFFF800
001FFFFFFF0000
000FFFFFE00000
0003FFFC000000
0001FFC0000000
0001F000000000
0001F000000000
0001F000000000
0001F000000000
0001F000000000
0001F000000000
0001F000000000
0001F800000000
0000F800000000
0000FC00000000
00007F00000000
00007FE0000000
00003FFF800000
00001FFFF00000
000007FFFE0000
000000FFFF0000
0000000FFF8000
000000007FC000
000000001FC000
000000000FE000
0000000007E000
0000000007E000
0000000007E000
0000000007F000
0007E00007F000
0003F00007F000
0003FC0007E000
0001FE0007E000
0000FF0007E000
00007FC00FC000
00007FF07FC000
00003FFFFF8000
00001FFFFF0000
000007FFFC0000
000003FFF00000
0000007F000000
ENDCHAR
STARTCHAR Egrave
ENCODING 200
SWIDTH 524 0
DWIDTH 61 0
BBX 54 93 2 0
BITMAP
00000E00000000
00000FC0000000
00000FF0000000
000007F8000000
000007FC000000
000003FE000000
000001FF000000
000000FF800000
0000007FC00000
0000003FE00000
0000001FF00000
0000000FF00000
00000003E00000
00000001E00000
00000000000000
00000000000000
00000000000000
00000000000000
00000000000000
00000000000000
00000000000000
1FFFFFFFFFFC00
3FFFFFFFFFFF00
3FFFFFFFFFFFC0
3FFFFFFFFFFFE0
3FFFFFFFFFFFE0
3FFFFFFFFFFFF0
3FFFFFC00001F0
3F000000000070
3F800000000000
3F800000000000
3F800000000000
3F800000000000
3F800000000000
3F800000000000
3F800000000000
3F800000000000
3F800000000000
3F800000000000
3F800000000000
3F800000000000
3F800000000000
3F800000000000
3F800000000000
3F800000000000
3F800000000000
3F800000000040
3F80000003FFC0
3F800000FFFF80
3F80003FFFFF80
3F801FFFFFFE00
7FFFFFFFFFFC00
FFFFFFFFFFE000
FFFFFFFFFF0000
FFFFFFFFC00000
7FFFFF00000000
7FF80000000000
7F000000000000
7F000000000000
7E000000000000
7E000000000000
7E000000000000
7E000000000000
7E000000000000
7E000000000000
7E000000000000
7E000000000000
7E000000000000
7E000000000000
7E000000000000
FE000000000000
FE000000000000
FE000000000000
FE000000000000
FE000000000000
FE000000000000
FE000000000000
FE000000000000
FE000000000000
FE000000000000
FE000000000000
7E000000000000
7E000000000000
7E000000007FE0
7F000001FFFFF8
3FF07FFFFFFFFC
3FFFFFFFFFFFFC
1FFFFFFFFFFFF8
0FFFFFFFFFFFF0
07FFFFFFFFFFC0
03FFFFFFFFFF00
00FFFFFFFFF000
000FFFFFF00000
ENDCHAR
STARTCHAR Eacute
ENCODING 201
SWIDTH 524 0
DWIDTH 61 0
BBX 54 92 2 0
BITMAP
00000000C00000
00000003E00000
00000007E00000
0000001FE00000
0000003FC00000
000000FF800000
000001FF000000
000003FE000000
000007FC000000
00000FF8000000
00001FF0000000
00003FE0000000
00007FC0000000
00007F00000000
00007E00000000
00007C00000000
00007800000000
00003000000000
00000000000000
00000000000000
1FFFFFFFFFFC00
3FFFFFFFFFFF00
3FFFFFFFFFFFC0
3FFFFFFFFFFFE0
3FFFFFFFFFFFE0
3FFFFFFFFFFFF0
3FFFFFC00001F0
3F000000000070
3F800000000000
3F800000000000
3F800000000000
3F800000000000
3F800000000000
3F800000000000
3F800000000000
3F800000000000
3F800000000000
3F800000000000
3F800000000000
3F800000000000
3F800000000000
3F800000000000
3F800000000000
3F800000000000
3F800000000000
3F800000000040
3F80000003FFC0
3F800000FFFF80
3F80003FFFFF80
3F801FFFFFFE00
7FFFFFFFFFFC00
FFFFFFFFFFE000
FFFFFFFFFF0000
FFFFFFFFC00000
7FFFFF00000000
7FF80000000000
7F000000000000
7F000000000000
7E000000000000
7E000000000000
7E000000000000
7E000000000000
7E000000000000
7E000000000000
7E000000000000
7E000000000000
7E000000000000
7E000000000000
7E000000000000
FE000000000000
FE000000000000
FE000000000000
FE000000000000
FE000000000000
FE000000000000
FE000000000000
FE000000000000
FE000000000000
FE000000000000
FE000000000000
7E000000000000
7E000000000000
7E000000007FE0
7F000001FFFFF8
3FF07FFFFFFFFC
3FFFFFFFFFFFFC
1FFFFFFFFFFFF8
0FFFFFFFFFFFF0
07FFFFFFFFFFC0
03FFFFFFFFFF00
00FFFFFFFFF000
000FFFFFF00000
ENDCHAR
STARTCHAR Ecircumflex
ENCODING 202
SWIDTH 524 0
DWIDTH 61 0
BBX 54 104 2 0
BITMAP
0000000C000000
0000001F000000
0000001F800000
0000003F800000
0000003FC00000
0000003FE00000
0000007FF00000
0000007FF00000
0000007FF80000
000000FFFC0000
000001FFFE0000
000001FFFF0000
000003FFFF8000
000007FFFFC000
00000FF3FFC000
00001FF0FFE000
00003FE07FF000
0000FFC03FF000
0001FF801FF000
0003FF000FF800
0007FE000FF800
0007FC0007F800
0003F80003F800
0003E00001F000
00000000002000
00000000000000
00000000000000
00000000000000
00000000000000
00000000000000
00000000000000
00000000000000
1FFFFFFFFFFC00
3FFFFFFFFFFF00
3FFFFFFFFFFFC0
3FFFFFFFFFFFE0
3FFFFFFFFFFFE0
3FFFFFFFFFFFF0
3FFFFFC00001F0
3F000000000070
3F800000000000
3F800000000000
3F800000000000
3F800000000000
3F800000000000
3F800000000000
3F800000000000
3F800000000000
3F800000000000
3F800000000000
3F800000000000
3F800000000000
3F800000000000
3F800000000000
3F800000000000
3F800000000000
3F800000000000
3F800000000040
3F80000003FFC0
3F800000FFFF80
3F80003FFFFF80
3F801FFFFFFE00
7FFFFFFFFFFC00
FFFFFFFFFFE000
FFFFFFFFFF0000
FFFFFFFFC00000
7FFFFF00000000
7FF80000000000
7F000000000000
7F000000000000
7E000000000000
7E000000000000
7E000000000000
7E000000000000
7E000000000000
7E000000000000
7E000000000000
7E000000000000
7E000000000000
7E000000000000
7E000000000000
FE000000000000
FE000000000000
FE000000000000
FE000000000000
FE000000000000
FE000000000000
FE000000000000
FE000000000000
FE000000000000
FE000000000000
FE000000000000
7E000000000000
7E000000000000
7E000000007FE0
7F000001FFFFF8
3FF07FFFFFFFFC
3FFFFFFFFFFFFC
1FFFFFFFFFFFF8
0FFFFFFFFFFFF0
07FFFFFFFFFFC0
03FFFFFFFFFF00
00FFFFFFFFF000
000FFFFFF00000
ENDCHAR
STARTCHAR Edieresis
ENCODING 203
SWIDTH 524 0
DWIDTH 61 0
BBX 54 89 2 0
BITMAP
0000FC001F0000
0001FE003F8000
0001FF007FC000
0003FF00FFE000
0007FF80FFE000
0007FF81FFE000
0007FF80FFE000
0003FF00FFE000
0001FF007FC000
0001FC003F8000
000070001E0000
00000000000000
00000000000000
00000000000000
00000000000000
00000000000000
00000000000000
1FFFFFFFFFFC00
3FFFFFFFFFFF00
3FFFFFFFFFFFC0
3FFFFFFFFFFFE0
3FFFFFFFFFFFE0
3FFFFFFFFFFFF0
3FFFFFC00001F0
3F000000000070
3F800000000000
3F800000000000
3F800000000000
3F800000000000
3F800000000000
3F800000000000
3F800000000000
3F800000000000
3F800000000000
3F800000000000
3F800000000000
3F800000000000
3F800000000000
3F800000000000
3F800000000000
3F800000000000
3F800000000000
3F800000000040
3F80000003FFC0
3F800000FFFF80
3F80003FFFFF80
3F801FFFFFFE00
7FFFFFFFFFFC00
FFFFFFFFFFE000
FFFFFFFFFF0000
FFFFFFFFC00000
7FFFFF00000000
7FF80000000000
7F000000000000
7F000000000000
7E000000000000
7E000000000000
7E000000000000
7E000000000000
7E000000000000
7E000000000000
7E000000000000
7E000000000000
7E000000000000
7E000000000000
7E000000000000
FE000000000000
FE000000000000
FE000000000000
FE000000000000
FE000000000000
FE000000000000
FE000000000000
FE000000000000
FE000000000000
FE000000000000
FE000000000000
7E000000000000
7E000000000000
7E000000007FE0
7F000001FFFFF8
3FF07FFFFFFFFC
3FFFFFFFFFFFFC
1FFFFFFFFFFFF8
0FFFFFFFFFFFF0
07FFFFFFFFFFC0
03FFFFFFFFFF00
00FFFFFFFFF000
000FFFFFF00000
ENDCHAR
STARTCHAR Igrave
ENCODING 204
SWIDTH 167 0
DWIDTH 20 0
BBX 20 89 -2 0
BITMAP
E00000
FC0000
FF0000
7F8000
7FC000
3FE000
1FF000
0FF800
07FC00
03FE00
01FF00
00FF00
003E00
001E00
000000
000000
000000
000000
000000
000000
000000
000000
000000
000000
0E0000
0E0000
0F0000
0F8000
0F8000
0FC000
0FC000
0FC000
07E000
07E000
07E000
07F000
07F000
03F000
03F000
03F800
03F800
01F800
01F800
01FC00
00FC00
00FC00
00FC00
00FC00
007E00
007E00
007E00
007E00
007E00
007F00
003F00
003F00
003F00
003F00
003F00
003F80
003F80
003F80
003F80
001F80
001F80
001F80
001FC0
001FC0
001FC0
001FC0
001FC0
001FC0
000FC0
000FE0
000FE0
000FE0
000FE0
000FE0
000FE0
000FE0
000FE0
0007E0
0007F0
0007F0
0007F0
0007F0
0003F0
0001E0
0000E0
ENDCHAR
STARTCHAR Iacute
ENCODING 205
SWIDTH 167 0
DWIDTH 20 0
BBX 21 86 -3 0
BITMAP
000180
0003C0
000FC0
001FC0
007F80
00FF00
03FF00
07FE00
0FF800
1FF000
3FE000
7FC000
7F8000
FF0000
FE0000
FC0000
F00000
600000
000000
000000
000000
070000
070000
078000
07C000
07C000
07E000
07E000
07E000
03F000
03F000
03F000
03F800
03F800
01F800
01F800
01FC00
01FC00
00FC00
00FC00
00FE00
007E00
007E00
007E00
007E00
003F00
003F00
003F00
003F00
003F00
003F80
001F80
001F80
001F80
001F80
001F80
001FC0
001FC0
001FC0
001FC0
000FC0
000FC0
000FC0
000FE0
000FE0
000FE0
000FE0
000FE0
000FE0
0007E0
0007F0
0007F0
0007F0
0007F0
0007F0
0007F0
0007F0
0007F0
0003F0
0003F8
0003F8
0003F8
0003F8
0001F8
0000F0
000070
ENDCHAR
STARTCHAR Icircumflex
ENCODING 206
SWIDTH 167 0
DWIDTH 20 0
BBX 32 104 -6 0
BITMAP
00018000
0003E000
0003F000
0003F800
0007F800
0007FC00
0007FE00
000FFF00
000FFF80
001FFFC0
001FFFC0
003FFFE0
007FFFF0
00FFFFF8
01FF3FFC
03FE1FFC
07FC0FFE
0FF807FE
1FF003FF
3FE001FF
FFC000FF
7F80007F
7F00003F
3E00001F
00000004
00000000
00000000
00000000
00000000
00000000
00000000
00000000
00000000
00000000
00000000
00000000
00000000
00000000
00000000
00E00000
00E00000
00F00000
00F80000
00F80000
00FC0000
00FC0000
00FC0000
007E0000
007E0000
007E0000
007F0000
007F0000
003F0000
003F0000
003F8000
003F8000
001F8000
001F8000
001FC000
000FC000
000FC000
000FC000
000FC000
0007E000
0007E000
0007E000
0007E000
0007E000
0007F000
0003F000
0003F000
0003F000
0003F000
0003F000
0003F800
0003F800
0003F800
0003F800
0001F800
0001F800
0001F800
0001FC00
0001FC00
0001FC00
0001FC00
0001FC00
0001FC00
0000FC00
0000FE00
0000FE00
0000FE00
0000FE00
0000FE00
0000FE00
0000FE00
0000FE00
00007E00
00007F00
00007F00
00007F00
00007F00
00003F00
00001E00
00000E00
ENDCHAR
STARTCHAR Idieresis
ENCODING 207
SWIDTH 167 0
DWIDTH 20 0
BBX 30 79 -12 0
BITMAP
1F0007E0
3FC00FF0
7FE01FF8
7FE01FF8
FFE03FFC
FFF03FFC
FFE03FFC
FFE01FF8
7FC01FF0
3F800FE0
0E000380
00000000
00000000
00000000
00038000
00038000
0003C000
0003E000
0003E000
0003F000
0003F000
0003F000
0001F800
0001F800
0001F800
0001FC00
0001FC00
0000FC00
0000FC00
0000FE00
0000FE00
00007E00
00007E00
00007F00
00003F00
00003F00
00003F00
00003F00
00001F80
00001F80
00001F80
00001F80
00001F80
00001FC0
00000FC0
00000FC0
00000FC0
00000FC0
00000FC0
00000FE0
00000FE0
00000FE0
00000FE0
000007E0
000007E0
000007E0
000007F0
000007F0
000007F0
000007F0
000007F0
000007F0
000003F0
000003F8
000003F8
000003F8
000003F8
000003F8
000003F8
000003F8
000003F8
000001F8
000001FC
000001FC
000001FC
000001FC
000000FC
00000078
00000038
ENDCHAR
STARTCHAR Eth
ENCODING 208
SWIDTH 741 0
DWIDTH 87 0
BBX 81 75 2 -1
BITMAP
0000038000000000000000
0007FFFFC0000000000000
00FFFFFFFE000000000000
07FFFFFFFFE00000000000
1FFFFFFFFFFC0000000000
7FFFFFFFFFFF8000000000
7FFFFFFFFFFFE000000000
FFFFC003FFFFF800000000
FFC00001FFFFFE00000000
7C000001FE7FFF80000000
70000001FE07FFE0000000
40000001FE01FFF8000000
00000000FE007FFC000000
00000000FE001FFF000000
00000000FE0007FF800000
00000000FF0001FFC00000
000000007F00007FE00000
000000007F00003FF80000
000000007F00001FFC0000
000000007F000007FE0000
000000007F000003FF0000
000000007F000001FF8000
000000003F000000FF8000
000000003F0000007FC000
000000003F0000003FE000
000000003F8000001FF000
000000003F8000000FF000
000000003F80000007F800
000000001F80000007F800
000000001F80000003FC00
000000001F80000001FC00
000000001F87FF8001FE00
00000001FFFFFFE000FE00
0000000FFFFFFFF000FF00
0000001FFFFFFFF8007F00
0000007FFFFFFFF8007F00
0000007FFFFFFFFC003F80
000000FFFFFFFFF8003F80
000000FFFFC001F8003F80
000000FFC7C00000003F80
0000000007C00000001F80
0000000007E00000001F80
0000000007E00000001F80
0000000007E00000001F80
0000000007E00000001F80
0000000007F00000001F80
0000000007F00000001F80
0000000007F00000003F80
0000000007F00000003F80
0000000003F80000003F80
0000000003F80000003F80
0000000003F80000007F80
0000000003F80000007F00
0000000003F8000000FF00
0000000003F8000001FF00
0000000003F0000001FE00
0000000003F0000003FE00
0000000003F0000007FC00
0000000003F000000FFC00
0000000003F000001FF800
0000000003F000003FF800
0000000003F000007FF000
0000000003E00000FFE000
0000000001000003FFE000
0000001C0000000FFFC000
0000001FC000003FFF8000
0000003FF80000FFFF0000
0000001FFF8007FFFC0000
0000001FFFFFFFFFF80000
0000001FFFFFFFFFE00000
0000000FFFFFFFFFC00000
00000003FFFFFFFF000000
00000000FFFFFFF8000000
000000003FFFFFE0000000
0000000003FFFC00000000
ENDCHAR
STARTCHAR Ntilde
ENCODING 209
SWIDTH 609 0
DWIDTH 71 0
BBX 65 81 3 0
BITMAP
00001FE00000780000
00007FF80000FC0000
0000FFFE0001FC0000
0001FFFF0003F80000
0003FF7FC00FF00000
0003F81FF01FE00000
0007F007FFFFC00000
0007E003FFFF000000
0007C001FFFE000000
0007C0007FFC000000
0007C0003FF8000000
0007C0000FF0000000
0007C0000000000000
0003C0000000000000
0001C0000000000000
0000C0000000000000
000000000000000000
000000000000000000
060000000000000000
3E0000000000000000
7E0000000000000000
7F0000000000000000
3F0000000000000000
3F0000000000F00000
3F0000000001F80000
3F8000000001FC0000
3F8000000001FE0000
3F8000000001FE0000
1F8000000000FF0000
1FC000000000FF8000
1FC000000000FF8000
1FC000000000FFC000
1FE0000000007FC000
1FE0000000007FE000
1FE0000000007FE000
1FF0000000003FF000
1FF0000000001FF000
1FF0000000001FF000
1FF8000000000FF800
3FF8000000000FF800
3FF80000000007F800
3FFC0000000007FC00
3FFC0000000003FC00
3FFC0000000003FC00
3FFE0000000001FE00
3FFE0000000001FE00
3FFF0000000000FE00
3FFF0000000000FE00
3FFF80000000007F00
3FFF80000000007F00
3FFFC0000000003F00
3F9FC0000000003F00
3F0FE0000000003F80
7E0FE0000000003F80
7E07F0000000003F80
7E03F0000000001F80
7E03F8000000001F80
7E01FC000000001F80
7E01FC000000003F80
7E00FE000000003F80
7E007F000000003F80
7E007F000000003F80
7E003F800000003F80
7E003FC00000007F80
7E001FE00000007F00
7E000FF00000007F00
FE0007F8000000FF00
FF0007FE000001FE00
FF0003FF000001FE00
FF0001FFC00007FC00
FF0000FFE0000FFC00
FF00007FFC003FF800
FF00003FFFFFFFF000
FF00001FFFFFFFE000
FF00000FFFFFFFC000
FF000003FFFFFF8000
7F000001FFFFFE0000
7F0000007FFFFC0000
7E0000001FFFE00000
3E00000001FE000000
1C0000000000000000
ENDCHAR
STARTCHAR Ograve
ENCODING 210
SWIDTH 609 0
DWIDTH 71 0
BBX 66 83 2 0
BITMAP
0000001E0000000000
0000001F8000000000
0000000FE000000000
0000000FF000000000
00000007F800000000
00000007FE00000000
00000003FF00000000
00000001FF80000000
00000000FFC0000000
000000003FE0000000
000000001FE0000000
000000000FE0000000
0000000007E0000000
0000000001C0000000
000000000000000000
000000000000000000
000000000000000000
000000000000000000
000000000000000000
000000000000000000
000000000000000000
000000000000000000
000000000000000000
000000000000000000
000000000000000000
000000000000000000
000006000000000000
0000FFF00000000000
0007FFFF0000000000
001FFFFFE000000000
003FFFFFFC00000000
00FFFFFFFF00000000
01FFFFFFFFC0000000
03FF80FFFFF0000000
07FE0007FFFC000000
07F800007FFF000000
0FF000001FFF800000
1FE0000003FFE00000
1FC0000000FFF00000
3F800000003FF80000
3F000000001FFC0000
3F0000000007FE0000
7E0000000003FF0000
7E0000000000FF8000
7C00000000007FC000
FC00000000003FE000
FC00000000001FF000
FC00000000000FF000
FC000000000007F800
FC000000000003FC00
FC000000000003FC00
FC000000000001FE00
FC000000000000FE00
FC000000000000FF00
FC0000000000007F00
FC0000000000007F00
7C0000000000003F80
7E0000000000003F80
7E0000000000003F80
7E0000000000001F80
7F0000000000001FC0
3F0000000000001FC0
3F8000000000001FC0
3FC000000000001FC0
1FC000000000001FC0
1FE000000000001FC0
0FF000000000001FC0
0FF800000000003F80
07FC00000000007F80
07FE0000000000FF00
03FF0000000001FF00
01FFC000000003FE00
00FFE00000000FFC00
00FFF80000003FF800
003FFE000001FFF000
001FFFC0001FFFE000
000FFFF803FFFFC000
0007FFFFFFFFFF0000
0001FFFFFFFFFC0000
00007FFFFFFFE00000
00001FFFFFFF000000
000003FFFFF0000000
0000003FF800000000
ENDCHAR
STARTCHAR Oacute
ENCODING 211
SWIDTH 609 0
DWIDTH 71 0
BBX 66 82 2 0
BITMAP
000000000600000000
000000000F00000000
000000003F00000000
000000007F00000000
00000001FE00000000
00000003FE00000000
00000007FC00000000
0000001FF800000000
0000003FF000000000
0000007FE000000000
000000FF8000000000
000000FF0000000000
000001FE0000000000
000001FC0000000000
000003F80000000000
000003F00000000000
000003E00000000000
000001C00000000000
000000000000000000
000000000000000000
000000000000000000
000000000000000000
000000000000000000
000000000000000000
000000000000000000
000006000000000000
0000FFF00000000000
0007FFFF0000000000
001FFFFFE000000000
003FFFFFFC00000000
00FFFFFFFF00000000
01FFFFFFFFC0000000
03FF80FFFFF0000000
07FE0007FFFC000000
07F800007FFF000000
0FF000001FFF800000
1FE0000003FFE00000
1FC0000000FFF00000
3F800000003FF80000
3F000000001FFC0000
3F0000000007FE0000
7E0000000003FF0000
7E0000000000FF8000
7C00000000007FC000
FC00000000003FE000
FC00000000001FF000
FC00000000000FF000
FC000000000007F800
FC000000000003FC00
FC000000000003FC00
FC000000000001FE00
FC000000000000FE00
FC000000000000FF00
FC0000000000007F00
FC0000000000007F00
7C0000000000003F80
7E0000000000003F80
7E0000000000003F80
7E0000000000001F80
7F0000000000001FC0
3F0000000000001FC0
3F8000000000001FC0
3FC000000000001FC0
1FC000000000001FC0
1FE000000000001FC0
0FF000000000001FC0
0FF800000000003F80
07FC00000000007F80
07FE0000000000FF00
03FF0000000001FF00
01FFC000000003FE00
00FFE00000000FFC00
00FFF80000003FF800
003FFE000001FFF000
001FFFC0001FFFE000
000FFFF803FFFFC000
0007FFFFFFFFFF0000
0001FFFFFFFFFC0000
00007FFFFFFFE00000
00001FFFFFFF000000
000003FFFFF0000000
0000003FF800000000
ENDCHAR
STARTCHAR Ocircumflex
ENCODING 212
SWIDTH 609 0
DWIDTH 71 0
BBX 66 90 2 0
BITMAP
000003800000000000
000003E00000000000
000007E00000000000
000007F00000000000
000007F80000000000
00000FFC0000000000
00000FFC0000000000
00000FFE0000000000
00001FFF0000000000
00001FFF8000000000
00003FFFC000000000
00007FFFE000000000
00007FFFE000000000
0000FFFFF000000000
0001FE7FF800000000
0007FC3FFC00000000
000FF80FFC00000000
001FF80FFE00000000
003FF007FE00000000
007FE003FE00000000
00FFC001FE00000000
00FF8000FE00000000
00FE00007E00000000
007C00003E00000000
000000000800000000
000000000000000000
000000000000000000
000000000000000000
000000000000000000
000000000000000000
000000000000000000
000000000000000000
000000000000000000
000006000000000000
0000FFF00000000000
0007FFFF0000000000
001FFFFFE000000000
003FFFFFFC00000000
00FFFFFFFF00000000
01FFFFFFFFC0000000
03FF80FFFFF0000000
07FE0007FFFC000000
07F800007FFF000000
0FF000001FFF800000
1FE0000003FFE00000
1FC0000000FFF00000
3F800000003FF80000
3F000000001FFC0000
3F0000000007FE0000
7E0000000003FF0000
7E0000000000FF8000
7C00000000007FC000
FC00000000003FE000
FC00000000001FF000
FC00000000000FF000
FC000000000007F800
FC000000000003FC00
FC000000000003FC00
FC000000000001FE00
FC000000000000FE00
FC000000000000FF00
FC0000000000007F00
FC0000000000007F00
7C0000000000003F80
7E0000000000003F80
7E0000000000003F80
7E0000000000001F80
7F0000000000001FC0
3F0000000000001FC0
3F8000000000001FC0
3FC000000000001FC0
1FC000000000001FC0
1FE000000000001FC0
0FF000000000001FC0
0FF800000000003F80
07FC00000000007F80
07FE0000000000FF00
03FF0000000001FF00
01FFC000000003FE00
00FFE00000000FFC00
00FFF80000003FF800
003FFE000001FFF000
001FFFC0001FFFE000
000FFFF803FFFFC000
0007FFFFFFFFFF0000
0001FFFFFFFFFC0000
00007FFFFFFFE00000
00001FFFFFFF000000
000003FFFFF0000000
0000003FF800000000
ENDCHAR
STARTCHAR Otilde
ENCODING 213
SWIDTH 609 0
DWIDTH 71 0
BBX 66 76 2 0
BITMAP
0003F800000F000000
000FFE00001F000000
001FFF80007F800000
003FFFE000FF000000
007FCFF801FE000000
007E03FE03F8000000
00FC01FFFFF0000000
00FC007FFFE0000000
00F8003FFFC0000000
00F8001FFF80000000
00F80007FF00000000
00F80001FE00000000
00F800000000000000
00F800000000000000
007800000000000000
003000000000000000
000000000000000000
000000000000000000
000000000000000000
000006000000000000
0000FFF00000000000
0007FFFF0000000000
001FFFFFE000000000
003FFFFFFC00000000
00FFFFFFFF00000000
01FFFFFFFFC0000000
03FF80FFFFF0000000
07FE0007FFFC000000
07F800007FFF000000
0FF000001FFF800000
1FE0000003FFE00000
1FC0000000FFF00000
3F800000003FF80000
3F000000001FFC0000
3F0000000007FE0000
7E0000000003FF0000
7E0000000000FF8000
7C00000000007FC000
FC00000000003FE000
FC00000000001FF000
FC00000000000FF000
FC000000000007F800
FC000000000003FC00
FC000000000003FC00
FC000000000001FE00
FC000000000000FE00
FC000000000000FF00
FC0000000000007F00
FC0000000000007F00
7C0000000000003F80
7E0000000000003F80
7E0000000000003F80
7E0000000000001F80
7F0000000000001FC0
3F0000000000001FC0
3F8000000000001FC0
3FC000000000001FC0
1FC000000000001FC0
1FE000000000001FC0
0FF000000000001FC0
0FF800000000003F80
07FC00000000007F80
07FE0000000000FF00
03FF0000000001FF00
01FFC000000003FE00
00FFE00000000FFC00
00FFF80000003FF800
003FFE000001FFF000
001FFFC0001FFFE000
000FFFF803FFFFC000
0007FFFFFFFFFF0000
0001FFFFFFFFFC0000
00007FFFFFFFE00000
00001FFFFFFF000000
000003FFFFF0000000
0000003FF800000000
ENDCHAR
STARTCHAR Odieresis
ENCODING 214
SWIDTH 609 0
DWIDTH 71 0
BBX 66 79 2 0
BITMAP
000003E000F8000000
000007F801FE000000
00000FF803FF000000
00001FFC03FF000000
00001FFC07FF000000
00001FFC07FF800000
00001FFC07FF800000
00001FFC03FF000000
00000FF803FE000000
000007F001FC000000
000003C00070000000
000000000000000000
000000000000000000
000000000000000000
000000000000000000
000000000000000000
000000000000000000
000000000000000000
000000000000000000
000000000000000000
000000000000000000
000000000000000000
000006000000000000
0000FFF00000000000
0007FFFF0000000000
001FFFFFE000000000
003FFFFFFC00000000
00FFFFFFFF00000000
01FFFFFFFFC0000000
03FF80FFFFF0000000
07FE0007FFFC000000
07F800007FFF000000
0FF000001FFF800000
1FE0000003FFE00000
1FC0000000FFF00000
3F800000003FF80000
3F000000001FFC0000
3F0000000007FE0000
7E0000000003FF0000
7E0000000000FF8000
7C00000000007FC000
FC00000000003FE000
FC00000000001FF000
FC00000000000FF000
FC000000000007F800
FC000000000003FC00
FC000000000003FC00
FC000000000001FE00
FC000000000000FE00
FC000000000000FF00
FC0000000000007F00
FC0000000000007F00
7C0000000000003F80
7E0000000000003F80
7E0000000000003F80
7E0000000000001F80
7F0000000000001FC0
3F0000000000001FC0
3F8000000000001FC0
3FC000000000001FC0
1FC000000000001FC0
1FE000000000001FC0
0FF000000000001FC0
0FF800000000003F80
07FC00000000007F80
07FE0000000000FF00
03FF0000000001FF00
01FFC000000003FE00
00FFE00000000FFC00
00FFF80000003FF800
003FFE000001FFF000
001FFFC0001FFFE000
000FFFF803FFFFC000
0007FFFFFFFFFF0000
0001FFFFFFFFFC0000
00007FFFFFFFE00000
00001FFFFFFF000000
000003FFFFF0000000
0000003FF800000000
ENDCHAR
STARTCHAR multiply
ENCODING 215
SWIDTH 448 0
DWIDTH 52 0
BBX 34 31 6 7
BITMAP
0C00000100
3E00000780
7F00000FC0
FF80001FC0
FFC0007FC0
7FC000FFC0
1FE001FF80
0FF803FE00
07FC0FFC00
03FF3FF000
01FFFFE000
01FFFFC000
00FFFF0000
007FFE0000
003FFC0000
001FF80000
000FFC0000
001FFE0000
001FFF0000
003FFF8000
007FFFC000
00FF3FE000
01FE1FF000
03FC0FF800
07F807FC00
07F003FE00
0FF001FE00
0FE001FC00
1FC000F800
0F80006000
0700000000
ENDCHAR
STARTCHAR Oslash
ENCODING 216
SWIDTH 609 0
DWIDTH 71 0
BBX 66 88 2 -12
BITMAP
000000000030000000
000000000078000000
000000000078000000
0000000000FC000000
0000000000FC000000
0000000000FC000000
0000000001F8000000
0000000001F8000000
0000000001F8000000
0000000001F8000000
0000000001F8000000
0000000003F0000000
0000000003F0000000
0000000003F0000000
0000000003F0000000
0000000003E0000000
0000000007E0000000
0000000007E0000000
0000000007E0000000
000006000FC0000000
0000FFF00FC0000000
0007FFFF0FC0000000
001FFFFFFF80000000
003FFFFFFF80000000
00FFFFFFFF80000000
01FFFFFFFFC0000000
03FF80FFFFF0000000
07FE0007FFFC000000
07F80000FFFF000000
0FF000007FFF800000
1FE00000FFFFE00000
1FC00000FEFFF00000
3F800000FC3FF80000
3F000001FC1FFC0000
3F000001FC07FE0000
7E000003F803FF0000
7E000003F800FF8000
7C000003F8007FC000
FC000007F0003FE000
FC000007F0001FF000
FC000007F0000FF000
FC00000FE00007F800
FC00000FE00003FC00
FC00000FE00003FC00
FC00001FC00001FE00
FC00001FC00000FE00
FC00003FC00000FF00
FC00003F8000007F00
FC00003F8000007F00
7C00007F8000003F80
7E00007F0000003F80
7E00007F0000003F80
7E0000FF0000001F80
7F0000FE0000001FC0
3F0000FE0000001FC0
3F8001FE0000001FC0
3FC001FC0000001FC0
1FC003FC0000001FC0
1FE003FC0000001FC0
0FF003F80000001FC0
0FF807F80000003F80
07FC07F00000007F80
07FE07F0000000FF00
03FF0FF0000001FF00
01FFCFE0000003FE00
00FFEFE000000FFC00
00FFFFE000003FF800
007FFFC00001FFF000
001FFFC0001FFFE000
000FFFF803FFFFC000
0007FFFFFFFFFF0000
0001FFFFFFFFFC0000
0000FFFFFFFFE00000
0000FFFFFFFF000000
0001FFFFFFF0000000
0001FE3FF800000000
0003FC000000000000
0003FC000000000000
0003FC000000000000
0007F8000000000000
0007F8000000000000
0007F0000000000000
0007F0000000000000
0007E0000000000000
0007E0000000000000
0007C0000000000000
000780000000000000
000380000000000000
ENDCHAR
STARTCHAR Ugrave
ENCODING 217
SWIDTH 571 0
DWIDTH 67 0
BBX 62 83 3 0
BITMAP
000000F000000000
000000FC00000000
0000007F00000000
0000007F80000000
0000003FC0000000
0000003FE0000000
0000001FF8000000
0000000FFC000000
00000007FE000000
00000001FF000000
00000000FF000000
000000007F000000
000000003F000000
000000001E000000
0000000000000000
0000000000000000
0000000000000000
0000000000000000
0000000000000000
0180000000000000
07C0000000010000
0FE0000000038000
1FE0000000038000
3FC000000007C000
3FC000000007C000
3F8000000007E000
7E0000000007E000
7E000000000FE000
7C000000000FE000
7C000000000FE000
7C000000000FF000
FC000000000FF000
FC000000000FF000
FC000000000FF000
FC000000000FF000
FC000000000FF000
FC000000000FF000
FC000000000FF000
FC0000000007F000
FC0000000007F000
FC0000000007F000
FC0000000007F000
FC0000000007F000
FC0000000003F000
FC0000000003F000
7C0000000003F000
7C0000000003F800
7C0000000001F800
7C0000000001F800
7E0000000001F800
7E0000000001FC00
7E0000000000FC00
7E0000000000FC00
3E0000000000FE00
3E0000000000FE00
3F0000000000FE00
3F00000000007F00
3F00000000007F00
1F00000000007F00
1F8000000000FF80
1F8000000000FF80
1F8000000000FF80
0FC000000001FFC0
0FC000000001FFC0
0FE000000003FFE0
07E000000007FFE0
07F00000000FFFE0
07F80000001FFFF0
03F80000003FFFF0
03FC0000007FFFF0
01FE000001FFFFF8
01FF000003FF0FF8
00FF80000FFC07F8
007FC0003FF807FC
007FF801FFE003FC
003FFFFFFFC003FC
001FFFFFFF0001FC
000FFFFFFE0000FC
0007FFFFF80000FC
0003FFFFE0000010
0001FFFFC0000000
00007FFE00000000
00000FF800000000
ENDCHAR
STARTCHAR Uacute
ENCODING 218
SWIDTH 571 0
DWIDTH 67 0
BBX 62 82 3 0
BITMAP
0000000030000000
0000000078000000
00000001F8000000
00000003F8000000
0000000FF0000000
0000001FF0000000
0000007FE0000000
000000FFC0000000
000001FF80000000
000003FE00000000
000007FC00000000
00000FF800000000
00000FF000000000
00001FE000000000
00001FC000000000
00001F8000000000
00001F0000000000
00000C0000000000
0180000000000000
07C0000000010000
0FE0000000038000
1FE0000000038000
3FC000000007C000
3FC000000007C000
3F8000000007E000
7E0000000007E000
7E000000000FE000
7C000000000FE000
7C000000000FE000
7C000000000FF000
FC000000000FF000
FC000000000FF000
FC000000000FF000
FC000000000FF000
FC000000000FF000
FC000000000FF000
FC000000000FF000
FC0000000007F000
FC0000000007F000
FC0000000007F000
FC0000000007F000
FC0000000007F000
FC0000000003F000
FC0000000003F000
7C0000000003F000
7C0000000003F800
7C0000000001F800
7C0000000001F800
7E0000000001F800
7E0000000001FC00
7E0000000000FC00
7E0000000000FC00
3E0000000000FE00
3E0000000000FE00
3F0000000000FE00
3F00000000007F00
3F00000000007F00
1F00000000007F00
1F8000000000FF80
1F8000000000FF80
1F8000000000FF80
0FC000000001FFC0
0FC000000001FFC0
0FE000000003FFE0
07E000000007FFE0
07F00000000FFFE0
07F80000001FFFF0
03F80000003FFFF0
03FC0000007FFFF0
01FE000001FFFFF8
01FF000003FF0FF8
00FF80000FFC07F8
007FC0003FF807FC
007FF801FFE003FC
003FFFFFFFC003FC
001FFFFFFF0001FC
000FFFFFFE0000FC
0007FFFFF80000FC
0003FFFFE0000010
0001FFFFC0000000
00007FFE00000000
00000FF800000000
ENDCHAR
STARTCHAR Ucircumflex
ENCODING 219
SWIDTH 571 0
DWIDTH 67 0
BBX 62 104 3 0
BITMAP
0000000700000000
00000007C0000000
0000000FC0000000
0000000FE0000000
0000000FF0000000
0000001FF8000000
0000001FF8000000
0000001FFC000000
0000003FFE000000
0000003FFF000000
0000007FFF800000
000000FFFFC00000
000000FFFFC00000
000001FFFFE00000
000003FCFFF00000
00000FF87FF80000
00001FF01FF80000
00003FF01FFC0000
00007FE00FFC0000
0000FFC007FC0000
0001FF8003FC0000
0001FF0001FC0000
0001FC0000FC0000
0000F800007C0000
0000000000100000
0000000000000000
0000000000000000
0000000000000000
0000000000000000
0000000000000000
0000000000000000
0000000000000000
0000000000000000
0000000000000000
0000000000000000
0000000000000000
0000000000000000
0000000000000000
0000000000000000
0000000000000000
0180000000000000
07C0000000010000
0FE0000000038000
1FE0000000038000
3FC000000007C000
3FC000000007C000
3F8000000007E000
7E0000000007E000
7E000000000FE000
7C000000000FE000
7C000000000FE000
7C000000000FF000
FC000000000FF000
FC000000000FF000
FC000000000FF000
FC000000000FF000
FC000000000FF000
FC000000000FF000
FC000000000FF000
FC0000000007F000
FC0000000007F000
FC0000000007F000
FC0000000007F000
FC0000000007F000
FC0000000003F000
FC0000000003F000
7C0000000003F000
7C0000000003F800
7C0000000001F800
7C0000000001F800
7E0000000001F800
7E0000000001FC00
7E0000000000FC00
7E0000000000FC00
3E0000000000FE00
3E0000000000FE00
3F0000000000FE00
3F00000000007F00
3F00000000007F00
1F00000000007F00
1F8000000000FF80
1F8000000000FF80
1F8000000000FF80
0FC000000001FFC0
0FC000000001FFC0
0FE000000003FFE0
07E000000007FFE0
07F00000000FFFE0
07F80000001FFFF0
03F80000003FFFF0
03FC0000007FFFF0
01FE000001FFFFF8
01FF000003FF0FF8
00FF80000FFC07F8
007FC0003FF807FC
007FF801FFE003FC
003FFFFFFFC003FC
001FFFFFFF0001FC
000FFFFFFE0000FC
0007FFFFF80000FC
0003FFFFE0000010
0001FFFFC0000000
00007FFE00000000
00000FF800000000
ENDCHAR
STARTCHAR Udieresis
ENCODING 220
SWIDTH 571 0
DWIDTH 67 0
BBX 62 79 3 0
BITMAP
00001F0007C00000
00003F800FF00000
00007FC01FF00000
0000FFE03FF80000
0000FFE03FF80000
0001FFE03FF80000
0000FFE03FF80000
0000FFE03FF80000
00007FC01FF00000
00003F800FE00000
00001E0003800000
0000000000000000
0000000000000000
0000000000000000
0000000000000000
0180000000000000
07C0000000010000
0FE0000000038000
1FE0000000038000
3FC000000007C000
3FC000000007C000
3F8000000007E000
7E0000000007E000
7E000000000FE000
7C000000000FE000
7C000000000FE000
7C000000000FF000
FC000000000FF000
FC000000000FF000
FC000000000FF000
FC000000000FF000
FC000000000FF000
FC000000000FF000
FC000000000FF000
FC0000000007F000
FC0000000007F000
FC0000000007F000
FC0000000007F000
FC0000000007F000
FC0000000003F000
FC0000000003F000
7C0000000003F000
7C0000000003F800
7C0000000001F800
7C0000000001F800
7E0000000001F800
7E0000000001FC00
7E0000000000FC00
7E0000000000FC00
3E0000000000FE00
3E0000000000FE00
3F0000000000FE00
3F00000000007F00
3F00000000007F00
1F00000000007F00
1F8000000000FF80
1F8000000000FF80
1F8000000000FF80
0FC000000001FFC0
0FC000000001FFC0
0FE000000003FFE0
07E000000007FFE0
07F00000000FFFE0
07F80000001FFFF0
03F80000003FFFF0
03FC0000007FFFF0
01FE000001FFFFF8
01FF000003FF0FF8
00FF80000FFC07F8
007FC0003FF807FC
007FF801FFE003FC
003FFFFFFFC003FC
001FFFFFFF0001FC
000FFFFFFE0000FC
0007FFFFF80000FC
0003FFFFE0000010
0001FFFFC0000000
00007FFE00000000
00000FF800000000
ENDCHAR
STARTCHAR Yacute
ENCODING 221
SWIDTH 403 0
DWIDTH 47 0
BBX 43 99 2 -2
BITMAP
000000003000
00000000F800
00000001F800
00000007F000
0000000FF000
0000003FE000
0000007FC000
000000FF8000
000001FF0000
000003FE0000
000007FC0000
00000FF80000
00001FE00000
00001FC00000
00001F800000
00001F000000
00001E000000
00001C000000
000000000000
000000000000
000000000000
000000000000
F00000000000
F00000000000
F80000000000
F80000000000
FC00000003E0
FC00000003E0
FE00000007E0
7E00000007E0
7F00000007E0
7F00000007E0
7F80000007E0
3FC0000007E0
3FC000000FE0
1FE000000FC0
1FF000000FC0
0FF800001FC0
07FC00001FC0
07FC00003FC0
03FE00003F80
01FF00007F80
00FF80007F80
007FE0007F80
003FF000FF00
001FF800FF00
000FFE01FF00
0007FF81FE00
0001FFFFFE00
0000FFFFFE00
00007FFFFC00
00001FFFFC00
000007FFF800
000003FFF800
000000FFF800
0000003FF000
0000000FF000
0000000FE000
0000000FE000
0000001FE000
0000001FC000
0000001FC000
0000003F8000
0000003F8000
0000003F0000
0000007F0000
0000007F0000
0000007E0000
0000007E0000
000000FE0000
000000FC0000
000000FC0000
000001FC0000
000001F80000
000001F80000
000001F80000
000003F80000
000003F00000
000003F00000
000003F00000
000003F00000
000003F00000
000007F00000
000007E00000
000007E00000
000007E00000
000007E00000
000007E00000
000007E00000
000007E00000
000007E00000
000007E00000
000007E00000
000007E00000
000007E00000
000007F00000
000007F00000
000003E00000
000001C00000
ENDCHAR
STARTCHAR Thorn
ENCODING 222
SWIDTH 497 0
DWIDTH 58 0
BBX 50 89 6 -18
BITMAP
F0000000000000
FE000000000000
FE000000000000
FF000000000000
FF000000000000
FF000000000000
FE000000000000
FE000000000000
FE000000000000
FE000000000000
FE000000000000
FE000000000000
FE000000000000
FE000000000000
FE000000000000
FE000000000000
FE000000000000
FE000000000000
FE000000000000
FE000000000000
FE000000000000
FE000000000000
FE000000000000
FE000000000000
FC000000000000
FC000000000000
FC000000000000
FC000000000000
FC000000000000
FC000000000000
FC000000000000
FC010000000000
FE3FFF80000000
7FFFFFF8000000
7FFFFFFF000000
7FFFFFFFC00000
7FFFFFFFF00000
7FFFFFFFFC0000
7FF807FFFF0000
7FE0003FFF8000
7FC00007FFE000
7F800000FFF000
7F8000003FF800
7F8000001FFC00
7F00000007FC00
7F00000003FE00
7F00000001FF00
7F00000000FF00
7F000000007F80
7F000000003F80
7F000000003F80
7F000000001FC0
7F000000001FC0
7F000000001FC0
3F800000000FC0
3F800000000FC0
3FC00000001FC0
3FE00000001FC0
3FE00000003FC0
3FF00000007FC0
3FFC000000FF80
3FFE000001FF80
3FFF800007FF00
3FFFF0003FFF00
3FFFFF87FFFE00
3FFFFFFFFFFC00
3F3FFFFFFFF800
3F0FFFFFFFE000
3F01FFFFFF8000
3F007FFFFC0000
3F000FFF800000
3F000000000000
3F000000000000
3F800000000000
1F800000000000
1F800000000000
1F800000000000
1F800000000000
1F800000000000
1F800000000000
1F800000000000
1F800000000000
1F800000000000
1F800000000000
1F800000000000
1F800000000000
1F800000000000
07800000000000
01800000000000
ENDCHAR
STARTCHAR germandbls
ENCODING 223
SWIDTH 590 0
DWIDTH 69 0
BBX 63 98 4 -16
BITMAP
0080000000000000
0FFFC00000000000
1FFFFC0000000000
3FFFFF8000000000
7FFFFFF000000000
7FFFFFFC00000000
7FFFFFFF00000000
FFFFFFFF80000000
FFFFC7FFE0000000
FFE0007FF0000000
FF80000FF8000000
FE000007FC000000
FE000003FE000000
FE000001FE000000
FE000000FF000000
FE0000007F000000
FE0000007F000000
FE0000007F000000
FE0000003F000000
FF0000003F000000
FF0000007F000000
FF0000007E000000
FF0000007E000000
FF000000FC000000
FF000000FC000000
7F000001F8000000
7F000003F8000000
7F00000FF0000000
7F00007FE0000000
7F0003FFC0000000
7F003FFFC0000000
7F007FFF80000000
3F80FFFF00000000
3F80FFFF00000000
3F80FFFF80000000
3F80FFFFE0000000
3F807FFFF8000000
3F801FFFFE000000
1F8007FFFF800000
1F8001FFFFC00000
1F80003FFFF00000
1F80000FFFF80000
1F800001FFFE0000
1F8000003FFF0000
0F80000007FFC000
0FC0000001FFE000
0FC00000003FF000
0FC00000000FF800
0FC000000007FC00
0FC000000001FE00
0FC000000000FF00
07C0000000007F80
07C0000000003FC0
07C0000000001FE0
07C0000000000FE0
07C00000000007F0
07C00000000007F0
07C00000000003F8
07E00000000003F8
03E00000000001FC
03E00000000001FC
03E00000000001FC
03E00000000001FE
03E00000000001FE
03E00000000001FE
03E00000000001FE
03E00000000001FE
03E00000000003FE
03E00000000007FC
03E0000000000FFC
03E0000000003FF8
03F000000003FFF0
03F0000007FFFFE0
03F003FFFFFFFFC0
03F003FFFFFFFF00
03F003FFFFFFF800
03F003FFFFFFC000
03F003FFFFFC0000
03F001FFFC000000
03F0000000000000
03F0000000000000
03F0000000000000
03F0000000000000
03F0000000000000
03F8000000000000
07F8000000000000
07F8000000000000
07F8000000000000
07F8000000000000
07F8000000000000
0FF8000000000000
0FF8000000000000
0FF8000000000000
1FF8000000000000
1FF8000000000000
07F8000000000000
01FC000000000000
0004000000000000
ENDCHAR
STARTCHAR agrave
ENCODING 224
SWIDTH 505 0
DWIDTH 59 0
BBX 54 76 2 0
BITMAP
00003800000000
00003F00000000
00003FC0000000
00001FE0000000
00001FF0000000
00000FF8000000
000007FC000000
000003FE000000
000001FF000000
000000FF800000
0000007FC00000
0000003FC00000
0000000F800000
00000007800000
00000000000000
00000000000000
00000000000000
00000000000000
00001FF0000000
00007FFE000000
0000FFFF800000
0000FFFFC00000
0001FFFFF00000
0001FFFFF80000
0001FCFFFC0000
0001E00FFE0000
0000C003FF0000
00000000FF8000
000000007FC000
000000003FE000
000000001FF000
000000000FF000
0000000007F800
0000000003FC00
0000000001FC00
0000000001FE00
0000000000FE00
0000000000FF00
0000000000FF00
00000000007F80
00007FFC007F80
0007FFFFC07FC0
001FFFFFFC7FC0
007FFFFFFFFFC0
00FFFFFFFFFFE0
03FFFFFFFFFFE0
07FFFC01FFFFE0
0FFF80003FFFF0
0FFE00000FFFF0
1FF0000003FFF0
3FE0000000FFF0
3F800000007FF8
7F000000003FF8
7E000000001FF8
7E000000000FF8
FC0000000007F8
FC0000000003F8
FC0000000003F8
FC0000000001F8
FC0000000000F8
7C0000000000F8
7E000000000078
7E000000000078
7F000000000038
3FC00000000000
3FF00000000000
1FFC0000007FFC
0FFFC0003FFFFC
07FFFFFFFFFFFC
03FFFFFFFFFFF8
01FFFFFFFFFFE0
007FFFFFFFFF80
001FFFFFFFFC00
0007FFFFFFE000
00007FFFFE0000
000001FFC00000
ENDCHAR
STARTCHAR aacute
ENCODING 225
SWIDTH 505 0
DWIDTH 59 0
BBX 54 81 2 0
BITMAP
00000001800000
00000003C00000
0000000FC00000
0000001FC00000
0000007FC00000
000000FF800000
000001FF000000
000007FE000000
00000FFC000000
00001FF8000000
00003FE0000000
00003FC0000000
00007F80000000
00007F00000000
0000FE00000000
0000FC00000000
00007800000000
00007000000000
00000000000000
00000000000000
00000000000000
00000000000000
00000000000000
00001FF0000000
00007FFE000000
0000FFFF800000
0000FFFFC00000
0001FFFFF00000
0001FFFFF80000
0001FCFFFC0000
0001E00FFE0000
0000C003FF0000
00000000FF8000
000000007FC000
000000003FE000
000000001FF000
000000000FF000
0000000007F800
0000000003FC00
0000000001FC00
0000000001FE00
0000000000FE00
0000000000FF00
0000000000FF00
00000000007F80
00007FFC007F80
0007FFFFC07FC0
001FFFFFFC7FC0
007FFFFFFFFFC0
00FFFFFFFFFFE0
03FFFFFFFFFFE0
07FFFC01FFFFE0
0FFF80003FFFF0
0FFE00000FFFF0
1FF0000003FFF0
3FE0000000FFF0
3F800000007FF8
7F000000003FF8
7E000000001FF8
7E000000000FF8
FC0000000007F8
FC0000000003F8
FC0000000003F8
FC0000000001F8
FC0000000000F8
7C0000000000F8
7E000000000078
7E000000000078
7F000000000038
3FC00000000000
3FF00000000000
1FFC0000007FFC
0FFFC0003FFFFC
07FFFFFFFFFFFC
03FFFFFFFFFFF8
01FFFFFFFFFFE0
007FFFFFFFFF80
001FFFFFFFFC00
0007FFFFFFE000
00007FFFFE0000
000001FFC00000
ENDCHAR
STARTCHAR acircumflex
ENCODING 226
SWIDTH 505 0
DWIDTH 59 0
BBX 54 86 2 0
BITMAP
00000018000000
0000003E000000
0000007F000000
0000007F000000
0000007F800000
0000007FC00000
000000FFC00000
000000FFE00000
000001FFF00000
000001FFF80000
000003FFFC0000
000003FFFE0000
000007FFFF0000
00000FFFFF0000
00001FE7FF8000
00003FC1FFC000
0000FFC0FFC000
0001FF807FE000
0003FF003FE000
0007FE003FE000
000FFC001FE000
000FF8000FE000
000FE00007E000
0007C00003E000
00000000008000
00000000000000
00000000000000
00000000000000
00001FF0000000
00007FFE000000
0000FFFF800000
0000FFFFC00000
0001FFFFF00000
0001FFFFF80000
0001FCFFFC0000
0001E00FFE0000
0000C003FF0000
00000000FF8000
000000007FC000
000000003FE000
000000001FF000
000000000FF000
0000000007F800
0000000003FC00
0000000001FC00
0000000001FE00
0000000000FE00
0000000000FF00
0000000000FF00
00000000007F80
00007FFC007F80
0007FFFFC07FC0
001FFFFFFC7FC0
007FFFFFFFFFC0
00FFFFFFFFFFE0
03FFFFFFFFFFE0
07FFFC01FFFFE0
0FFF80003FFFF0
0FFE00000FFFF0
1FF0000003FFF0
3FE0000000FFF0
3F800000007FF8
7F000000003FF8
7E000000001FF8
7E000000000FF8
FC0000000007F8
FC0000000003F8
FC0000000003F8
FC0000000001F8
FC0000000000F8
7C0000000000F8
7E000000000078
7E000000000078
7F000000000038
3FC00000000000
3FF00000000000
1FFC0000007FFC
0FFFC0003FFFFC
07FFFFFFFFFFFC
03FFFFFFFFFFF8
01FFFFFFFFFFE0
007FFFFFFFFF80
001FFFFFFFFC00
0007FFFFFFE000
00007FFFFE0000
000001FFC00000
ENDCHAR
STARTCHAR atilde
ENCODING 227
SWIDTH 505 0
DWIDTH 59 0
BBX 54 81 2 0
BITMAP
000FF000001C00
001FFC00007E00
007FFF0000FE00
00FFFFC001FC00
00FFBFE007F800
01FC0FF80FF000
01F803FFFFE000
03F001FFFFC000
03F000FFFF8000
03E0003FFF0000
03E0001FFE0000
03E00007FC0000
01E00000000000
01E00000000000
00E00000000000
00600000000000
00000000000000
00000000000000
00000000000000
00000000000000
00000000000000
00000000000000
00000000000000
00001FF0000000
00007FFE000000
0000FFFF800000
0000FFFFC00000
0001FFFFF00000
0001FFFFF80000
0001FCFFFC0000
0001E00FFE0000
0000C003FF0000
00000000FF8000
000000007FC000
000000003FE000
000000001FF000
000000000FF000
0000000007F800
0000000003FC00
0000000001FC00
0000000001FE00
0000000000FE00
0000000000FF00
0000000000FF00
00000000007F80
00007FFC007F80
0007FFFFC07FC0
001FFFFFFC7FC0
007FFFFFFFFFC0
00FFFFFFFFFFE0
03FFFFFFFFFFE0
07FFFC01FFFFE0
0FFF80003FFFF0
0FFE00000FFFF0
1FF0000003FFF0
3FE0000000FFF0
3F800000007FF8
7F000000003FF8
7E000000001FF8
7E000000000FF8
FC0000000007F8
FC0000000003F8
FC0000000003F8
FC0000000001F8
FC0000000000F8
7C0000000000F8
7E000000000078
7E000000000078
7F000000000038
3FC00000000000
3FF00000000000
1FFC0000007FFC
0FFFC0003FFFFC
07FFFFFFFFFFFC
03FFFFFFFFFFF8
01FFFFFFFFFFE0
007FFFFFFFFF80
001FFFFFFFFC00
0007FFFFFFE000
00007FFFFE0000
000001FFC00000
ENDCHAR
STARTCHAR adieresis
ENCODING 228
SWIDTH 505 0
DWIDTH 59 0
BBX 54 75 2 0
BITMAP
0000FC001F0000
0001FE007F8000
0003FF007FC000
0003FF00FFC000
0007FF81FFE000
0007FF81FFE000
0007FF81FFE000
0003FF00FFC000
0003FE007FC000
0001FC007F0000
000070001C0000
00000000000000
00000000000000
00000000000000
00000000000000
00000000000000
00000000000000
00001FF0000000
00007FFE000000
0000FFFF800000
0000FFFFC00000
0001FFFFF00000
0001FFFFF80000
0001FCFFFC0000
0001E00FFE0000
0000C003FF0000
00000000FF8000
000000007FC000
000000003FE000
000000001FF000
000000000FF000
0000000007F800
0000000003FC00
0000000001FC00
0000000001FE00
0000000000FE00
0000000000FF00
0000000000FF00
00000000007F80
00007FFC007F80
0007FFFFC07FC0
001FFFFFFC7FC0
007FFFFFFFFFC0
00FFFFFFFFFFE0
03FFFFFFFFFFE0
07FFFC01FFFFE0
0FFF80003FFFF0
0FFE00000FFFF0
1FF0000003FFF0
3FE0000000FFF0
3F800000007FF8
7F000000003FF8
7E000000001FF8
7E000000000FF8
FC0000000007F8
FC0000000003F8
FC0000000003F8
FC0000000001F8
FC0000000000F8
7C0000000000F8
7E000000000078
7E000000000078
7F000000000038
3FC00000000000
3FF00000000000
1FFC0000007FFC
0FFFC0003FFFFC
07FFFFFFFFFFFC
03FFFFFFFFFFF8
01FFFFFFFFFFE0
007FFFFFFFFF80
001FFFFFFFFC00
0007FFFFFFE000
00007FFFFE0000
000001FFC00000
ENDCHAR
STARTCHAR aring
ENCODING 229
SWIDTH 505 0
DWIDTH 59 0
BBX 54 76 2 0
BITMAP
000000FF000000
000003FFC00000
00000FFFE00000
00001FFFF00000
00003F03F00000
00003C00F80000
00007800780000
000078007C0000
000070003C0000
000070003C0000
000070003C0000
000070007C0000
00007800780000
00007800F80000
00003C03F00000
00003F8FF00000
00001FFFE00000
00000FFF800000
00001FFE000000
00007FFE000000
0000FFFF800000
0000FFFFC00000
0001FFFFF00000
0001FFFFF80000
0001FCFFFC0000
0001E00FFE0000
0000C003FF0000
00000000FF8000
000000007FC000
000000003FE000
000000001FF000
000000000FF000
0000000007F800
0000000003FC00
0000000001FC00
0000000001FE00
0000000000FE00
0000000000FF00
0000000000FF00
00000000007F80
00007FFC007F80
0007FFFFC07FC0
001FFFFFFC7FC0
007FFFFFFFFFC0
00FFFFFFFFFFE0
03FFFFFFFFFFE0
07FFFC01FFFFE0
0FFF80003FFFF0
0FFE00000FFFF0
1FF0000003FFF0
3FE0000000FFF0
3F800000007FF8
7F000000003FF8
7E000000001FF8
7E000000000FF8
FC0000000007F8
FC0000000003F8
FC0000000003F8
FC0000000001F8
FC0000000000F8
7C0000000000F8
7E000000000078
7E000000000078
7F000000000038
3FC00000000000
3FF00000000000
1FFC0000007FFC
0FFFC0003FFFFC
07FFFFFFFFFFFC
03FFFFFFFFFFF8
01FFFFFFFFFFE0
007FFFFFFFFF80
001FFFFFFFFC00
0007FFFFFFE000
00007FFFFE0000
000001FFC00000
ENDCHAR
STARTCHAR ae
ENCODING 230
SWIDTH 881 0
DWIDTH 103 0
BBX 100 61 2 -3
BITMAP
00001FF0000000001F80000000
00007FFE00000001FFF8000000
0000FFFF8000000FFFFC000000
0000FFFFC000001FFFFF000000
0001FFFFF000007FFFFF800000
0001FFFFF80000FFFFFFC00000
0001FCFFFC0003FF807FE00000
0001E00FFE0007FE001FE00000
0000C003FF000FF8000FF00000
00000000FF800FF00007F00000
000000007FC01FC00003F80000
000000003FE03F800001F80000
000000001FF03F800001F80000
000000000FF07F000001FC0000
0000000007F8FE000000FC0000
0000000003FCFC000000FC0000
0000000001FCFC000000FC0000
0000000001FFF8000000FC0000
0000000000FFF8000000FC0000
0000000000FFF8000000FC0000
0000000000FFF0000001FC0000
00000000007FF0000001FC0000
00007FFC007FF0000003F80000
0007FFFFC07FF000000FF80000
001FFFFFFC7FF000001FF00000
007FFFFFFFFFF000003FE00000
00FFFFFFFFFFF00000FFE00000
03FFFFFFFFFFF00003FFC00000
07FFFC01FFFFF0001FFF800000
0FFF80003FFFF1E0FFFF000000
0FFE00000FFFF3FFFFFC000000
1FF0000003FFF3FFFFF0000000
3FE0000000FFFBFFFFC0000000
3F800000007FFBFFFF00000000
7F000000003FF9FFF800000000
7E000000001FF83E0000000000
7E000000000FF8000000000000
FC0000000007F8000000000000
FC0000000007F8000000000000
FC0000000003F8000000000000
FC0000000001F8000000000000
FC0000000001FC000000000000
7C0000000001FC000000000000
7E0000000000FE000000000000
7E00000000007E000000000000
7F00000000007F000000000000
3FC0000000003F800000000000
3FF0000000003FC00000000000
1FFC0000007FFFF00000000000
0FFFC0003FFFFFFC0000000000
07FFFFFFFFFFFFFF0000000000
03FFFFFFFFFFFBFFE000000000
01FFFFFFFFFFF1FFFE000007F0
007FFFFFFFFF80FFFFFFFFFFE0
001FFFFFFFFC007FFFFFFFFFC0
0007FFFFFFE0001FFFFFFFFF00
00007FFFFE00000FFFFFFFFE00
000003FFC0000003FFFFFFF800
00000000000000007FFFFFC000
00000000000000000FFFFE0000
0000000000000000003E000000
ENDCHAR
STARTCHAR ccedilla
ENCODING 231
SWIDTH 449 0
DWIDTH 53 0
BBX 48 87 2 -35
BITMAP
000003E00000
00003FFF0000
0001FFFFC000
0007FFFFF000
000FFFFFF800
001FFFFFFC00
007FF007FE00
00FF8001FE00
01FF00007F00
03FC00003F00
03F800003F00
07F000001F00
0FE000001E00
0FE000000E00
1FC000000E00
1F8000000C00
3F8000000C00
3F0000000800
7F0000000000
7F0000000000
7E0000000000
7E0000000000
FE0000000000
FE0000000000
FE0000000000
FE0000000000
FE0000000000
FE0000000000
FE0000000000
FE0000000000
FE0000000000
FE0000000000
7E0000000000
7F0000000000
7F0000000000
7F0000000000
3F8000000000
3FC000000000
3FC000000000
1FE000000000
1FF000000000
0FFC00000000
07FF00000000
07FFC0000000
03FFF8000000
01FFFFF0003C
00FFFFFFFFFE
003FFFFFFFFF
000FFFFFFFFE
0003FFFFFFFC
0001FFFFFFF0
0001F7FFFF00
0003F0000000
0003F0000000
0003F0000000
0001F0000000
0001F0000000
0001F0000000
0001F0000000
0001F8000000
0000FC000000
0000FE000000
00007FC00000
00003FFE0000
00001FFFF000
00000FFFFC00
000001FFFF00
0000001FFF80
00000000FF80
000000003FC0
000000001FC0
000000000FE0
0000000007E0
0000000007E0
0000000007E0
0007C00007E0
0007F00007E0
0003F80007E0
0001FE0007E0
0000FF0007E0
0000FF800FC0
00007FE01FC0
00003FFFFF80
00001FFFFF00
00000FFFFC00
000003FFF000
000000FF8000
ENDCHAR
STARTCHAR egrave
ENCODING 232
SWIDTH 515 0
DWIDTH 60 0
BBX 55 78 2 0
BITMAP
0001E000000000
0001F800000000
0000FE00000000
0000FF00000000
00007F80000000
00007FE0000000
00003FF0000000
00001FF8000000
00000FFC000000
000003FE000000
000001FE000000
000000FE000000
0000007E000000
0000001C000000
00000000000000
00000000000000
00000000000000
00000060000000
00001FFE000000
0000FFFF800000
0003FFFFE00000
0007FFFFF00000
001FFFFFF80000
003FFC0FFC0000
007FE003FC0000
00FF8001FE0000
01FE0000FE0000
03FC00007F0000
03F800003F0000
07F000003F0000
0FE000003F8000
0FC000001F8000
1FC000001F8000
1F8000001F8000
3F8000001F8000
3F0000001F8000
3F0000001F8000
7F0000001F8000
7E0000003F8000
7E0000007F0000
7E000000FF0000
7E000001FE0000
FE000007FE0000
FE00000FFC0000
FE00003FF80000
FE0001FFF00000
FE0007FFE00000
FE7FFFFFC00000
FE7FFFFF000000
FE7FFFFC000000
FE7FFFF0000000
FE3FFF80000000
7E0FF800000000
7E000000000000
7E000000000000
7F000000000000
7F000000000000
3F000000000000
3F800000000000
3F800000000000
1FC00000000000
1FC00000000000
0FE00000000000
0FF00000000000
07F80000000000
03FC0000000000
01FF0000000000
01FFC000000000
00FFF800000000
003FFF00000002
001FFFFE01FFFC
000FFFFFFFFFF8
0007FFFFFFFFF0
0001FFFFFFFFE0
00007FFFFFFF80
00001FFFFFFC00
000003FFFFE000
0000003FFE0000
ENDCHAR
STARTCHAR eacute
ENCODING 233
SWIDTH 515 0
DWIDTH 60 0
BBX 55 82 2 0
BITMAP
00000003000000
0000000F800000
0000001F800000
0000007F800000
000000FF000000
000001FE000000
000007FC000000
00000FF8000000
00001FF0000000
00003FE0000000
00007FC0000000
0000FF80000000
0000FF00000000
0001FC00000000
0001F800000000
0001F000000000
0001E000000000
0000C000000000
00000000000000
00000000000000
00000000000000
00000060000000
00001FFE000000
0000FFFF800000
0003FFFFE00000
0007FFFFF00000
001FFFFFF80000
003FFC0FFC0000
007FE003FC0000
00FF8001FE0000
01FE0000FE0000
03FC00007F0000
03F800003F0000
07F000003F0000
0FE000003F8000
0FC000001F8000
1FC000001F8000
1F8000001F8000
3F8000001F8000
3F0000001F8000
3F0000001F8000
7F0000001F8000
7E0000003F8000
7E0000007F0000
7E000000FF0000
7E000001FE0000
FE000007FE0000
FE00000FFC0000
FE00003FF80000
FE0001FFF00000
FE0007FFE00000
FE7FFFFFC00000
FE7FFFFF000000
FE7FFFFC000000
FE7FFFF0000000
FE3FFF80000000
7E0FF800000000
7E000000000000
7E000000000000
7F000000000000
7F000000000000
3F000000000000
3F800000000000
3F800000000000
1FC00000000000
1FC00000000000
0FE00000000000
0FF00000000000
07F80000000000
03FC0000000000
01FF0000000000
01FFC000000000
00FFF800000000
003FFF00000002
001FFFFE01FFFC
000FFFFFFFFFF8
0007FFFFFFFFF0
0001FFFFFFFFE0
00007FFFFFFF80
00001FFFFFFC00
000003FFFFE000
0000003FFE0000
ENDCHAR
STARTCHAR ecircumflex
ENCODING 234
SWIDTH 515 0
DWIDTH 60 0
BBX 55 86 2 0
BITMAP
00000018000000
0000003E000000
0000003F000000
0000003F800000
0000007F800000
0000007FC00000
0000007FE00000
000000FFF00000
000000FFF80000
000001FFFC0000
000001FFFC0000
000003FFFE0000
000007FFFF0000
00000FFFFF8000
00001FF3FFC000
00003FE1FFC000
00007FC0FFE000
0000FF807FE000
0001FF003FF000
0003FE001FF000
000FFC000FF000
0007F80007F000
0007F00003F000
0003E00001F000
00000000004000
00000060000000
00001FFE000000
0000FFFF800000
0003FFFFE00000
0007FFFFF00000
001FFFFFF80000
003FFC0FFC0000
007FE003FC0000
00FF8001FE0000
01FE0000FE0000
03FC00007F0000
03F800003F0000
07F000003F0000
0FE000003F8000
0FC000001F8000
1FC000001F8000
1F8000001F8000
3F8000001F8000
3F0000001F8000
3F0000001F8000
7F0000001F8000
7E0000003F8000
7E0000007F0000
7E000000FF0000
7E000001FE0000
FE000007FE0000
FE00000FFC0000
FE00003FF80000
FE0001FFF00000
FE0007FFE00000
FE7FFFFFC00000
FE7FFFFF000000
FE7FFFFC000000
FE7FFFF0000000
FE3FFF80000000
7E0FF800000000
7E000000000000
7E000000000000
7F000000000000
7F000000000000
3F000000000000
3F800000000000
3F800000000000
1FC00000000000
1FC00000000000
0FE00000000000
0FF00000000000
07F80000000000
03FC0000000000
01FF0000000000
01FFC000000000
00FFF800000000
003FFF00000002
001FFFFE01FFFC
000FFFFFFFFFF8
0007FFFFFFFFF0
0001FFFFFFFFE0
00007FFFFFFF80
00001FFFFFFC00
000003FFFFE000
0000003FFE0000
ENDCHAR
STARTCHAR edieresis
ENCODING 235
SWIDTH 515 0
DWIDTH 60 0
BBX 55 73 2 0
BITMAP
0003E000FC0000
0007F801FE0000
000FF803FF0000
001FFC03FF0000
001FFC07FF8000
001FFC07FF8000
001FFC07FF8000
001FFC03FF0000
000FF803FE0000
0007F001FC0000
0001C000700000
00000000000000
00000060000000
00001FFE000000
0000FFFF800000
0003FFFFE00000
0007FFFFF00000
001FFFFFF80000
003FFC0FFC0000
007FE003FC0000
00FF8001FE0000
01FE0000FE0000
03FC00007F0000
03F800003F0000
07F000003F0000
0FE000003F8000
0FC000001F8000
1FC000001F8000
1F8000001F8000
3F8000001F8000
3F0000001F8000
3F0000001F8000
7F0000001F8000
7E0000003F8000
7E0000007F0000
7E000000FF0000
7E000001FE0000
FE000007FE0000
FE00000FFC0000
FE00003FF80000
FE0001FFF00000
FE0007FFE00000
FE7FFFFFC00000
FE7FFFFF000000
FE7FFFFC000000
FE7FFFF0000000
FE3FFF80000000
7E0FF800000000
7E000000000000
7E000000000000
7F000000000000
7F000000000000
3F000000000000
3F800000000000
3F800000000000
1FC00000000000
1FC00000000000
0FE00000000000
0FF00000000000
07F80000000000
03FC0000000000
01FF0000000000
01FFC000000000
00FFF800000000
003FFF00000002
001FFFFE01FFFC
000FFFFFFFFFF8
0007FFFFFFFFF0
0001FFFFFFFFE0
00007FFFFFFF80
00001FFFFFFC00
000003FFFFE000
0000003FFE0000
ENDCHAR
STARTCHAR igrave
ENCODING 236
SWIDTH 174 0
DWIDTH 20 0
BBX 16 70 2 0
BITMAP
C000
F800
FE00
7F80
7FC0
3FE0
1FF0
0FF8
07FC
03FE
01FE
00FF
007E
001E
0000
0000
0000
0000
0380
07C0
07E0
07E0
07E0
07E0
07E0
07E0
07E0
07E0
07E0
07E0
07E0
07E0
07E0
07F0
07F0
07F0
07F0
07F0
07F0
07F8
03F8
03F8
03F8
03F8
03FC
03FC
03FC
03FC
03FC
03FE
03FE
03FE
01FE
01FE
01FE
01FF
01FF
01FF
01FF
00FF
00FF
00FF
00FF
00FF
007F
007F
007F
003F
003E
001C
ENDCHAR
STARTCHAR iacute
ENCODING 237
SWIDTH 174 0
DWIDTH 20 0
BBX 19 73 -1 0
BITMAP
000180
0007C0
000FC0
003F80
007F80
01FF00
03FE00
07FC00
0FF800
1FF000
3FE000
7FC000
FF0000
FE0000
FC0000
F80000
F00000
E00000
000000
000000
000000
007000
00F800
00FC00
00FC00
00FC00
00FC00
00FC00
00FC00
00FC00
00FC00
00FC00
00FC00
00FC00
00FC00
00FC00
00FE00
00FE00
00FE00
00FE00
00FE00
00FE00
00FF00
007F00
007F00
007F00
007F00
007F80
007F80
007F80
007F80
007F80
007FC0
007FC0
007FC0
003FC0
003FC0
003FC0
003FE0
003FE0
003FE0
003FE0
001FE0
001FE0
001FE0
001FE0
001FE0
000FE0
000FE0
000FE0
0007E0
0007C0
000380
ENDCHAR
STARTCHAR icircumflex
ENCODING 238
SWIDTH 174 0
DWIDTH 20 0
BBX 32 86 -6 0
BITMAP
00018000
0003E000
0003F000
0003F800
0003FC00
0007FC00
0007FE00
000FFF00
000FFF80
000FFFC0
001FFFE0
003FFFE0
007FFFF0
00FFFFF8
01FF3FFC
03FE1FFE
07FC0FFE
0FF807FF
1FF003FF
3FF001FF
7FE000FF
FFC0007F
7F00003F
3E00001F
00000004
00000000
00000000
00000000
00000000
00000000
00000000
00000000
00000000
00000000
00038000
0007C000
0007E000
0007E000
0007E000
0007E000
0007E000
0007E000
0007E000
0007E000
0007E000
0007E000
0007E000
0007E000
0007E000
0007F000
0007F000
0007F000
0007F000
0007F000
0007F000
0007F800
0003F800
0003F800
0003F800
0003F800
0003FC00
0003FC00
0003FC00
0003FC00
0003FC00
0003FE00
0003FE00
0003FE00
0001FE00
0001FE00
0001FE00
0001FF00
0001FF00
0001FF00
0001FF00
0000FF00
0000FF00
0000FF00
0000FF00
0000FF00
00007F00
00007F00
00007F00
00003F00
00003E00
00001C00
ENDCHAR
STARTCHAR idieresis
ENCODING 239
SWIDTH 174 0
DWIDTH 20 0
BBX 30 68 -6 0
BITMAP
0F8003E0
1FC007F0
3FE00FF8
7FE01FFC
7FF01FFC
FFF01FFC
FFF01FFC
7FF01FFC
7FE00FF8
3FC007F0
0F0003C0
00000000
00000000
00000000
00000000
00000000
00038000
0007C000
0007E000
0007E000
0007E000
0007E000
0007E000
0007E000
0007E000
0007E000
0007E000
0007E000
0007E000
0007E000
0007E000
0007F000
0007F000
0007F000
0007F000
0007F000
0007F000
0007F800
0003F800
0003F800
0003F800
0003F800
0003FC00
0003FC00
0003FC00
0003FC00
0003FC00
0003FE00
0003FE00
0003FE00
0001FE00
0001FE00
0001FE00
0001FF00
0001FF00
0001FF00
0001FF00
0000FF00
0000FF00
0000FF00
0000FF00
0000FF00
00007F00
00007F00
00007F00
00003F00
00003E00
00001C00
ENDCHAR
STARTCHAR eth
ENCODING 240
SWIDTH 407 0
DWIDTH 48 0
BBX 44 63 3 -1
BITMAP
07E000000000
3FFE00000000
7FFFC0000000
FFFFF0000000
FFFFFC000000
FFFFFE000000
FE3FFF000180
F807FF8003C0
7001FFC00FE0
00007FE03FE0
00003FF0FFF0
00000FFFFFF0
000007FFFFE0
000001FFFFC0
00000FFFFF80
00003FFFFF00
0001FFFFFC00
000FFFFFE000
000FFFFFF000
000FFFC7F800
000FFF03F800
000FFC03FC00
000FF001FC00
0007C000FE00
00000000FE00
000000007E00
000000007F00
000000007F00
0003FFF83F80
001FFFFF3F80
007FFFFFFF80
01FFFFFFFF80
03FFFFFFFFC0
07FE001FFFC0
0FF80003FFC0
1FF00000FFC0
3FE000003FE0
3FC000001FE0
7F8000000FE0
7F00000007E0
7E00000007E0
FE00000003E0
FC00000003E0
FC00000003E0
FC00000007E0
FC00000007E0
FC00000007E0
FC00000007C0
FC0000000FC0
FE0000000FC0
FE0000001FC0
7F0000003F80
7F8000007F80
3FC00000FF80
3FF00003FF00
1FFC000FFF00
0FFFF0FFFE00
07FFFFFFFC00
03FFFFFFF800
00FFFFFFF000
007FFFFFE000
000FFFFF8000
0001FFFE0000
ENDCHAR
STARTCHAR ntilde
ENCODING 241
SWIDTH 459 0
DWIDTH 54 0
BBX 49 73 3 0
BITMAP
01FC0000078000
07FF00000F8000
0FFFC0003F8000
1FFFF0007F8000
3FE7FC00FE0000
7F01FE03FC0000
7E00FFFFF80000
7C007FFFF00000
7C001FFFE00000
FC000FFFC00000
7C0003FF800000
780000FF000000
78000000000000
78000000000000
38000000000000
18000000000000
00000000000000
00000000000000
00000000000000
00000000000000
00000000000000
000003F8000000
00001FFF000000
00007FFFC00000
0001FFFFE00000
0007FFFFF00000
001FFFFFF80000
F07FFFFFFC0000
F1FFF00FFE0000
FFFF8003FF0000
FFFE0001FF0000
FFFC0000FF8000
FFF800007F8000
FFF000003FC000
FFE000001FE000
FFC000001FE000
FFC000000FE000
FF8000000FF000
FF80000007F000
FF80000007F800
FF00000003F800
FF00000003F800
FF00000003FC00
7F00000001FC00
7F00000001FC00
7F00000001FE00
7F00000000FE00
7F00000000FE00
7F00000000FE00
7F00000000FF00
7F80000000FF00
7F800000007F00
7F800000007F00
7F800000007F00
3F800000007F00
3FC00000007F00
3FC00000007F00
3FC00000007F80
3FC00000007F80
1FE00000007F80
1FE00000007F80
1FE00000007F80
1FE00000007F00
0FE00000007F00
0FF00000007F00
0FF00000007F00
07F00000007F00
07F00000007F00
03F00000007E00
03F00000007E00
01F00000007E00
00F80000003C00
00380000000000
ENDCHAR
STARTCHAR ograve
ENCODING 242
SWIDTH 487 0
DWIDTH 57 0
BBX 52 65 2 0
BITMAP
00000E00000000
00000FC0000000
00000FF0000000
000007F8000000
000003FC000000
000003FE000000
000001FF000000
000000FFC00000
0000007FE00000
0000003FE00000
0000000FF00000
00000007F00000
00000003F00000
00000001E00000
00000000000000
00000000000000
00000000000000
0000007FE00000
00000FFFFC0000
00007FFFFF0000
0001FFFFFF8000
0007FFFFFFC000
001FFFFFFFE000
003FFFFFFFF000
00FFFC01FFF800
01FFE0007FFC00
03FF00001FFE00
07FC000007FE00
07F8000003FF00
0FE0000000FF80
1FC00000007F80
1F800000003FC0
3F800000001FC0
3F000000000FC0
7E000000000FE0
7E0000000007E0
7C0000000007E0
7C0000000007E0
FC0000000007F0
FC0000000007F0
FC0000000007F0
FC0000000007F0
FC0000000007F0
FC000000000FF0
FC000000000FE0
FC000000000FE0
7E000000001FE0
7E000000003FE0
7E000000003FC0
7F000000007FC0
3F80000000FFC0
3F80000001FF80
3FC0000003FF80
1FE000000FFF00
1FF000001FFE00
0FFC00007FFC00
07FE0001FFFC00
03FFC007FFF800
01FFFFFFFFE000
00FFFFFFFFC000
007FFFFFFF8000
001FFFFFFE0000
0007FFFFF80000
0001FFFFC00000
00001FFC000000
ENDCHAR
STARTCHAR oacute
ENCODING 243
SWIDTH 487 0
DWIDTH 57 0
BBX 52 71 2 0
BITMAP
00000001800000
00000007C00000
0000000FC00000
0000003FC00000
0000007F800000
000000FF000000
000003FE000000
000007FC000000
00000FF8000000
00001FF0000000
00003FE0000000
00007FC0000000
00007F80000000
0000FE00000000
0000FC00000000
0000F800000000
0000F000000000
00006000000000
00000000000000
00000000000000
00000000000000
00000000000000
00000000000000
0000007FE00000
00000FFFFC0000
00007FFFFF0000
0001FFFFFF8000
0007FFFFFFC000
001FFFFFFFE000
003FFFFFFFF000
00FFFC01FFF800
01FFE0007FFC00
03FF00001FFE00
07FC000007FE00
07F8000003FF00
0FE0000000FF80
1FC00000007F80
1F800000003FC0
3F800000001FC0
3F000000000FC0
7E000000000FE0
7E0000000007E0
7C0000000007E0
7C0000000007E0
FC0000000007F0
FC0000000007F0
FC0000000007F0
FC0000000007F0
FC0000000007F0
FC000000000FF0
FC000000000FE0
FC000000000FE0
7E000000001FE0
7E000000003FE0
7E000000003FC0
7F000000007FC0
3F80000000FFC0
3F80000001FF80
3FC0000003FF80
1FE000000FFF00
1FF000001FFE00
0FFC00007FFC00
07FE0001FFFC00
03FFC007FFF800
01FFFFFFFFE000
00FFFFFFFFC000
007FFFFFFF8000
001FFFFFFE0000
0007FFFFF80000
0001FFFFC00000
00001FFC000000
ENDCHAR
STARTCHAR ocircumflex
ENCODING 244
SWIDTH 487 0
DWIDTH 57 0
BBX 52 78 2 0
BITMAP
000000E0000000
000000F8000000
000001F8000000
000001FC000000
000001FE000000
000003FF000000
000003FF000000
000003FF800000
000007FFC00000
000007FFE00000
00000FFFF00000
00001FFFF80000
00001FFFFC0000
00003FFFFC0000
00007F9FFE0000
0000FF07FF0000
0003FE03FF0000
0007FE01FF8000
000FFC01FF8000
001FF800FF8000
003FF0007F8000
003FE0003F8000
003F80001F8000
001F00000F8000
00000000020000
00000000000000
00000000000000
00000000000000
00000000000000
00000000000000
0000007FE00000
00000FFFFC0000
00007FFFFF0000
0001FFFFFF8000
0007FFFFFFC000
001FFFFFFFE000
003FFFFFFFF000
00FFFC01FFF800
01FFE0007FFC00
03FF00001FFE00
07FC000007FE00
07F8000003FF00
0FE0000000FF80
1FC00000007F80
1F800000003FC0
3F800000001FC0
3F000000000FC0
7E000000000FE0
7E0000000007E0
7C0000000007E0
7C0000000007E0
FC0000000007F0
FC0000000007F0
FC0000000007F0
FC0000000007F0
FC0000000007F0
FC000000000FF0
FC000000000FE0
FC000000000FE0
7E000000001FE0
7E000000003FE0
7E000000003FC0
7F000000007FC0
3F80000000FFC0
3F80000001FF80
3FC0000003FF80
1FE000000FFF00
1FF000001FFE00
0FFC00007FFC00
07FE0001FFFC00
03FFC007FFF800
01FFFFFFFFE000
00FFFFFFFFC000
007FFFFFFF8000
001FFFFFFE0000
0007FFFFF80000
0001FFFFC00000
00001FFC000000
ENDCHAR
STARTCHAR otilde
ENCODING 245
SWIDTH 487 0
DWIDTH 57 0
BBX 52 63 2 0
BITMAP
0007F000001E00
001FFE00003F00
003FFF80007F00
007FFFC001FE00
00FFDFF003FC00
00FE07FC07F800
01FC03FFFFE000
01F800FFFFC000
01F0007FFF8000
01F0001FFF0000
01F0000FFE0000
01F00003FC0000
01F00000000000
00F00000000000
00F00000000000
0070007FE00000
00000FFFFC0000
00007FFFFF0000
0001FFFFFF8000
0007FFFFFFC000
001FFFFFFFE000
003FFFFFFFF000
00FFFC01FFF800
01FFE0007FFC00
03FF00001FFE00
07FC000007FE00
07F8000003FF00
0FE0000000FF80
1FC00000007F80
1F800000003FC0
3F800000001FC0
3F000000000FC0
7E000000000FE0
7E0000000007E0
7C0000000007E0
7C0000000007E0
FC0000000007F0
FC0000000007F0
FC0000000007F0
FC0000000007F0
FC0000000007F0
FC000000000FF0
FC000000000FE0
FC000000000FE0
7E000000001FE0
7E000000003FE0
7E000000003FC0
7F000000007FC0
3F80000000FFC0
3F80000001FF80
3FC0000003FF80
1FE000000FFF00
1FF000001FFE00
0FFC00007FFC00
07FE0001FFFC00
03FFC007FFF800
01FFFFFFFFE000
00FFFFFFFFC000
007FFFFFFF8000
001FFFFFFE0000
0007FFFFF80000
0001FFFFC00000
00001FFC000000
ENDCHAR
ENDFONT
